<svg width="416" height="450" viewBox="0 0 416 450" fill="none" xmlns="http://www.w3.org/2000/svg">
<g opacity="0.2">
<path d="M351.794 11.5215H177.813V223.936H351.794V11.5215Z" fill="black"/>
</g>
<path d="M339.597 0.25H165.616V212.664H339.597V0.25Z" fill="#00BFA6"/>
<g opacity="0.5">
<path d="M339.597 0.25H165.616V212.664H339.597V0.25Z" fill="white"/>
</g>
<path d="M339.614 0.25H165.6V14.4688H339.614V0.25Z" fill="#00BFA6"/>
<path d="M333.996 7.29211C334.009 8.13058 333.717 8.95326 333.158 9.65558C332.598 10.3579 331.797 10.9081 330.855 11.2364C329.913 11.5646 328.873 11.656 327.867 11.4989C326.861 11.3418 325.936 10.9434 325.207 10.3542C324.479 9.76508 323.98 9.01182 323.776 8.19019C323.571 7.36856 323.67 6.51567 324.058 5.73994C324.447 4.96421 325.109 4.30067 325.959 3.83366C326.809 3.36665 327.81 3.11725 328.834 3.11719C330.191 3.1171 331.495 3.55524 332.461 4.3367C333.427 5.11815 333.979 6.17997 333.996 7.29211Z" fill="white"/>
<path d="M308.884 197.445H198.249C195.791 197.446 193.356 197.051 191.084 196.282C188.812 195.512 186.748 194.384 185.008 192.961C183.269 191.537 181.89 189.847 180.948 187.987C180.007 186.127 179.522 184.133 179.522 182.119C179.522 180.105 180.007 178.111 180.948 176.251C181.89 174.39 183.269 172.7 185.008 171.277C186.748 169.854 188.812 168.725 191.084 167.956C193.356 167.186 195.791 166.791 198.249 166.793H308.884C311.343 166.791 313.778 167.186 316.05 167.956C318.322 168.725 320.386 169.854 322.125 171.277C323.865 172.7 325.244 174.39 326.186 176.251C327.127 178.111 327.611 180.105 327.611 182.119C327.611 184.133 327.127 186.127 326.186 187.987C325.244 189.847 323.865 191.537 322.125 192.961C320.386 194.384 318.322 195.512 316.05 196.282C313.778 197.051 311.343 197.446 308.884 197.445Z" fill="#00BFA6"/>
<path d="M194.602 187.469C193.375 186.955 192.348 186.17 191.639 185.201C190.934 184.202 190.563 183.068 190.563 181.913C190.563 180.759 190.934 179.625 191.639 178.626C192.344 177.658 193.372 176.876 194.602 176.371C195.909 175.817 197.364 175.537 198.836 175.558C200.162 175.54 201.478 175.753 202.696 176.185C203.802 176.578 204.767 177.198 205.496 177.985L202.337 180.306C201.972 179.873 201.486 179.518 200.92 179.27C200.353 179.022 199.723 178.888 199.08 178.879C198.612 178.86 198.144 178.924 197.708 179.066C197.272 179.209 196.88 179.427 196.556 179.706C195.892 180.311 195.546 181.107 195.596 181.92C195.552 182.733 195.896 183.527 196.556 184.134C196.881 184.411 197.275 184.626 197.71 184.767C198.146 184.907 198.613 184.969 199.08 184.948C199.721 184.94 200.35 184.807 200.916 184.562C201.482 184.316 201.969 183.964 202.337 183.534L205.496 185.842C204.767 186.629 203.802 187.249 202.696 187.642C201.402 188.09 200.006 188.306 198.602 188.276C197.198 188.246 195.817 187.971 194.553 187.469H194.602Z" fill="white"/>
<path d="M221.569 175.838V187.989H216.569V183.507H211.945V187.989H206.929V175.838H211.945V180.146H216.569V175.838H221.569Z" fill="white"/>
<path d="M236.322 184.908V187.989H223.979V175.838H236.046V178.932H228.897V180.346H235.183V183.307H228.897V184.908H236.322Z" fill="white"/>
<path d="M241.696 187.469C240.476 186.951 239.456 186.166 238.748 185.201C238.044 184.202 237.673 183.068 237.673 181.913C237.673 180.759 238.044 179.625 238.748 178.625C239.452 177.662 240.474 176.88 241.696 176.371C243.009 175.818 244.469 175.539 245.946 175.558C247.272 175.542 248.587 175.755 249.805 176.184C250.91 176.582 251.873 177.201 252.606 177.985L249.447 180.306C249.082 179.873 248.596 179.518 248.03 179.27C247.463 179.021 246.833 178.887 246.19 178.879C245.724 178.862 245.259 178.926 244.827 179.069C244.394 179.212 244.004 179.429 243.683 179.706C243.35 180.003 243.093 180.353 242.928 180.733C242.763 181.113 242.693 181.517 242.722 181.92C242.696 182.323 242.768 182.725 242.933 183.105C243.098 183.485 243.353 183.835 243.683 184.134C244.005 184.409 244.396 184.623 244.829 184.764C245.261 184.904 245.726 184.967 246.19 184.948C246.831 184.939 247.459 184.806 248.025 184.56C248.591 184.314 249.078 183.963 249.447 183.534L252.606 185.841C251.873 186.626 250.91 187.245 249.805 187.642C248.511 188.087 247.115 188.302 245.712 188.272C244.308 188.242 242.928 187.968 241.663 187.469H241.696Z" fill="white"/>
<path d="M260.065 183.961L258.941 184.988V187.989H254.056V175.838H258.941V180.253L263.826 175.838H269.265L263.338 181.173L269.575 187.976H263.777L260.065 183.961Z" fill="white"/>
<path d="M273.19 187.455C272.269 187.051 271.459 186.498 270.806 185.83C270.154 185.162 269.675 184.393 269.396 183.569C269.117 182.744 269.046 181.882 269.186 181.035C269.326 180.187 269.674 179.372 270.21 178.638C270.93 177.672 271.961 176.888 273.19 176.37C274.53 175.831 276.003 175.551 277.497 175.551C278.99 175.551 280.464 175.831 281.804 176.37C283.034 176.891 284.069 177.675 284.8 178.638C285.352 179.369 285.713 180.186 285.861 181.037C286.008 181.888 285.939 182.755 285.658 183.583C285.376 184.412 284.888 185.183 284.225 185.849C283.562 186.515 282.738 187.062 281.804 187.455C280.464 187.994 278.99 188.274 277.497 188.274C276.003 188.274 274.53 187.994 273.19 187.455ZM279.15 184.52C279.662 184.266 280.079 183.902 280.355 183.466C280.66 182.971 280.811 182.421 280.794 181.866C280.811 181.307 280.66 180.752 280.355 180.252C280.079 179.817 279.662 179.452 279.15 179.198C278.769 179.011 278.346 178.891 277.906 178.843C277.466 178.795 277.019 178.821 276.592 178.92C276.165 179.018 275.768 179.187 275.423 179.416C275.079 179.646 274.795 179.93 274.59 180.252C274.272 180.749 274.115 181.305 274.134 181.866C274.115 182.423 274.272 182.974 274.59 183.466C274.795 183.789 275.079 184.073 275.423 184.302C275.768 184.531 276.165 184.7 276.592 184.799C277.019 184.897 277.466 184.924 277.906 184.876C278.346 184.828 278.769 184.707 279.15 184.52Z" fill="white"/>
<path d="M289.474 186.76C288.818 186.199 288.31 185.532 287.982 184.802C287.654 184.072 287.513 183.295 287.569 182.519V175.85H292.568V182.412C292.498 183.096 292.704 183.781 293.154 184.36C293.353 184.554 293.603 184.708 293.885 184.812C294.167 184.916 294.474 184.967 294.783 184.96C295.092 184.969 295.4 184.919 295.682 184.815C295.965 184.711 296.214 184.555 296.411 184.36C296.862 183.781 297.068 183.096 296.998 182.412V175.85H301.883V182.519C301.938 183.295 301.798 184.072 301.47 184.802C301.142 185.532 300.634 186.199 299.978 186.76C298.458 187.736 296.583 188.266 294.653 188.266C292.722 188.266 290.847 187.736 289.328 186.76H289.474Z" fill="white"/>
<path d="M307.339 179.012H302.991V175.838H316.686V179.012H312.338V187.989H307.339V179.012Z" fill="white"/>
<path d="M201.458 56.4718H194.944V51.6699H215.641V56.4718H209.127V70.0503H201.555L201.458 56.4718Z" fill="#00BFA6"/>
<path d="M219.598 69.3575C218.102 68.7644 216.839 67.8404 215.951 66.6898C215.088 65.5308 214.631 64.1993 214.631 62.8417C214.631 61.484 215.088 60.1526 215.951 58.9935C216.834 57.8397 218.099 56.9147 219.598 56.3259C221.244 55.702 223.036 55.3789 224.85 55.3789C226.664 55.3789 228.456 55.702 230.102 56.3259C231.206 56.7781 232.183 57.4129 232.972 58.1902C233.761 58.9676 234.344 59.8705 234.686 60.842C235.027 61.8135 235.119 62.8324 234.955 63.8344C234.791 64.8363 234.375 65.7996 233.733 66.6631C232.855 67.816 231.596 68.7411 230.102 69.3308C228.459 69.9635 226.666 70.2915 224.85 70.2915C223.034 70.2915 221.241 69.9635 219.598 69.3308V69.3575ZM226.894 64.9558C227.458 64.3587 227.741 63.6155 227.692 62.8617C227.746 62.1155 227.462 61.3791 226.894 60.7942C226.63 60.5628 226.311 60.3782 225.957 60.2521C225.602 60.1259 225.22 60.0608 224.834 60.0608C224.447 60.0608 224.065 60.1259 223.711 60.2521C223.356 60.3782 223.037 60.5628 222.774 60.7942C222.205 61.3791 221.921 62.1155 221.976 62.8617C221.927 63.6155 222.21 64.3587 222.774 64.9558C223.035 65.1908 223.353 65.3786 223.708 65.5071C224.062 65.6356 224.446 65.702 224.834 65.702C225.222 65.702 225.605 65.6356 225.96 65.5071C226.315 65.3786 226.633 65.1908 226.894 64.9558Z" fill="#00BFA6"/>
<path d="M250.229 69.5572C248.845 70.1181 247.309 70.3799 245.767 70.3175C243.722 70.4345 241.698 69.9153 240.1 68.8636C239.398 68.2949 238.857 67.6074 238.514 66.8494C238.171 66.0914 238.034 65.2811 238.113 64.4753V60.8072H235.703V56.4722H238.113V52.4707H245.36V56.4722H248.942V60.8072H245.36V64.4753C245.328 64.8479 245.474 65.2162 245.767 65.5023C245.907 65.6233 246.076 65.7189 246.264 65.7832C246.452 65.8475 246.654 65.8791 246.858 65.8758C247.438 65.8821 248.006 65.7424 248.486 65.4757L250.229 69.5572Z" fill="#00BFA6"/>
<path d="M266.969 57.124C267.821 57.7905 268.48 58.605 268.897 59.5075C269.314 60.4101 269.479 61.3777 269.379 62.3393V70.0623H262.654V68.1682C262.201 68.8895 261.492 69.4811 260.619 69.8646C259.747 70.2481 258.753 70.4054 257.769 70.3157C256.546 70.3494 255.33 70.1484 254.219 69.7288C253.311 69.377 252.543 68.8221 252.004 68.1282C251.5 67.4449 251.24 66.6591 251.255 65.8607C251.216 65.2259 251.379 64.5937 251.727 64.0258C252.075 63.4578 252.597 62.9733 253.242 62.6194C255.079 61.7853 257.172 61.4054 259.267 61.5257H262.182C261.954 60.4053 260.847 59.845 258.925 59.845C258.108 59.8455 257.296 59.9443 256.515 60.1385C255.767 60.3131 255.062 60.5929 254.431 60.9655L252.118 57.0573C253.252 56.5072 254.482 56.1024 255.766 55.8569C257.157 55.5771 258.584 55.4339 260.016 55.43C262.505 55.3062 264.968 55.9061 266.969 57.124ZM261.254 66.4609C261.685 66.211 262 65.8491 262.149 65.4338V64.4335H260.358C258.892 64.4335 258.143 64.847 258.143 65.6473C258.14 65.8054 258.181 65.9621 258.263 66.1054C258.345 66.2487 258.465 66.3749 258.616 66.4742C258.977 66.7061 259.427 66.8243 259.886 66.8077C260.376 66.7917 260.848 66.6519 261.237 66.4075L261.254 66.4609Z" fill="#00BFA6"/>
<path d="M272.539 50.5762H279.785V70.0636H272.539V50.5762Z" fill="#00BFA6"/>
<path d="M237.739 97.3398H186.77V101.928H237.739V97.3398Z" fill="#00BFA6"/>
<path d="M223.784 86.0566H186.77V90.6451H223.784V86.0566Z" fill="#263238"/>
<path d="M247.331 109.586H186.77V114.174H247.331V109.586Z" fill="#00BFA6"/>
<path d="M315.61 109.586H287.569V114.174H315.61V109.586Z" fill="#00BFA6"/>
<path d="M229.76 128.1H186.77V132.688H229.76V128.1Z" fill="#00BFA6"/>
<path d="M77.0789 151.281C71.8679 151.281 66.8687 155.136 63.8072 162.299C60.7458 169.462 62.9441 179.865 63.3675 184.774C63.7909 189.683 60.7295 196.779 60.7295 196.779C67.8131 192.043 72.6333 186.108 73.4475 177.931C74.1853 181.207 73.9394 184.581 72.731 187.762C76.9316 184.744 80.2346 180.981 82.3875 176.758C86.2957 169.421 85.8561 159.004 85.8561 159.004C85.8561 159.004 82.3061 151.281 77.0789 151.281Z" fill="#263238"/>
<path d="M73.3172 160.005C73.1056 163.753 74.9457 170.676 86.1818 164.474C97.4179 158.271 84.2277 154.537 78.8376 155.417C77.4142 155.546 76.0884 156.073 75.0832 156.909C74.0779 157.744 73.4543 158.838 73.3172 160.005Z" fill="#00BFA6"/>
<path d="M78.7234 160.392C77.2904 168.062 81.7686 175.064 84.488 184.241C87.2075 193.418 84.9114 195.445 84.9114 195.445C84.9114 195.445 108.752 192.377 121.16 174.344C133.569 156.31 111.178 144.439 97.3851 147.961C90.5946 145.173 80.1401 152.922 78.7234 160.392Z" fill="#263238"/>
<path d="M136.646 204.396C136.777 205.424 136.972 206.677 137.151 207.838C137.33 208.998 137.574 210.212 137.802 211.386C138.291 213.76 138.828 216.121 139.431 218.469C140.033 220.816 140.766 223.124 141.532 225.418C142.297 227.712 143.16 229.966 144.235 232.154L144.609 232.967L144.805 233.381L144.951 233.674C145.043 233.872 145.152 234.063 145.277 234.248C145.388 234.46 145.518 234.665 145.668 234.861C146.308 235.787 147.021 236.678 147.801 237.529C149.561 239.367 151.448 241.122 153.452 242.784C157.539 246.226 162.033 249.6 166.479 252.842L162.945 257.177C157.298 254.773 151.925 251.961 146.889 248.773C144.272 247.118 141.807 245.308 139.512 243.358C138.264 242.297 137.115 241.16 136.076 239.957C135.79 239.635 135.524 239.301 135.278 238.956C135.003 238.609 134.753 238.248 134.529 237.876L134.171 237.316L133.911 236.862L133.389 235.942C130.68 231.107 128.532 226.074 126.973 220.909C126.192 218.348 125.508 215.774 124.987 213.187C124.726 211.853 124.482 210.586 124.27 209.265C124.059 207.945 123.912 206.691 123.782 205.263L136.646 204.396Z" fill="#FFB573"/>
<path d="M132.202 194.565C136.533 195.459 139.562 210.064 139.562 210.064L127.626 216.734C127.626 216.734 116.227 202.061 119.484 198.06C122.741 194.058 125.883 193.245 132.202 194.565Z" fill="#00BFA6"/>
<g opacity="0.5">
<path d="M132.202 194.565C136.533 195.459 139.562 210.064 139.562 210.064L127.626 216.734C127.626 216.734 116.227 202.061 119.484 198.06C122.741 194.058 125.883 193.245 132.202 194.565Z" fill="white"/>
</g>
<path opacity="0.2" d="M131.81 197.859L135.067 212.532L133.439 213.479V214.399C133.207 219.948 132.378 225.469 130.964 230.899L128.244 224.963L125.834 217.24L128.505 216.253L131.81 197.859Z" fill="black"/>
<path d="M168.531 253L176.673 255.588L167.521 260.11C167.521 260.11 161.675 257.335 161.822 253.761L162.717 253.347C163.595 252.941 164.571 252.7 165.576 252.64C166.582 252.58 167.591 252.703 168.531 253Z" fill="#FFB573"/>
<path d="M181.673 260.483L174.785 265.178L167.489 260.11L176.641 255.588L181.673 260.483Z" fill="#FFB573"/>
<path d="M132.201 194.565C132.201 194.565 137.201 196.005 127.169 246.505H84.5047C85.2212 232.273 85.3678 223.496 77.0791 194.298C82.985 193.297 88.9715 192.646 94.9918 192.351C101.443 191.977 107.919 191.977 114.37 192.351C122.822 192.978 132.201 194.565 132.201 194.565Z" fill="#00BFA6"/>
<g opacity="0.4">
<path d="M132.201 194.565C132.201 194.565 137.201 196.005 127.169 246.505H84.5047C85.2212 232.273 85.3678 223.496 77.0791 194.298C82.985 193.297 88.9715 192.646 94.9918 192.351C101.443 191.977 107.919 191.977 114.37 192.351C122.822 192.978 132.201 194.565 132.201 194.565Z" fill="white"/>
</g>
<path opacity="0.2" d="M81.7858 212.239L85.7591 213.186L87.127 210.812C87.127 210.812 109.274 217.081 118.914 214.066C125.134 212.119 127.333 210.158 127.333 210.158L80.5645 207.344L81.7858 212.239Z" fill="black"/>
<path d="M98.4443 440.232H108.964L113.263 420.305H102.76L98.4443 440.232Z" fill="#FFB573"/>
<path d="M109.795 439.285H97.9886C97.784 439.281 97.5843 439.338 97.4281 439.446C97.2718 439.554 97.1698 439.706 97.1418 439.872L95.8065 447.515C95.7711 447.706 95.7868 447.902 95.8527 448.087C95.9185 448.273 96.0328 448.445 96.1877 448.591C96.3426 448.737 96.5344 448.853 96.7497 448.932C96.9651 449.011 97.1989 449.051 97.435 449.049C101.555 449.049 103.542 448.796 108.72 448.796C111.977 448.796 121.096 449.062 125.509 449.062C129.922 449.062 130.15 445.501 128.31 445.168C120.07 443.727 114.273 441.726 111.488 439.832C111.015 439.499 110.418 439.306 109.795 439.285Z" fill="#263238"/>
<g opacity="0.2">
<path d="M113.263 420.318L111.048 430.589H100.528L102.743 420.318H113.263Z" fill="black"/>
</g>
<path d="M95.1387 192.365C101.584 191.977 108.055 191.977 114.501 192.365L115.771 192.458C117.399 194.859 117.709 198.554 113.996 203.969C113.996 203.969 97.0113 198.367 92.582 192.498C93.3637 192.445 94.2105 192.391 95.1387 192.365Z" fill="#FFB573"/>
<path d="M127.17 246.504C127.17 246.504 135.458 312.796 134.774 339.046C134.058 366.336 113.328 428.613 113.328 428.613H99.1282C99.1282 428.613 109.892 367.95 108.638 341.14C107.27 311.916 95.9365 246.517 95.9365 246.517L127.17 246.504Z" fill="#263238"/>
<path opacity="0.3" d="M127.17 246.504C127.17 246.504 135.458 312.796 134.774 339.046C134.058 366.336 113.328 428.613 113.328 428.613H99.1282C99.1282 428.613 109.892 367.95 108.638 341.14C107.27 311.916 95.9365 246.517 95.9365 246.517L127.17 246.504Z" fill="#263238"/>
<path d="M97.8904 429.015H114.565L115.787 424.666L97.125 424.133L97.8904 429.015Z" fill="#263238"/>
<path opacity="0.2" d="M108.768 262.991C119.255 280.265 110.869 311.77 107.14 323.495C105.235 305.888 102.027 284.373 99.5352 268.567C101.147 259.63 103.932 255.042 108.768 262.991Z" fill="black"/>
<path d="M6.89404 363.27L10.444 371.366L34.6424 367.631L31.1087 359.521L6.89404 363.27Z" fill="#FFB573"/>
<path d="M13.2936 371.632L12.4631 361.989C12.4545 361.813 12.3719 361.646 12.2294 361.514C12.0869 361.383 11.8933 361.296 11.6815 361.268L2.18777 359.708C1.95797 359.668 1.71973 359.673 1.49315 359.724C1.26657 359.775 1.05829 359.87 0.885872 360.001C0.71345 360.132 0.581941 360.295 0.50244 360.476C0.42294 360.657 0.397777 360.851 0.429071 361.042C0.787324 364.416 1.17815 366.044 1.5364 370.285C1.76438 372.953 2.05749 380.369 2.36689 383.984C2.67629 387.599 7.08933 387.985 7.34987 386.505C8.57119 379.836 10.6067 375.234 12.7725 373.086C13.1706 372.676 13.3576 372.154 13.2936 371.632Z" fill="#263238"/>
<g opacity="0.2">
<path d="M34.6428 367.618L22.1691 369.552L18.6191 361.456L31.0929 359.521L34.6428 367.618Z" fill="black"/>
</g>
<path d="M115.38 246.504C115.38 246.504 103.72 314.917 95.8388 340.66C87.6967 367.43 26.3376 369.711 26.3376 369.711L20.0845 359.254C20.0845 359.254 55.9098 351.464 71.2984 333.844C77.9912 305.006 84.1304 246.504 84.1304 246.504H115.38Z" fill="#263238"/>
<path opacity="0.3" d="M115.38 246.504C115.38 246.504 103.72 314.917 95.8388 340.66C87.6967 367.43 26.3376 369.711 26.3376 369.711L20.0845 359.254C20.0845 359.254 55.9098 351.464 71.2984 333.844C77.9912 305.006 84.1304 246.504 84.1304 246.504H115.38Z" fill="#263238"/>
<path d="M19.3677 358.28L24.8392 371.179L30.4898 371.232L25.002 356.68L19.3677 358.28Z" fill="#263238"/>
<path d="M11.7136 374.767C11.7134 375.523 12.0039 376.261 12.5441 376.874C12.7033 377.015 12.8978 377.126 13.1142 377.2C13.3306 377.274 13.5638 377.308 13.798 377.301C13.9279 377.302 14.0556 377.274 14.1674 377.22C14.2793 377.166 14.3711 377.088 14.4331 376.994C15.0519 375.967 12.6093 372.446 12.3324 372.046C12.3062 372.009 12.2681 371.978 12.2222 371.957C12.1764 371.935 12.1245 371.925 12.0719 371.926C12.0218 371.928 11.9739 371.943 11.9357 371.97C11.8974 371.996 11.8709 372.032 11.8602 372.073C11.7155 372.965 11.6665 373.867 11.7136 374.767ZM14.0423 376.394C14.0897 376.516 14.0897 376.646 14.0423 376.768C14.0191 376.807 13.9817 376.84 13.9351 376.861C13.8885 376.883 13.835 376.892 13.7817 376.888C13.6303 376.896 13.4784 376.877 13.3374 376.831C13.1964 376.784 13.07 376.713 12.9675 376.621C12.2143 375.436 11.9952 374.071 12.3487 372.766C13.1443 373.894 13.716 375.119 14.0423 376.394Z" fill="#00BFA6"/>
<path d="M11.8602 372.113C11.8581 372.144 11.8581 372.175 11.8602 372.206C12.5279 373.247 14.9705 375.394 16.1592 375.288C16.4361 375.288 16.778 375.114 16.7943 374.554C16.813 374.13 16.6256 373.718 16.2732 373.407C15.0817 372.593 13.6283 372.079 12.0882 371.926C12.0561 371.924 12.0239 371.928 11.9934 371.936C11.9629 371.945 11.9348 371.958 11.9105 371.975C11.8863 371.993 11.8666 372.014 11.8523 372.037C11.8381 372.061 11.8297 372.087 11.8276 372.113H11.8602ZM16.3221 374.367C16.33 374.407 16.33 374.447 16.3221 374.487C16.3221 374.861 16.1267 374.874 16.0615 374.887C15.345 374.887 13.4398 373.487 12.5767 372.406C13.8137 372.557 14.9752 372.987 15.9313 373.647C16.1547 373.845 16.2921 374.098 16.3221 374.367Z" fill="#00BFA6"/>
<path d="M113.719 440.753C114.615 440.82 115.513 440.632 116.259 440.22C116.43 440.096 116.56 439.941 116.64 439.766C116.719 439.592 116.745 439.404 116.715 439.219C116.706 439.108 116.662 439.001 116.588 438.907C116.514 438.814 116.412 438.738 116.292 438.686C115.005 438.099 110.82 439.859 110.348 440.02C110.301 440.039 110.263 440.07 110.24 440.109C110.216 440.147 110.208 440.191 110.218 440.233C110.224 440.274 110.247 440.311 110.282 440.34C110.318 440.369 110.364 440.388 110.413 440.393C111.499 440.598 112.605 440.719 113.719 440.753ZM115.591 438.966C115.749 438.959 115.907 438.987 116.047 439.046C116.1 439.061 116.145 439.09 116.175 439.129C116.205 439.168 116.217 439.214 116.21 439.259C116.236 439.379 116.225 439.501 116.176 439.616C116.128 439.73 116.044 439.832 115.933 439.913C115.298 440.38 113.572 440.46 111.244 440.153C112.598 439.554 114.069 439.152 115.591 438.966Z" fill="#00BFA6"/>
<path d="M110.461 440.447H110.559C111.813 439.993 114.288 438.139 114.092 437.152C114.092 436.925 113.848 436.645 113.164 436.579C112.916 436.557 112.664 436.578 112.426 436.64C112.188 436.702 111.968 436.804 111.78 436.939C110.816 437.869 110.245 439.029 110.152 440.247C110.142 440.282 110.146 440.319 110.164 440.353C110.181 440.387 110.211 440.415 110.249 440.433C110.282 440.448 110.317 440.456 110.353 440.459C110.39 440.461 110.427 440.457 110.461 440.447ZM112.953 436.952H113.115C113.571 436.952 113.588 437.139 113.604 437.179C113.718 437.766 111.975 439.233 110.754 439.847C110.853 438.863 111.326 437.931 112.106 437.179C112.347 437.025 112.647 436.945 112.953 436.952Z" fill="#00BFA6"/>
<path d="M96.9787 174.49C98.2 179.586 99.4213 188.949 95.0571 192.35C95.0571 192.35 96.6856 197.539 108.345 197.539C121.096 197.539 114.435 192.35 114.435 192.35C107.482 191.017 107.661 186.775 108.882 182.8L96.9787 174.49Z" fill="#FFB573"/>
<path opacity="0.2" d="M101.831 177.852L108.866 182.773C108.569 183.696 108.373 184.637 108.28 185.588C105.625 185.281 101.961 182.92 101.766 180.613C101.588 179.696 101.61 178.761 101.831 177.852Z" fill="black"/>
<path d="M90.2533 165.635C92.6308 173.958 93.5101 177.519 99.5027 181.107C108.638 186.509 120.591 182.294 121.307 173.571C121.942 165.715 117.936 153.43 107.205 151.483C104.84 151.046 102.378 151.111 100.052 151.673C97.7262 152.234 95.6141 153.273 93.9161 154.691C92.218 156.108 90.9902 157.858 90.3492 159.773C89.7082 161.688 89.6751 163.706 90.2533 165.635Z" fill="#FFB573"/>
<path d="M94.4546 158.138C98.1349 160.446 96.5227 168.809 91.9632 171.383C84.8307 169.983 83.4791 151.242 94.4546 158.138Z" fill="#263238"/>
<path d="M107.303 149.842C111.422 150.429 116.65 155.444 117.757 157.485C111.569 156.551 94.5194 160.873 94.5194 160.873C94.5194 160.873 86.8983 160.179 91.1811 155.364C95.4639 150.549 107.303 149.842 107.303 149.842Z" fill="#263238"/>
<path d="M108.166 165.58C108.312 166.274 108.866 166.767 109.42 166.687C109.973 166.607 110.299 165.993 110.152 165.353C110.006 164.713 109.452 164.166 108.898 164.246C108.345 164.326 107.97 164.9 108.166 165.58Z" fill="#263238"/>
<path d="M117.545 164.273C117.691 164.953 118.245 165.447 118.799 165.367C119.352 165.286 119.662 164.673 119.532 164.033C119.401 163.392 118.831 162.859 118.278 162.926C117.724 162.992 117.398 163.579 117.545 164.273Z" fill="#263238"/>
<path d="M118.05 162.965L119.955 162.205C119.955 162.205 119.19 163.632 118.05 162.965Z" fill="#263238"/>
<path d="M113.865 165.914C114.931 167.389 116.24 168.735 117.757 169.916C117.384 170.225 116.932 170.462 116.434 170.612C115.936 170.762 115.404 170.82 114.875 170.783L113.865 165.914Z" fill="#ED893E"/>
<path d="M110.869 174.05C111.288 174.038 111.707 174.007 112.123 173.957C112.186 173.944 112.241 173.913 112.277 173.868C112.313 173.824 112.328 173.77 112.318 173.717C112.306 173.665 112.271 173.619 112.22 173.587C112.169 173.555 112.105 173.539 112.041 173.544C111.007 173.712 109.939 173.679 108.924 173.447C107.908 173.216 106.974 172.792 106.195 172.21C106.174 172.19 106.147 172.174 106.118 172.163C106.088 172.152 106.056 172.146 106.024 172.146C105.992 172.146 105.96 172.152 105.93 172.163C105.901 172.174 105.874 172.19 105.853 172.21C105.807 172.249 105.782 172.302 105.782 172.356C105.782 172.411 105.807 172.464 105.853 172.503C106.524 173.019 107.312 173.421 108.173 173.686C109.033 173.952 109.949 174.076 110.869 174.05Z" fill="#263238"/>
<path d="M89.0802 173.73C90.0949 175.157 91.7573 176.197 93.7049 176.624C96.2941 177.158 97.5317 175.29 96.7663 173.276C96.0824 171.502 93.9003 169.074 91.3274 169.408C90.7662 169.489 90.2385 169.683 89.7923 169.973C89.346 170.263 88.9953 170.64 88.772 171.069C88.5488 171.499 88.46 171.967 88.5138 172.431C88.5676 172.896 88.7623 173.342 89.0802 173.73Z" fill="#FFB573"/>
<path d="M102.971 164.514C103.075 164.511 103.176 164.481 103.258 164.428C103.34 164.376 103.399 164.303 103.427 164.22C103.768 163.615 104.258 163.074 104.866 162.631C105.474 162.188 106.187 161.853 106.96 161.646C107.085 161.61 107.187 161.535 107.245 161.438C107.303 161.34 107.312 161.228 107.27 161.126C107.25 161.076 107.218 161.03 107.175 160.99C107.133 160.95 107.082 160.917 107.025 160.894C106.967 160.87 106.905 160.856 106.84 160.853C106.776 160.849 106.712 160.856 106.651 160.872C105.725 161.116 104.874 161.519 104.154 162.055C103.435 162.591 102.865 163.248 102.482 163.98C102.441 164.084 102.453 164.198 102.514 164.295C102.575 164.393 102.681 164.467 102.808 164.5L102.971 164.514Z" fill="#263238"/>
<path d="M118.62 160.298C118.726 160.293 118.828 160.261 118.91 160.205C118.993 160.15 119.052 160.075 119.079 159.991C119.106 159.906 119.1 159.817 119.061 159.736C119.023 159.654 118.954 159.585 118.864 159.538C118.188 159.205 117.425 159.009 116.638 158.965C115.851 158.921 115.062 159.03 114.337 159.284C114.277 159.309 114.223 159.342 114.179 159.384C114.135 159.425 114.101 159.473 114.08 159.525C114.058 159.577 114.05 159.633 114.055 159.687C114.06 159.742 114.079 159.796 114.109 159.845C114.174 159.936 114.279 160.005 114.402 160.037C114.526 160.069 114.659 160.062 114.777 160.018C115.353 159.821 115.979 159.738 116.602 159.777C117.224 159.817 117.827 159.977 118.359 160.245C118.439 160.281 118.529 160.299 118.62 160.298Z" fill="#263238"/>
<path d="M108.605 164.286L110.51 163.525C110.51 163.525 109.794 164.953 108.605 164.286Z" fill="#263238"/>
<path d="M83.8694 244.45L82.7784 247.585C82.6318 247.825 82.9738 248.065 83.4623 248.065H127.43C127.821 248.065 128.146 247.918 128.163 247.718L128.553 244.583C128.553 244.37 128.244 244.183 127.821 244.183H84.5533C84.4209 244.175 84.2882 244.196 84.1683 244.243C84.0483 244.289 83.9454 244.361 83.8694 244.45Z" fill="#FAFAFA"/>
<path d="M89.6667 248.411H88.5105C88.2825 248.411 88.1034 248.304 88.1197 248.198L88.6571 244.129C88.6571 244.009 88.885 243.916 89.113 243.916H90.2529C90.4809 243.916 90.66 244.009 90.6437 244.129L90.1064 248.198C90.1064 248.304 89.8947 248.411 89.6667 248.411Z" fill="#00BFA6"/>
<g opacity="0.3">
<path d="M89.6667 248.413H88.5105C88.2825 248.413 88.1034 248.306 88.1197 248.2L88.6571 244.131C88.6571 244.011 88.885 243.918 89.113 243.918H90.2529C90.4809 243.918 90.66 244.011 90.6437 244.131L90.1064 248.2C90.1064 248.306 89.8947 248.413 89.6667 248.413Z" fill="black"/>
</g>
<path d="M124.14 248.411H122.984C122.74 248.411 122.577 248.304 122.593 248.198L123.131 244.129C123.131 244.009 123.342 243.916 123.587 243.916H124.743C124.971 243.916 125.134 244.009 125.134 244.129L124.58 248.198C124.564 248.304 124.45 248.411 124.14 248.411Z" fill="#00BFA6"/>
<path opacity="0.3" d="M124.14 248.411H122.984C122.74 248.411 122.577 248.304 122.593 248.198L123.131 244.129C123.131 244.009 123.342 243.916 123.587 243.916H124.743C124.971 243.916 125.134 244.009 125.134 244.129L124.58 248.198C124.564 248.304 124.45 248.411 124.14 248.411Z" fill="black"/>
<path d="M106.895 248.411H105.739C105.511 248.411 105.332 248.304 105.348 248.198L105.902 244.129C105.902 244.009 106.114 243.916 106.342 243.916H107.498C107.726 243.916 107.905 244.009 107.889 244.129L107.351 248.198C107.335 248.304 107.139 248.411 106.895 248.411Z" fill="#00BFA6"/>
<path opacity="0.3" d="M106.895 248.411H105.739C105.511 248.411 105.332 248.304 105.348 248.198L105.902 244.129C105.902 244.009 106.114 243.916 106.342 243.916H107.498C107.726 243.916 107.905 244.009 107.889 244.129L107.351 248.198C107.335 248.304 107.139 248.411 106.895 248.411Z" fill="black"/>
<path d="M161.465 174.785L153.35 181.342C152.184 182.284 152.172 183.821 153.321 184.775L156.615 187.51C157.764 188.464 159.641 188.475 160.806 187.533L168.921 180.976C170.086 180.035 170.099 178.498 168.949 177.543L165.656 174.808C164.506 173.854 162.63 173.843 161.465 174.785Z" fill="#00BFA6"/>
<path opacity="0.4" d="M158.011 182.427L155.292 184.628C155.27 184.648 155.244 184.664 155.215 184.675C155.185 184.686 155.153 184.691 155.121 184.691C155.088 184.691 155.056 184.686 155.027 184.675C154.997 184.664 154.971 184.648 154.95 184.628C154.904 184.589 154.878 184.536 154.878 184.481C154.878 184.427 154.904 184.374 154.95 184.335L157.669 182.147C157.691 182.127 157.717 182.111 157.746 182.101C157.776 182.09 157.808 182.084 157.84 182.084C157.873 182.084 157.905 182.09 157.934 182.101C157.964 182.111 157.99 182.127 158.011 182.147C158.035 182.165 158.055 182.186 158.068 182.21C158.082 182.235 158.088 182.261 158.088 182.287C158.088 182.314 158.082 182.34 158.068 182.364C158.055 182.388 158.035 182.41 158.011 182.427Z" fill="white"/>
<path opacity="0.4" d="M163.874 174.704L161.155 176.892C161.109 176.928 161.048 176.949 160.984 176.949C160.92 176.949 160.859 176.928 160.813 176.892C160.789 176.874 160.769 176.853 160.756 176.829C160.743 176.804 160.736 176.778 160.736 176.752C160.736 176.725 160.743 176.699 160.756 176.675C160.769 176.651 160.789 176.629 160.813 176.612L163.532 174.411C163.554 174.391 163.58 174.375 163.61 174.364C163.639 174.353 163.671 174.348 163.703 174.348C163.736 174.348 163.768 174.353 163.797 174.364C163.827 174.375 163.853 174.391 163.874 174.411C163.92 174.451 163.946 174.503 163.946 174.558C163.946 174.612 163.92 174.665 163.874 174.704Z" fill="white"/>
<path opacity="0.4" d="M161.659 185.468L158.94 187.655C158.894 187.692 158.833 187.713 158.769 187.713C158.705 187.713 158.643 187.692 158.598 187.655C158.552 187.616 158.526 187.563 158.526 187.509C158.526 187.454 158.552 187.402 158.598 187.362L161.317 185.174C161.363 185.138 161.424 185.117 161.488 185.117C161.552 185.117 161.613 185.138 161.659 185.174C161.705 185.214 161.73 185.267 161.73 185.321C161.73 185.376 161.705 185.428 161.659 185.468Z" fill="white"/>
<path opacity="0.4" d="M156.872 184.761L156.155 185.335C156.107 185.372 156.043 185.393 155.976 185.393C155.909 185.393 155.845 185.372 155.797 185.335C155.752 185.298 155.727 185.247 155.727 185.195C155.727 185.143 155.752 185.092 155.797 185.055L156.497 184.468C156.547 184.433 156.611 184.414 156.676 184.414C156.742 184.414 156.805 184.433 156.855 184.468C156.903 184.506 156.932 184.557 156.935 184.612C156.938 184.667 156.915 184.72 156.872 184.761Z" fill="white"/>
<path opacity="0.2" d="M168.743 180.267L167.897 180.961C167.614 181.187 167.234 181.314 166.838 181.314C166.443 181.314 166.063 181.187 165.78 180.961C165.499 180.731 165.342 180.419 165.342 180.094C165.342 179.768 165.499 179.457 165.78 179.227L166.627 178.533C166.909 178.306 167.289 178.18 167.685 178.18C168.081 178.18 168.461 178.306 168.743 178.533C169.024 178.763 169.181 179.075 169.181 179.4C169.181 179.725 169.024 180.037 168.743 180.267Z" fill="black"/>
<path d="M81.7034 196.526C84.2275 197.34 87.0121 198.22 89.7153 198.98C92.4185 199.741 95.1705 200.541 97.8574 201.234C103.176 202.658 108.62 203.746 114.142 204.489L115.151 204.609H115.412C115.725 204.61 116.037 204.579 116.34 204.516C117.46 204.285 118.55 203.968 119.597 203.569C122.108 202.618 124.549 201.549 126.908 200.367C131.794 197.953 136.809 195.245 141.662 192.564L145.896 196.433C141.81 200.217 137.361 203.727 132.592 206.93C130.091 208.606 127.44 210.127 124.661 211.478C123.082 212.256 121.413 212.904 119.678 213.412C118.556 213.731 117.392 213.942 116.21 214.039C115.835 214.039 115.493 214.039 115.086 214.039H114.239H113.018C111.39 213.973 109.761 213.799 108.133 213.652C106.504 213.506 104.876 213.279 103.41 213.012C100.284 212.559 97.2386 211.932 94.226 211.265C91.2134 210.598 88.2497 209.824 85.3185 208.997C82.3874 208.17 79.5539 207.29 76.5576 206.21L81.7034 196.526Z" fill="#FFB573"/>
<path d="M141.418 193.005L147.834 185.322L150.684 193.752C150.684 193.752 145.798 197.62 141.695 196.54L141.418 193.005Z" fill="#FFB573"/>
<path d="M156.253 183.135L158.174 190.297L150.684 193.752L147.834 185.322L156.253 183.135Z" fill="#FFB573"/>
<path d="M68.0902 207.651C71.2005 210.319 84.7002 211.919 84.7002 211.919L93.2331 196.753C93.2331 196.753 80.8082 192.432 75.7113 194.726C70.6143 197.02 64.5566 204.65 68.0902 207.651Z" fill="#00BFA6"/>
<g opacity="0.5">
<path d="M68.0902 207.649C71.2005 210.317 84.7002 211.917 84.7002 211.917L93.2331 196.752C93.2331 196.752 80.8082 192.43 75.7113 194.724C70.6143 197.018 64.5566 204.648 68.0902 207.649Z" fill="white"/>
</g>
<path d="M241.925 284.16L237.154 284.52C230.64 301.727 221.749 301.86 219.094 301.486C214.209 300.78 211.376 296.418 212.792 291.776C214.746 285.374 223.605 282.759 229.158 281.639C225.722 277.384 224.436 270.301 226.504 265.633C227.086 263.962 228.34 262.502 230.064 261.49C231.788 260.477 233.879 259.973 235.997 260.057C237.254 259.989 238.509 260.201 239.631 260.671C240.752 261.141 241.696 261.851 242.365 262.725C246.224 267.9 240.117 279.051 238.147 282.386L241.925 284.16ZM234.288 280.305C237.137 275.263 240.02 267.674 237.951 264.912C237.626 264.472 237.284 264.019 235.607 263.979C234.609 263.91 233.615 264.144 232.813 264.635C232.012 265.127 231.459 265.843 231.259 266.647C229.435 270.795 231.308 277.584 234.288 280.305ZM218.003 291.829C217.922 292.03 217.857 292.23 217.792 292.43C216.977 295.097 218.524 297.352 220.446 297.632C222.367 297.912 227.562 295.591 231.845 285.014C227.92 285.6 219.925 287.321 217.922 291.829H218.003Z" fill="#263238"/>
<path d="M412.469 293.629L379.933 367.364L218.898 319.706L251.32 246.211L412.469 293.629Z" fill="#00BFA6"/>
<path opacity="0.6" d="M412.469 293.629L379.933 367.364L218.898 319.706L251.32 246.211L412.469 293.629Z" fill="white"/>
<path d="M243.114 264.805L240.459 270.807L401.608 318.225L404.246 312.236L243.114 264.805Z" fill="#263238"/>
<path d="M386.448 352.611L384.493 357.013L223.361 309.582L225.299 305.193L386.448 352.611Z" fill="#263238"/>
<path opacity="0.2" d="M392.863 338.074L379.933 367.365L218.898 319.707L231.714 290.643L392.863 338.074Z" fill="black"/>
<path d="M283.547 303.232L281.918 300.231C263.403 300.938 260.749 295.202 260.325 293.375C259.609 289.987 263.012 286.906 267.93 286.493C274.672 285.932 279.752 290.934 282.423 294.229C284.201 292.403 286.421 290.899 288.943 289.811C291.465 288.723 294.235 288.074 297.079 287.906C298.866 287.799 300.645 288.192 302.124 289.021C303.603 289.85 304.695 291.065 305.221 292.468C305.644 293.272 305.792 294.154 305.648 295.022C305.505 295.889 305.076 296.708 304.407 297.39C300.515 301.392 287.96 300.605 284.182 300.284L283.547 303.232ZM285.175 297.163C290.858 297.577 299.049 297.27 301.117 295.136C301.459 294.789 301.801 294.442 301.345 293.348C301.13 292.679 300.62 292.099 299.913 291.72C299.206 291.341 298.353 291.189 297.518 291.294C295.044 291.466 292.646 292.087 290.5 293.111C288.354 294.136 286.513 295.538 285.11 297.217L285.175 297.163ZM269.249 289.894H268.614C265.829 290.134 264.054 291.788 264.347 293.108C264.641 294.429 268.353 297.11 279.817 296.923C278.156 294.602 274.265 289.894 269.249 289.894Z" fill="#263238"/>
<path d="M323.248 343.916H242.543V298.512H322.988L323.248 343.916Z" fill="#00BFA6"/>
<path opacity="0.4" d="M323.248 343.916H242.543V298.512H322.988L323.248 343.916Z" fill="white"/>
<path d="M302.632 298.512H296.07L296.33 343.916H302.893L302.632 298.512Z" fill="#263238"/>
<path d="M258.696 343.916H253.876L253.616 298.512H258.436L258.696 343.916Z" fill="#263238"/>
<path opacity="0.2" d="M274.623 343.916H242.543V298.512H274.363L274.623 343.916Z" fill="black"/>
<path d="M303.267 351.545C298.186 352.559 281.185 355.547 273.678 350.718C272.448 349.966 271.467 348.974 270.821 347.833C270.176 346.692 269.887 345.437 269.982 344.182C270.128 339.847 273.418 337.34 278.841 336.739C285.924 335.952 296.427 338.847 302.599 343.048C304.57 338.18 308.983 330.644 318.639 330.377C325.658 330.177 331.992 333.832 332.79 338.527C333.214 341.061 332.481 349.197 306.426 351.118L305.628 355.44L303.267 351.545ZM280.111 341.328C277.294 341.635 275.942 342.542 275.877 344.742C275.785 345.199 275.854 345.667 276.076 346.093C276.298 346.518 276.664 346.883 277.131 347.143C281.137 349.704 292.617 348.837 300.303 347.41C296.411 344.009 286.38 340.581 280.111 341.328ZM307.501 346.29C323.524 344.849 327.319 340.834 327.042 338.767C326.732 336.926 323.41 334.952 319.421 335.072C319.123 335.058 318.824 335.058 318.525 335.072C311.604 335.886 308.576 342.862 307.501 346.29Z" fill="#263238"/>
<path d="M353.869 340.745L252.198 351.975L257.21 382.417L358.881 371.187L353.869 340.745Z" fill="#00BFA6"/>
<path opacity="0.4" d="M353.869 340.745L252.198 351.975L257.21 382.417L358.881 371.187L353.869 340.745Z" fill="white"/>
<path opacity="0.2" d="M353.874 340.751L313.48 345.213L318.492 375.656L358.886 371.194L353.874 340.751Z" fill="white"/>
<path d="M286.11 348.228L277.847 349.141L282.859 379.583L291.122 378.671L286.11 348.228Z" fill="#263238"/>
<path d="M339.589 342.322L333.521 342.992L338.533 373.435L344.601 372.765L339.589 342.322Z" fill="#263238"/>
<path d="M217.156 294.217L214.827 295.871C207.744 281.665 198.771 270.528 184.897 267.34L187.226 265.699C200.448 268.554 209.682 279.585 217.156 294.217Z" fill="#263238"/>
<path opacity="0.5" d="M217.156 294.217L214.827 295.871C207.744 281.665 198.771 270.528 184.897 267.34L187.226 265.699C200.448 268.554 209.682 279.585 217.156 294.217Z" fill="white"/>
<path d="M208.086 294.349L204.829 296.243C198.12 285.145 198.934 279.45 182.227 270.9L185.402 269.006C202.11 278.196 202.11 283.878 208.086 294.349Z" fill="#263238"/>
<path opacity="0.5" d="M208.086 294.349L204.829 296.243C198.12 285.145 198.934 279.45 182.227 270.9L185.402 269.006C202.11 278.196 202.11 283.878 208.086 294.349Z" fill="white"/>
<path d="M411.59 294.297H205.025C204.356 294.296 203.698 294.434 203.111 294.696C202.523 294.958 202.026 295.337 201.665 295.798C201.303 296.259 201.089 296.787 201.041 297.333C200.994 297.88 201.115 298.427 201.393 298.925L249.318 385.118C249.683 385.763 250.293 386.293 251.055 386.632C251.818 386.971 252.693 387.099 253.552 386.999L404.539 368.592C405.423 368.482 406.236 368.134 406.849 367.602C407.463 367.07 407.842 366.386 407.926 365.657L415.564 297.898C415.621 297.443 415.56 296.983 415.387 296.548C415.213 296.113 414.93 295.713 414.555 295.374C414.18 295.034 413.723 294.763 413.212 294.577C412.702 294.392 412.149 294.296 411.59 294.297ZM411.037 299.632L403.774 364.59C403.695 365.291 403.331 365.949 402.741 366.46C402.15 366.97 401.367 367.303 400.517 367.405L255.864 385.038C255.042 385.138 254.202 385.016 253.47 384.691C252.739 384.367 252.156 383.857 251.809 383.237L205.872 300.686C205.604 300.209 205.488 299.685 205.532 299.161C205.577 298.638 205.781 298.132 206.126 297.69C206.471 297.248 206.946 296.884 207.508 296.631C208.07 296.379 208.7 296.246 209.34 296.244H407.194C407.731 296.239 408.263 296.326 408.756 296.499C409.249 296.673 409.692 296.93 410.056 297.254C410.42 297.577 410.697 297.959 410.869 298.376C411.041 298.793 411.103 299.234 411.053 299.672L411.037 299.632Z" fill="#263238"/>
<path d="M265.439 385.078H262.426L213.345 294.297H216.342L265.439 385.078Z" fill="#263238"/>
<path d="M278.955 383.331H275.959L229.011 294.297H232.024L278.955 383.331Z" fill="#263238"/>
<path d="M291.477 381.584H288.481L247.933 294.297H250.946L291.477 381.584Z" fill="#263238"/>
<path d="M304.879 379.743H301.883L265.439 294.297H268.435L304.879 379.743Z" fill="#263238"/>
<path d="M317.027 378.409H314.031L283.726 294.297H286.722L317.027 378.409Z" fill="#263238"/>
<path d="M330.738 376.768H327.742L300.873 294.297H303.886L330.738 376.768Z" fill="#263238"/>
<path d="M343.668 374.821H340.672L318.542 294.297H321.538L343.668 374.821Z" fill="#263238"/>
<path d="M357.233 373.58H354.221L336.438 294.297H339.451L357.233 373.58Z" fill="#263238"/>
<path d="M370.131 372.247H367.118L354.856 294.297H357.852L370.131 372.247Z" fill="#263238"/>
<path d="M383.027 370.299H380.015L372.817 294.297H375.829L383.027 370.299Z" fill="#263238"/>
<path d="M396.299 369.272H393.303L391.414 294.297H394.426L396.299 369.272Z" fill="#263238"/>
<path d="M411.053 320.146V322.601L219.225 329.683V327.216L411.053 320.146Z" fill="#263238"/>
<path d="M408.643 345.916V348.384L237.642 363.683V361.229L408.643 345.916Z" fill="#263238"/>
<path d="M265.439 440.085C265.445 441.835 264.817 443.547 263.633 445.003C262.45 446.46 260.764 447.596 258.791 448.267C256.818 448.937 254.646 449.113 252.551 448.771C250.456 448.429 248.533 447.585 247.024 446.346C245.516 445.106 244.491 443.528 244.08 441.811C243.669 440.094 243.89 438.315 244.715 436.701C245.54 435.087 246.931 433.71 248.714 432.745C250.496 431.78 252.587 431.271 254.724 431.281C257.567 431.292 260.29 432.224 262.298 433.873C264.305 435.523 265.434 437.756 265.439 440.085Z" fill="#00BFA6"/>
<path d="M262.866 440.032C262.391 441.279 261.444 442.368 260.161 443.143C258.878 443.918 257.327 444.337 255.734 444.341C254.212 444.38 252.726 443.964 251.551 443.171C250.377 442.378 249.595 441.263 249.35 440.032L245.996 423.279H273.386L270.129 432.616C269.9 433.266 269.5 433.867 268.956 434.377L262.866 440.032Z" fill="#263238"/>
<path opacity="0.3" d="M262.866 440.032C262.391 441.279 261.444 442.368 260.161 443.143C258.878 443.918 257.327 444.337 255.734 444.341C254.212 444.38 252.726 443.964 251.551 443.171C250.377 442.378 249.595 441.263 249.35 440.032L245.996 423.279H273.386L270.129 432.616C269.9 433.266 269.5 433.867 268.956 434.377L262.866 440.032Z" fill="white"/>
<path d="M368.535 440.085C368.528 441.833 369.155 443.543 370.337 444.999C371.518 446.455 373.2 447.591 375.171 448.263C377.141 448.935 379.31 449.113 381.404 448.774C383.498 448.435 385.422 447.595 386.932 446.36C388.442 445.125 389.471 443.55 389.887 441.836C390.304 440.121 390.09 438.344 389.273 436.729C388.455 435.114 387.071 433.735 385.296 432.765C383.52 431.795 381.433 431.279 379.299 431.281C376.447 431.281 373.711 432.208 371.693 433.859C369.675 435.509 368.539 437.749 368.535 440.085Z" fill="#00BFA6"/>
<path d="M371.091 440.032C371.571 441.279 372.523 442.368 373.808 443.142C375.093 443.916 376.645 444.336 378.24 444.341C379.761 444.38 381.248 443.964 382.422 443.171C383.597 442.378 384.379 441.263 384.624 440.032L387.978 423.279H360.572L363.91 432.616C364.132 433.268 364.533 433.871 365.082 434.377L371.091 440.032Z" fill="#263238"/>
<path opacity="0.3" d="M371.091 440.032C371.571 441.279 372.523 442.368 373.808 443.142C375.093 443.916 376.645 444.336 378.24 444.341C379.761 444.38 381.248 443.964 382.422 443.171C383.597 442.378 384.379 441.263 384.624 440.032L387.978 423.279H360.572L363.91 432.616C364.132 433.268 364.533 433.871 365.082 434.377L371.091 440.032Z" fill="white"/>
<path opacity="0.6" d="M411.59 294.297H205.025C204.356 294.296 203.698 294.434 203.111 294.696C202.523 294.958 202.026 295.337 201.665 295.798C201.303 296.259 201.089 296.787 201.041 297.333C200.994 297.88 201.115 298.427 201.393 298.925L249.318 385.118C249.683 385.763 250.293 386.293 251.055 386.632C251.818 386.971 252.693 387.099 253.552 386.999L404.539 368.592C405.423 368.482 406.236 368.134 406.849 367.602C407.463 367.07 407.842 366.386 407.926 365.657L415.564 297.898C415.621 297.443 415.56 296.983 415.387 296.548C415.213 296.113 414.93 295.713 414.555 295.374C414.18 295.034 413.723 294.763 413.212 294.577C412.702 294.392 412.149 294.296 411.59 294.297ZM407.226 296.244C407.759 296.244 408.286 296.335 408.773 296.512C409.261 296.688 409.698 296.946 410.056 297.269C410.415 297.591 410.688 297.972 410.856 298.386C411.025 298.8 411.087 299.238 411.037 299.672L408.741 320.227L395.078 320.734L394.476 296.244H407.226ZM221.977 329.59L232.22 329.217L248.992 360.229L239.482 361.069L221.977 329.59ZM235.167 329.11L247.136 328.67L263.094 358.962L251.858 359.962L235.167 329.11ZM363.617 349.918L352.218 350.932L346.405 324.949L359.676 324.468L363.617 349.918ZM362.591 324.348L375.619 323.868L377.964 348.624L366.565 349.651L362.591 324.348ZM349.173 351.252L337.432 352.306L330.088 325.629L343.311 325.149L349.173 351.252ZM334.517 352.586L323.118 353.6L314.194 326.202L327.108 325.722L334.517 352.586ZM320.236 353.853L308.527 354.907L298.399 326.789L311.263 326.309L320.236 353.853ZM305.58 355.187L294.735 356.16L282.473 327.403L295.386 326.923L305.58 355.187ZM291.852 356.427L280.193 357.468L266.498 327.99L279.525 327.51L291.852 356.427ZM277.311 357.761L265.912 358.788L250.083 328.577L263.616 328.07L277.311 357.761ZM264.283 361.389L275.519 382.731L264.755 384.064L253.096 362.296L264.283 361.389ZM267.149 361.136L278.402 360.122L288.172 381.17L278.402 382.37L267.149 361.136ZM281.284 359.869L292.862 358.828L301.688 379.516L291.022 380.85L281.284 359.869ZM295.761 358.535L306.443 357.574L313.869 377.929L304.603 379.063L295.761 358.535ZM309.342 357.321L320.985 356.281L327.499 376.288L316.653 377.622L309.342 357.321ZM323.9 355.987L335.152 354.987L340.559 374.701L330.397 375.941L323.9 355.987ZM338.083 354.72L349.694 353.68L354.058 373.034L343.49 374.367L338.083 354.72ZM352.642 353.386L363.926 352.386L367.086 371.446L357.103 372.673L352.642 353.386ZM366.89 352.052L378.143 351.039L379.983 369.926L369.952 371.153L366.89 352.052ZM381.123 350.718L392.75 349.678L393.206 368.125L382.881 369.379L381.123 350.718ZM380.895 348.277L378.55 323.681L392.082 323.188L392.684 347.197L380.895 348.277ZM395.078 323.068L408.399 322.574L405.777 346.05L395.681 346.957L395.078 323.068ZM391.512 296.244L392.131 320.84L378.436 321.347L376.058 296.244H391.512ZM373.062 296.244L375.439 321.454L362.2 321.907L358.146 296.204L373.062 296.244ZM355.149 296.244L359.204 322.054L345.77 322.548L339.875 296.244H355.149ZM336.862 296.244L342.79 322.668L329.453 323.148L322.06 296.244H336.862ZM319.063 296.244L326.505 323.241L313.478 323.721L304.522 296.218L319.063 296.244ZM301.493 296.244L310.482 323.855L297.536 324.335L287.423 296.244H301.493ZM284.411 296.244L294.572 324.442L281.545 324.922L269.315 296.244H284.411ZM266.254 296.244L278.532 325.029L265.505 325.509L251.923 296.244H266.254ZM248.829 296.244L262.476 325.589L248.797 326.096L233.034 296.204L248.829 296.244ZM230.037 296.244L245.833 326.242L233.848 326.683L217.385 296.244H230.037ZM209.356 296.244H214.388L230.9 326.789L220.609 327.163L205.953 300.686C205.688 300.212 205.57 299.691 205.613 299.171C205.655 298.651 205.855 298.147 206.194 297.706C206.534 297.265 207.002 296.901 207.557 296.645C208.112 296.39 208.736 296.252 209.373 296.244H209.356ZM251.809 383.264L240.785 363.43L250.262 362.59L262.003 384.318L255.864 385.065C255.042 385.164 254.202 385.043 253.47 384.718C252.739 384.393 252.156 383.883 251.809 383.264ZM403.774 364.59C403.695 365.291 403.331 365.949 402.741 366.46C402.15 366.97 401.367 367.303 400.517 367.405L396.251 367.925L395.795 349.585L405.565 348.718L403.774 364.59Z" fill="white"/>
<path d="M172.749 267.047L185.06 272.876L190.483 265.193L178.188 259.364C177.572 259.072 176.893 258.883 176.188 258.807C175.482 258.731 174.766 258.77 174.079 258.921C173.393 259.072 172.749 259.333 172.185 259.688C171.622 260.043 171.149 260.486 170.795 260.991C170.438 261.494 170.205 262.049 170.11 262.626C170.015 263.202 170.059 263.788 170.241 264.351C170.422 264.913 170.737 265.441 171.167 265.903C171.598 266.366 172.135 266.754 172.749 267.047Z" fill="#00BFA6"/>
<path d="M237.625 419.678V424.453H397.927V419.678H237.625Z" fill="#263238"/>
<path d="M264.952 385.715L265.845 390.434L294.473 386.799L293.58 382.08L264.952 385.715Z" fill="#263238"/>
<path d="M233.766 417.116C232.626 418.303 234.385 420.104 237.642 419.69V424.465C226.715 424.772 224.614 418.463 229.5 413.941L233.766 417.116Z" fill="#263238"/>
<path d="M260.439 392.601C261.855 391.354 263.765 390.56 265.83 390.36L264.95 385.639C261.581 386.087 258.48 387.416 256.108 389.427L260.439 392.601Z" fill="#263238"/>
<path d="M237.625 419.678V424.453H397.927V419.678H237.625Z" fill="#263238"/>
<path d="M264.952 385.715L265.845 390.434L294.473 386.799L293.58 382.08L264.952 385.715Z" fill="#263238"/>
<path d="M233.766 417.116C232.626 418.303 234.385 420.104 237.642 419.69V424.465C226.715 424.772 224.614 418.463 229.5 413.941L233.766 417.116Z" fill="#263238"/>
<path d="M260.439 392.601C261.855 391.354 263.765 390.56 265.83 390.36L264.95 385.639C261.581 386.087 258.48 387.416 256.108 389.427L260.439 392.601Z" fill="#263238"/>
<path d="M229.382 413.932L233.73 417.113L260.404 392.651L256.056 389.47L229.382 413.932Z" fill="#263238"/>
<path d="M229.382 413.932L233.73 417.113L260.404 392.651L256.056 389.47L229.382 413.932Z" fill="#263238"/>
<path opacity="0.4" d="M237.642 419.691C234.385 420.104 232.626 418.357 233.766 417.117L260.44 392.6C261.855 391.353 263.765 390.559 265.83 390.36L294.474 386.718L293.578 382.01L264.95 385.638C261.581 386.087 258.48 387.415 256.108 389.426L229.434 413.942C224.549 418.464 226.715 424.773 237.577 424.466H397.862V419.691H237.642Z" fill="white"/>
</svg>
