<svg width="791" height="589" viewBox="0 0 791 589" fill="none" xmlns="http://www.w3.org/2000/svg">
<g clip-path="url(#clip0_190_1260)">
<path d="M790.371 517.614H0.000244141V518.009H790.371V517.614Z" fill="#E6E6E6"/>
<path d="M596.983 534.354H542.605V534.749H596.983V534.354Z" fill="#E6E6E6"/>
<path d="M175.526 534.544H144.923V534.939H175.526V534.544Z" fill="#E6E6E6"/>
<path d="M396.766 533.627H334.738V534.022H396.766V533.627Z" fill="#E6E6E6"/>
<path d="M333.158 527.999H305.432V528.394H333.158V527.999Z" fill="#E6E6E6"/>
<path d="M671.12 528.189H587.357V528.585H671.12V528.189Z" fill="#E6E6E6"/>
<path d="M374.636 447.113H69.4106C67.0195 447.109 64.7278 446.156 63.0385 444.464C61.3492 442.771 60.4004 440.478 60.4004 438.087V9.0261C60.4212 6.6487 61.3792 4.37552 63.0662 2.70032C64.7533 1.02511 67.0331 0.0831742 69.4106 0.0791016H374.636C377.03 0.0791016 379.326 1.03006 381.018 2.72277C382.711 4.41548 383.662 6.71128 383.662 9.10513V438.087C383.662 440.481 382.711 442.776 381.018 444.469C379.326 446.162 377.03 447.113 374.636 447.113ZM69.4106 0.395251C67.1243 0.399438 64.9331 1.3106 63.3179 2.92875C61.7027 4.54689 60.7956 6.73979 60.7956 9.0261V438.087C60.7956 440.373 61.7027 442.566 63.3179 444.184C64.9331 445.802 67.1243 446.713 69.4106 446.718H374.636C376.924 446.713 379.117 445.803 380.734 444.185C382.352 442.567 383.263 440.374 383.267 438.087V9.0261C383.263 6.73834 382.352 4.54547 380.734 2.92778C379.117 1.31009 376.924 0.39943 374.636 0.395251H69.4106Z" fill="#E6E6E6"/>
<path d="M716.566 447.113H411.325C408.933 447.109 406.639 446.156 404.948 444.464C403.256 442.773 402.303 440.479 402.299 438.087V9.0261C402.324 6.64726 403.286 4.3741 404.975 2.69933C406.665 1.02456 408.946 0.0831297 411.325 0.0791016H716.566C718.941 0.0873285 721.217 1.0311 722.901 2.70586C724.584 4.38063 725.54 6.65143 725.561 9.0261V438.087C725.561 440.475 724.614 442.766 722.928 444.458C721.243 446.15 718.955 447.104 716.566 447.113ZM411.325 0.395251C409.038 0.39943 406.845 1.31009 405.227 2.92778C403.609 4.54547 402.699 6.73834 402.695 9.0261V438.087C402.699 440.374 403.609 442.567 405.227 444.185C406.845 445.803 409.038 446.713 411.325 446.718H716.566C718.854 446.713 721.047 445.803 722.665 444.185C724.283 442.567 725.193 440.374 725.197 438.087V9.0261C725.193 6.73834 724.283 4.54547 722.665 2.92778C721.047 1.31009 718.854 0.39943 716.566 0.395251H411.325Z" fill="#E6E6E6"/>
<path d="M668.702 29.5283H453.278V280.55H668.702V29.5283Z" fill="#E0E0E0"/>
<path d="M674.55 29.5283H456.013V280.55H674.55V29.5283Z" fill="#F5F5F5"/>
<path d="M668.702 280.534H453.278V294.603H668.702V280.534Z" fill="#E0E0E0"/>
<path d="M701.328 280.534H495.595V294.603H701.328V280.534Z" fill="#F5F5F5"/>
<path d="M666.362 269.896V40.167L464.217 40.167V269.896H666.362Z" fill="#FAFAFA"/>
<path d="M493.287 269.896L541.405 40.167H604.476L556.358 269.896H493.287Z" fill="white"/>
<path d="M566.57 269.896L614.672 40.167H643.157L595.055 269.896H566.57Z" fill="white"/>
<path d="M447.129 29.1651V118.54H470.84C470.84 118.54 513.315 90.8298 523.005 33.8124C523.234 32.4545 523.165 31.063 522.803 29.7344C522.44 28.4059 521.792 27.1722 520.905 26.1192C520.017 25.0662 518.911 24.2191 517.663 23.6368C516.415 23.0545 515.055 22.7509 513.678 22.7472H453.61C452.763 22.741 451.922 22.9023 451.137 23.2218C450.352 23.5413 449.638 24.0128 449.036 24.6092C448.433 25.2056 447.955 25.915 447.628 26.6969C447.301 27.4787 447.131 28.3175 447.129 29.1651Z" fill="#E0E0E0"/>
<path d="M447.129 261.802V125.748H470.84C470.84 125.748 484.435 153.221 497.981 184.805C501.585 193.208 503.046 202.374 502.233 211.481C501.42 220.588 498.359 229.35 493.325 236.983C488.291 244.615 481.44 250.878 473.388 255.21C465.337 259.542 456.335 261.807 447.192 261.802H447.129Z" fill="#E0E0E0"/>
<path d="M470.082 118.54H447.999C446.689 118.54 445.628 119.602 445.628 120.911V123.377C445.628 124.687 446.689 125.748 447.999 125.748H470.082C471.391 125.748 472.453 124.687 472.453 123.377V120.911C472.453 119.602 471.391 118.54 470.082 118.54Z" fill="#F5F5F5"/>
<path d="M681.3 29.1652V118.54H657.589C657.589 118.54 615.099 90.8299 605.424 33.8126C605.195 32.456 605.264 31.0658 605.625 29.7383C605.987 28.4109 606.633 27.1781 607.519 26.1253C608.405 25.0726 609.509 24.2252 610.755 23.6419C612.001 23.0586 613.359 22.7534 614.735 22.7474H674.803C675.652 22.739 676.494 22.8988 677.281 23.2174C678.068 23.536 678.784 24.0071 679.388 24.6037C679.992 25.2003 680.472 25.9104 680.8 26.6933C681.128 27.4762 681.298 28.3163 681.3 29.1652Z" fill="#E0E0E0"/>
<path d="M681.458 261.834V125.779H657.747C657.747 125.779 644.153 153.237 630.59 184.836C627.011 193.242 625.57 202.403 626.395 211.501C627.219 220.6 630.284 229.353 635.315 236.978C640.347 244.603 647.188 250.864 655.229 255.202C663.27 259.539 672.259 261.817 681.395 261.834H681.458Z" fill="#E0E0E0"/>
<path d="M658.3 125.748H680.383C681.693 125.748 682.754 124.686 682.754 123.377V120.911C682.754 119.601 681.693 118.54 680.383 118.54H658.3C656.991 118.54 655.929 119.601 655.929 120.911V123.377C655.929 124.686 656.991 125.748 658.3 125.748Z" fill="#F5F5F5"/>
<path d="M317.555 140.117H222.663V243.988H317.555V140.117Z" fill="#E0E0E0"/>
<path d="M330.897 140.117H227.801V243.988H330.897V140.117Z" fill="#FAFAFA"/>
<path d="M320.259 233.365V150.756H238.424V233.365H320.259Z" fill="white"/>
<path d="M257.662 192.06C257.666 186.885 259.724 181.924 263.385 178.266C267.046 174.608 272.009 172.554 277.184 172.554H281.578C286.75 172.558 291.709 174.614 295.367 178.272C299.024 181.929 301.08 186.888 301.085 192.06C301.085 194.622 300.58 197.158 299.6 199.525C298.619 201.891 297.183 204.042 295.371 205.853C293.56 207.664 291.41 209.101 289.043 210.082C286.676 211.062 284.14 211.566 281.578 211.566H277.184C274.621 211.568 272.083 211.065 269.714 210.086C267.346 209.107 265.194 207.67 263.38 205.859C261.567 204.047 260.129 201.896 259.148 199.528C258.167 197.161 257.662 194.623 257.662 192.06Z" fill="#F5F5F5"/>
<path d="M145.808 164.903C132.602 164.903 119.937 159.657 110.599 150.319C101.261 140.981 96.0151 128.316 96.0151 115.11C96.0151 101.904 101.261 89.2386 110.599 79.9006C119.937 70.5625 132.602 65.3164 145.808 65.3164H154.803V164.903H145.808Z" fill="#E0E0E0"/>
<path d="M154.803 164.903C182.285 164.903 204.565 142.624 204.565 115.142C204.565 87.659 182.285 65.3799 154.803 65.3799C127.32 65.3799 105.041 87.659 105.041 115.142C105.041 142.624 127.32 164.903 154.803 164.903Z" fill="#FAFAFA"/>
<path d="M154.802 152.668C175.528 152.668 192.329 135.867 192.329 115.141C192.329 94.4156 175.528 77.6143 154.802 77.6143C134.077 77.6143 117.276 94.4156 117.276 115.141C117.276 135.867 134.077 152.668 154.802 152.668Z" fill="white"/>
<path d="M170.262 129.179L151.83 116.311L157.679 87.8896L162.896 88.9646L157.758 113.956L173.313 124.8L170.262 129.179Z" fill="#E0E0E0"/>
<path d="M556.959 339.938H489.13V523.21H556.959V339.938Z" fill="#E0E0E0"/>
<path d="M538.844 523.21H556.959V492.859H519.859L538.844 523.21Z" fill="#FAFAFA"/>
<path d="M150.313 339.938H82.4835V523.21H150.313V339.938Z" fill="#E0E0E0"/>
<path d="M556.974 339.938H134.505V512.761H556.974V339.938Z" fill="#FAFAFA"/>
<path d="M152.621 523.21H134.505V492.859H171.605L152.621 523.21Z" fill="#FAFAFA"/>
<path d="M542.922 354.797H148.558V418.406H542.922V354.797Z" fill="#F0F0F0"/>
<path d="M542.922 433.787H148.558V497.396H542.922V433.787Z" fill="#F0F0F0"/>
<path d="M485.098 354.797H148.558V418.406H485.098V354.797Z" fill="#E0E0E0"/>
<path d="M252.192 363.381H231.721C231.721 363.381 235.278 375.663 235.278 382.887C235.278 390.111 219.708 418.422 241.964 418.422C264.221 418.422 248.635 390.111 248.635 382.887C248.635 375.663 252.192 363.381 252.192 363.381Z" fill="#FAFAFA"/>
<path d="M171.606 384.721V395.897C171.606 408.29 183.588 418.422 198.226 418.422H211.425C226.062 418.422 238.044 408.29 238.044 395.897V384.721H171.606Z" fill="#F0F0F0"/>
<path d="M485.098 433.787H148.558V497.396H485.098V433.787Z" fill="#E0E0E0"/>
<path d="M337.568 496.242H369.088V443.746H337.568V496.242Z" fill="white"/>
<path d="M364.172 497.064H366.322V444.568H364.172V497.064Z" fill="#E6E6E6"/>
<path d="M366.48 497.46H371.981C372.4 497.46 372.739 497.12 372.739 496.701V444.916C372.739 444.497 372.4 444.157 371.981 444.157H366.48C366.061 444.157 365.721 444.497 365.721 444.916V496.701C365.721 497.12 366.061 497.46 366.48 497.46Z" fill="#EBEBEB"/>
<path d="M365.721 468.784H372.739V456.328H365.721V468.784Z" fill="white"/>
<path d="M365.721 480.309H372.739V472.626H365.721V480.309Z" fill="white"/>
<path d="M335.955 497.46H364.361C364.78 497.46 365.12 497.12 365.12 496.701V444.916C365.12 444.497 364.78 444.157 364.361 444.157H335.955C335.536 444.157 335.197 444.497 335.197 444.916V496.701C335.197 497.12 335.536 497.46 335.955 497.46Z" fill="#EBEBEB"/>
<path d="M322.187 496.115H356.963V438.197H322.187V496.115Z" fill="white"/>
<path d="M351.573 497.017H353.928V439.098H351.573V497.017Z" fill="#E6E6E6"/>
<path d="M354.102 497.46H360.172C360.635 497.46 361.01 497.085 361.01 496.622V439.494C361.01 439.031 360.635 438.656 360.172 438.656H354.102C353.639 438.656 353.264 439.031 353.264 439.494V496.622C353.264 497.085 353.639 497.46 354.102 497.46Z" fill="#F0F0F0"/>
<path d="M353.264 459.396H361.01V457.388H353.264V459.396Z" fill="white"/>
<path d="M353.264 465.212H361.01V463.204H353.264V465.212Z" fill="white"/>
<path d="M353.264 471.014H361.01V469.006H353.264V471.014Z" fill="white"/>
<path d="M320.433 497.46H351.763C352.226 497.46 352.601 497.085 352.601 496.622V439.494C352.601 439.031 352.226 438.656 351.763 438.656H320.433C319.97 438.656 319.595 439.031 319.595 439.494V496.622C319.595 497.085 319.97 497.46 320.433 497.46Z" fill="#F0F0F0"/>
<path d="M279.349 477.289C279.352 479.053 278.832 480.778 277.854 482.247C276.877 483.715 275.485 484.86 273.856 485.537C272.228 486.214 270.435 486.393 268.704 486.051C266.974 485.709 265.384 484.861 264.135 483.615C262.887 482.369 262.036 480.78 261.691 479.05C261.346 477.32 261.521 475.527 262.195 473.897C262.87 472.267 264.012 470.874 265.479 469.893C266.945 468.913 268.67 468.39 270.434 468.39C272.795 468.39 275.061 469.327 276.732 470.995C278.404 472.664 279.345 474.927 279.349 477.289Z" fill="#FAFAFA"/>
<path d="M264.158 481.541C264.158 482.92 263.749 484.268 262.983 485.414C262.217 486.561 261.129 487.454 259.855 487.982C258.581 488.509 257.179 488.647 255.827 488.379C254.475 488.11 253.233 487.446 252.258 486.471C251.283 485.496 250.619 484.254 250.35 482.901C250.081 481.549 250.219 480.147 250.747 478.874C251.274 477.6 252.168 476.511 253.314 475.745C254.46 474.979 255.808 474.57 257.187 474.57C259.035 474.574 260.805 475.31 262.112 476.617C263.418 477.923 264.154 479.694 264.158 481.541Z" fill="#FAFAFA"/>
<path d="M294.603 481.541C294.603 483.305 294.08 485.028 293.101 486.494C292.121 487.961 290.729 489.103 289.1 489.778C287.471 490.453 285.678 490.629 283.949 490.285C282.219 489.941 280.631 489.092 279.384 487.845C278.137 486.599 277.288 485.01 276.944 483.281C276.6 481.551 276.776 479.759 277.451 478.13C278.126 476.501 279.269 475.108 280.735 474.128C282.201 473.149 283.925 472.626 285.688 472.626C288.051 472.63 290.316 473.571 291.987 475.242C293.658 476.913 294.599 479.178 294.603 481.541Z" fill="#FAFAFA"/>
<path d="M309.21 478.933C309.21 480.696 308.687 482.42 307.707 483.886C306.728 485.352 305.335 486.495 303.706 487.17C302.077 487.844 300.284 488.021 298.555 487.677C296.826 487.333 295.237 486.484 293.99 485.237C292.743 483.99 291.894 482.402 291.55 480.672C291.206 478.943 291.383 477.15 292.058 475.521C292.732 473.892 293.875 472.5 295.341 471.52C296.807 470.54 298.531 470.018 300.294 470.018C302.659 470.018 304.926 470.957 306.598 472.629C308.27 474.301 309.21 476.568 309.21 478.933Z" fill="#FAFAFA"/>
<path d="M232.654 480.087C232.654 480.087 233.872 497.475 280.772 497.475C327.673 497.475 328.89 480.087 328.89 480.087H232.654Z" fill="#F5F5F5"/>
<path d="M364.172 401.034C364.172 401.034 366.116 418.422 440.442 418.422C514.769 418.422 516.697 401.034 516.697 401.034H364.172Z" fill="white"/>
<path d="M395.185 589C564.455 589 701.675 580.988 701.675 571.106C701.675 561.223 564.455 553.212 395.185 553.212C225.916 553.212 88.6953 561.223 88.6953 571.106C88.6953 580.988 225.916 589 395.185 589Z" fill="#F5F5F5"/>
<path d="M163.227 527.999H161.646V545.846H163.227V527.999Z" fill="#00BFA6"/>
<path opacity="0.1" d="M163.227 527.999H161.646V545.846H163.227V527.999Z" fill="black"/>
<path d="M628.724 386.602H627.143V411.056H628.724V386.602Z" fill="#00BFA6"/>
<path d="M628.724 423.892H627.143V437.154H628.724V423.892Z" fill="#00BFA6"/>
<path opacity="0.1" d="M628.724 386.602H627.143V411.056H628.724V386.602Z" fill="black"/>
<path opacity="0.1" d="M628.724 423.892H627.143V437.154H628.724V423.892Z" fill="black"/>
<path d="M599.417 280.565H190.969C177.83 280.565 167.179 291.217 167.179 304.356V543.443C167.179 556.582 177.83 567.233 190.969 567.233H599.417C612.556 567.233 623.207 556.582 623.207 543.443V304.356C623.207 291.217 612.556 280.565 599.417 280.565Z" fill="#00BFA6"/>
<path opacity="0.2" d="M599.417 280.565H190.969C177.83 280.565 167.179 291.217 167.179 304.356V543.443C167.179 556.582 177.83 567.233 190.969 567.233H599.417C612.556 567.233 623.207 556.582 623.207 543.443V304.356C623.207 291.217 612.556 280.565 599.417 280.565Z" fill="black"/>
<path d="M549.387 380.389C557.214 380.389 564.721 377.28 570.255 371.745C575.79 366.21 578.899 358.704 578.899 350.877C578.899 343.05 575.79 335.543 570.255 330.008C564.721 324.474 557.214 321.364 549.387 321.364H511.291C503.464 321.364 495.957 324.474 490.422 330.008C484.888 335.543 481.778 343.05 481.778 350.877C481.778 358.704 484.888 366.21 490.422 371.745C495.957 377.28 503.464 380.389 511.291 380.389H549.387Z" fill="#00BFA6"/>
<path d="M292.026 380.373H221.73C216.073 380.373 211.487 384.959 211.487 390.616V436.568C211.487 442.226 216.073 446.812 221.73 446.812H292.026C297.683 446.812 302.269 442.226 302.269 436.568V390.616C302.269 384.959 297.683 380.373 292.026 380.373Z" fill="#00BFA6"/>
<path opacity="0.3" d="M292.026 380.373H221.73C216.073 380.373 211.487 384.959 211.487 390.616V436.568C211.487 442.226 216.073 446.812 221.73 446.812H292.026C297.683 446.812 302.269 442.226 302.269 436.568V390.616C302.269 384.959 297.683 380.373 292.026 380.373Z" fill="white"/>
<path d="M340.665 314.108H218.743C214.736 314.108 211.487 317.353 211.487 321.356C211.487 325.359 214.736 328.604 218.743 328.604H340.665C344.672 328.604 347.921 325.359 347.921 321.356C347.921 317.353 344.672 314.108 340.665 314.108Z" fill="#00BFA6"/>
<path opacity="0.3" d="M340.665 314.108H218.743C214.736 314.108 211.487 317.353 211.487 321.356C211.487 325.359 214.736 328.604 218.743 328.604H340.665C344.672 328.604 347.921 325.359 347.921 321.356C347.921 317.353 344.672 314.108 340.665 314.108Z" fill="white"/>
<path d="M276.961 479.786H222.125C216.25 479.786 211.487 484.549 211.487 490.425V500.367C211.487 506.243 216.25 511.006 222.125 511.006H276.961C282.837 511.006 287.6 506.243 287.6 500.367V490.425C287.6 484.549 282.837 479.786 276.961 479.786Z" fill="#00BFA6"/>
<path opacity="0.3" d="M276.961 479.786H222.125C216.25 479.786 211.487 484.549 211.487 490.425V500.367C211.487 506.243 216.25 511.006 222.125 511.006H276.961C282.837 511.006 287.6 506.243 287.6 500.367V490.425C287.6 484.549 282.837 479.786 276.961 479.786Z" fill="white"/>
<path d="M374.051 479.786H319.215C313.34 479.786 308.577 484.549 308.577 490.425V500.367C308.577 506.243 313.34 511.006 319.215 511.006H374.051C379.927 511.006 384.69 506.243 384.69 500.367V490.425C384.69 484.549 379.927 479.786 374.051 479.786Z" fill="#00BFA6"/>
<path opacity="0.3" d="M374.051 479.786H319.215C313.34 479.786 308.577 484.549 308.577 490.425V500.367C308.577 506.243 313.34 511.006 319.215 511.006H374.051C379.927 511.006 384.69 506.243 384.69 500.367V490.425C384.69 484.549 379.927 479.786 374.051 479.786Z" fill="white"/>
<path d="M471.156 479.786H416.32C410.444 479.786 405.681 484.549 405.681 490.425V500.367C405.681 506.243 410.444 511.006 416.32 511.006H471.156C477.031 511.006 481.794 506.243 481.794 500.367V490.425C481.794 484.549 477.031 479.786 471.156 479.786Z" fill="#00BFA6"/>
<path opacity="0.3" d="M471.156 479.786H416.32C410.444 479.786 405.681 484.549 405.681 490.425V500.367C405.681 506.243 410.444 511.006 416.32 511.006H471.156C477.031 511.006 481.794 506.243 481.794 500.367V490.425C481.794 484.549 477.031 479.786 471.156 479.786Z" fill="white"/>
<path d="M568.245 479.786H513.409C507.533 479.786 502.77 484.549 502.77 490.425V500.367C502.77 506.243 507.533 511.006 513.409 511.006H568.245C574.12 511.006 578.883 506.243 578.883 500.367V490.425C578.883 484.549 574.12 479.786 568.245 479.786Z" fill="#00BFA6"/>
<path opacity="0.3" d="M568.245 479.786H513.409C507.533 479.786 502.77 484.549 502.77 490.425V500.367C502.77 506.243 507.533 511.006 513.409 511.006H568.245C574.12 511.006 578.883 506.243 578.883 500.367V490.425C578.883 484.549 574.12 479.786 568.245 479.786Z" fill="white"/>
<path d="M463.158 176.838C459.411 187.413 455.254 197.641 450.844 207.868C446.38 218.269 441.259 228.374 435.511 238.124C434.736 239.372 433.93 240.621 433.092 241.87L432.476 242.803L431.638 243.957C431.069 244.684 430.531 245.316 430.057 245.932C428.065 248.153 425.954 250.264 423.734 252.255C419.513 256.16 415.214 259.701 410.867 263.194C402.141 270.118 393.226 276.599 383.994 282.748L378.477 275.903L401.714 252.998C405.556 249.189 409.365 245.348 412.922 241.506C414.676 239.594 416.384 237.634 417.79 235.831C418.138 235.389 418.439 234.946 418.707 234.567L419.039 234.029L419.498 233.207C420.114 232.117 420.762 231.058 421.363 229.935C426.2 220.846 430.468 210.966 434.578 200.945C438.688 190.923 442.64 180.822 446.434 170.8L463.158 176.838Z" fill="#E4897B"/>
<path d="M467.599 169.219C471.187 179.715 450.1 210.587 450.1 210.587L429.962 199.38C433.393 189.747 437.449 180.348 442.102 171.243C449.152 157.901 463.663 157.696 467.599 169.219Z" fill="#00BFA6"/>
<path opacity="0.7" d="M467.599 169.219C471.187 179.715 450.1 210.587 450.1 210.587L429.962 199.38C433.393 189.747 437.449 180.348 442.102 171.243C449.152 157.901 463.663 157.696 467.599 169.219Z" fill="white"/>
<path opacity="0.31" d="M467.9 170.531C463.379 168.365 458.178 170.183 452.693 178.846C447.208 187.508 442.545 201.972 442.039 206.098L450.117 210.571C450.117 210.571 469.576 182.054 467.9 170.531Z" fill="#00BFA6"/>
<path d="M453.957 161.189C453.957 161.189 438.909 196.581 449.753 262.483H512.429C513.204 252.856 508.778 205.924 519.637 160.588C512.737 159.245 505.756 158.358 498.74 157.932C489.869 157.426 480.976 157.426 472.104 157.932C465.981 158.554 459.915 159.643 453.957 161.189Z" fill="#00BFA6"/>
<path opacity="0.7" d="M453.957 161.189C453.957 161.189 438.909 196.581 449.753 262.483H512.429C513.204 252.856 508.778 205.924 519.637 160.588C512.737 159.245 505.756 158.358 498.74 157.932C489.869 157.426 480.976 157.426 472.104 157.932C465.981 158.554 459.915 159.643 453.957 161.189Z" fill="white"/>
<path d="M534.623 543.254L525.344 551.569L507.655 533.169L516.95 524.854L534.623 543.254Z" fill="#E4897B"/>
<path d="M502.803 560.563H491.089L489.572 533.422H501.285L502.803 560.563Z" fill="#E4897B"/>
<path d="M507.671 533.169L516.776 542.654L526.071 534.339L516.966 524.854L507.671 533.169Z" fill="#CE6F64"/>
<path d="M501.285 533.438H489.572L490.362 547.427H502.075L501.285 533.438Z" fill="#CE6F64"/>
<path d="M449.753 262.483C449.753 262.483 437.407 347.938 433.202 394.443C429.819 431.765 510.516 543.033 510.516 543.033L526.118 528.348C526.118 528.348 467.188 428.587 471.725 387.045C476.119 346.815 491.01 262.436 491.01 262.436L449.753 262.483Z" fill="#00BFA6"/>
<path opacity="0.7" d="M449.753 262.483C449.753 262.483 437.407 347.938 433.202 394.443C429.819 431.765 510.516 543.033 510.516 543.033L526.118 528.348C526.118 528.348 467.188 428.587 471.725 387.045C476.119 346.815 491.01 262.436 491.01 262.436L449.753 262.483Z" fill="black"/>
<path opacity="0.2" d="M471.725 387.092C473.986 366.368 479.044 333.9 483.391 307.312C481.115 302.854 474.729 293.828 474.729 293.828C469.006 313.603 456.566 388.151 474.318 488.828C492.812 518.641 510.517 543.079 510.517 543.079L512.935 504.636C495.847 472.484 468.58 415.814 471.725 387.092Z" fill="black"/>
<path d="M472.041 262.482C472.041 262.482 470.935 352.031 472.832 385.591C474.902 422.327 485.335 544.044 485.335 544.044H506.802C506.802 544.044 506.154 425.299 507.418 388.942C508.825 349.423 512.461 262.482 512.461 262.482H472.041Z" fill="#00BFA6"/>
<path opacity="0.7" d="M472.041 262.482C472.041 262.482 470.935 352.031 472.832 385.591C474.902 422.327 485.335 544.044 485.335 544.044H506.802C506.802 544.044 506.154 425.299 507.418 388.942C508.825 349.423 512.461 262.482 512.461 262.482H472.041Z" fill="black"/>
<path d="M490.473 559.219H503.64C503.86 559.211 504.074 559.289 504.237 559.437C504.399 559.584 504.498 559.79 504.51 560.01L505.158 570.427C505.16 570.699 505.108 570.968 505.006 571.22C504.904 571.473 504.753 571.702 504.563 571.896C504.372 572.09 504.145 572.244 503.894 572.35C503.644 572.456 503.375 572.511 503.103 572.513C498.519 572.434 496.322 572.166 490.536 572.166C486.979 572.166 471.836 572.545 466.92 572.545C462.004 572.545 462.178 567.676 464.217 567.234C473.559 565.258 485.146 562.492 488.465 559.931C489.038 559.479 489.743 559.228 490.473 559.219Z" fill="#263238"/>
<path d="M522.783 548.249L534.069 540.646C534.254 540.499 534.482 540.42 534.717 540.42C534.953 540.42 535.181 540.499 535.365 540.646L543.996 549.356C544.165 549.547 544.289 549.773 544.36 550.018C544.432 550.262 544.448 550.52 544.409 550.772C544.37 551.024 544.276 551.264 544.133 551.475C543.991 551.687 543.804 551.864 543.585 551.995C536.377 557.544 531.176 561.733 527.066 566.349C522.324 571.739 519.763 572.513 508.698 572.513C503.577 572.513 500.684 568.198 502.77 567.534C521.202 561.701 516.27 559.156 520.759 550.604C521.228 549.663 521.923 548.854 522.783 548.249Z" fill="#263238"/>
<path d="M381.133 274.433L368.914 274.859L371.475 284.439C371.475 284.439 384.247 285.577 385.385 281.72L381.133 274.433Z" fill="#E4897B"/>
<path d="M355.73 280.566L364.298 285.561L371.474 284.439L368.914 274.859L355.73 280.566Z" fill="#E4897B"/>
<path opacity="0.31" d="M505.632 171.78C504.336 179.241 506.059 197.072 512.461 217.716C512.962 200.029 515.02 182.42 518.61 165.093V164.998C514.5 164.587 506.881 164.777 505.632 171.78Z" fill="#00BFA6"/>
<path d="M497.143 127.93C495.168 136.497 492.939 152.21 498.724 157.964C498.724 157.964 496.227 165.061 480.293 165.061C462.778 165.061 472.089 157.964 472.089 157.964C481.731 155.688 481.731 148.59 480.293 141.935L497.143 127.93Z" fill="#E4897B"/>
<path d="M479.85 165.03L475.108 170.073L477.432 174.942L481.21 175.115L484.434 170.468L479.85 165.03Z" fill="#00BFA6"/>
<path d="M490.283 133.637L480.309 141.888C480.668 143.447 480.89 145.033 480.972 146.63C484.64 146.109 489.793 142.094 490.315 138.268C490.594 136.736 490.583 135.165 490.283 133.637Z" fill="#CE6F64"/>
<path d="M476.356 98.8761C470.365 100.915 465.576 116.802 472.563 121.006C479.549 125.211 487.738 95.0033 476.356 98.8761Z" fill="#263238"/>
<path d="M500.89 118.952C497.317 130.017 495.8 136.703 488.592 141.24C486.266 142.735 483.577 143.565 480.813 143.641C478.05 143.717 475.319 143.037 472.915 141.673C470.51 140.309 468.525 138.313 467.173 135.902C465.821 133.491 465.154 130.756 465.244 127.994C465.386 117.355 471.204 100.979 483.454 98.9237C486.095 98.4141 488.822 98.607 491.365 99.4832C493.907 100.359 496.174 101.888 497.94 103.916C499.706 105.944 500.908 108.401 501.425 111.04C501.943 113.678 501.758 116.407 500.89 118.952Z" fill="#E4897B"/>
<path d="M509.742 100.457C506.17 109.087 514.484 101.879 512.334 112.122C510.943 118.793 498.898 134.774 494.251 133.32C489.603 131.866 489.651 120.532 495.579 112.518C498.993 107.918 491.611 102.701 475.029 103.254C458.447 103.808 448.425 94.4813 470.461 87.6367C470.461 87.6367 462.336 92.3789 467.157 93.9597C473.986 96.5047 516.903 83.1632 509.742 100.457Z" fill="#263238"/>
<path d="M506.58 104.409C506.406 104.409 510.295 103.444 512.366 96.5049C512.366 96.6155 511.686 106.843 506.58 104.409Z" fill="#263238"/>
<path d="M475.551 89.1699C465.355 92.3314 469.575 95.8881 473.796 96.7733L483.47 92.9795C468.769 94.9238 475.551 89.1699 475.551 89.1699Z" fill="#263238"/>
<path d="M502.85 132.467C500.73 134.527 497.902 135.698 494.946 135.739C491.042 135.739 490.204 132.04 492.307 128.942C494.172 126.16 498.44 122.809 501.886 124.31C505.332 125.812 505.443 129.922 502.85 132.467Z" fill="#E4897B"/>
<path d="M482.885 118.335C482.648 119.252 481.969 119.916 481.305 119.757C480.641 119.599 480.404 118.762 480.641 117.845C480.878 116.928 481.558 116.264 482.222 116.438C482.885 116.612 483.123 117.418 482.885 118.335Z" fill="#263238"/>
<path d="M472.453 116.042C472.216 116.959 471.536 117.623 470.872 117.465C470.208 117.307 469.971 116.485 470.208 115.568C470.445 114.651 471.109 113.987 471.789 114.145C472.468 114.303 472.642 115.125 472.453 116.042Z" fill="#263238"/>
<path d="M475.645 117.229C473.848 119.788 471.722 122.1 469.322 124.105C469.85 124.691 470.5 125.155 471.227 125.464C471.953 125.772 472.738 125.918 473.527 125.891L475.645 117.229Z" fill="#DE5753"/>
<path d="M477.384 129.226C476.729 129.225 476.077 129.151 475.44 129.005C475.369 128.986 475.309 128.941 475.271 128.879C475.233 128.818 475.22 128.744 475.234 128.673C475.253 128.603 475.297 128.542 475.359 128.504C475.421 128.466 475.495 128.453 475.566 128.467C476.73 128.726 477.938 128.719 479.098 128.445C480.259 128.171 481.343 127.638 482.268 126.886C482.321 126.835 482.392 126.807 482.466 126.807C482.54 126.807 482.61 126.835 482.664 126.886C482.715 126.939 482.743 127.01 482.743 127.084C482.743 127.158 482.715 127.229 482.664 127.282C481.196 128.545 479.321 129.236 477.384 129.226Z" fill="#263238"/>
<path d="M487.027 115.695C486.919 115.697 486.813 115.666 486.723 115.607C486.633 115.548 486.563 115.463 486.521 115.363C486.262 114.729 485.853 114.166 485.331 113.723C484.808 113.28 484.186 112.97 483.518 112.818C483.445 112.808 483.375 112.784 483.311 112.747C483.248 112.71 483.192 112.66 483.148 112.601C483.104 112.543 483.072 112.475 483.054 112.404C483.036 112.333 483.032 112.258 483.044 112.186C483.067 112.04 483.146 111.909 483.264 111.821C483.382 111.732 483.53 111.693 483.676 111.711C484.527 111.885 485.324 112.264 485.996 112.815C486.668 113.365 487.196 114.072 487.533 114.873C487.564 114.939 487.581 115.011 487.584 115.084C487.586 115.157 487.574 115.23 487.547 115.298C487.521 115.366 487.48 115.428 487.429 115.48C487.378 115.532 487.316 115.573 487.248 115.6C487.182 115.648 487.107 115.68 487.027 115.695Z" fill="#263238"/>
<path d="M468.927 111.506C468.8 111.505 468.678 111.46 468.58 111.379C468.466 111.284 468.394 111.148 468.38 111C468.365 110.852 468.408 110.705 468.501 110.589C469.058 109.896 469.766 109.34 470.572 108.965C471.378 108.589 472.259 108.404 473.148 108.423C473.221 108.429 473.292 108.45 473.357 108.483C473.421 108.516 473.479 108.562 473.526 108.618C473.573 108.674 473.609 108.739 473.631 108.808C473.652 108.878 473.66 108.951 473.654 109.024C473.65 109.097 473.631 109.169 473.598 109.235C473.566 109.301 473.52 109.36 473.463 109.407C473.407 109.455 473.342 109.49 473.271 109.511C473.2 109.532 473.126 109.539 473.053 109.53C472.342 109.522 471.639 109.678 470.998 109.985C470.357 110.292 469.794 110.742 469.354 111.3C469.304 111.365 469.239 111.417 469.165 111.452C469.091 111.488 469.01 111.506 468.927 111.506Z" fill="#263238"/>
<path d="M522.672 168.665C523.905 170.578 524.932 172.269 525.976 174.103C527.019 175.936 528.015 177.707 528.995 179.541C530.924 183.192 532.741 186.923 534.401 190.732C537.883 198.531 540.496 206.689 542.194 215.06L542.352 215.866L542.431 216.261L542.542 216.925C542.676 217.809 542.745 218.702 542.747 219.597C542.732 221.094 542.573 222.587 542.273 224.054C541.738 226.475 540.965 228.836 539.965 231.104C538.191 235.079 536.075 238.892 533.642 242.501C529.044 249.365 523.816 255.784 518.025 261.676L511.148 256.159C514.974 249.488 518.783 242.565 521.977 235.783C523.546 232.54 524.888 229.191 525.992 225.761C526.443 224.331 526.75 222.859 526.908 221.367C526.963 220.878 526.963 220.385 526.908 219.897C526.908 219.755 526.908 219.628 526.814 219.612C526.719 219.597 526.814 219.612 526.814 219.533L526.719 219.217L526.529 218.569C525.53 215.082 524.343 211.652 522.972 208.294C521.581 204.864 520.032 201.45 518.404 198.051C516.776 194.652 515.021 191.301 513.219 187.95C512.334 186.275 511.401 184.615 510.469 182.971L507.687 178.229L522.672 168.665Z" fill="#E4897B"/>
<path d="M486.331 561.242C485.543 561.322 484.753 561.102 484.118 560.626C483.94 560.428 483.814 560.187 483.753 559.928C483.693 559.668 483.699 559.397 483.771 559.14C483.806 558.967 483.883 558.806 483.996 558.67C484.11 558.535 484.255 558.43 484.419 558.365C485.857 557.796 489.161 560.073 489.54 560.326C489.587 560.354 489.624 560.398 489.643 560.449C489.663 560.501 489.666 560.557 489.651 560.61C489.643 560.663 489.619 560.713 489.582 560.752C489.546 560.792 489.498 560.819 489.446 560.831C488.425 561.077 487.381 561.215 486.331 561.242ZM484.956 558.824C484.846 558.806 484.734 558.806 484.624 558.824C484.544 558.853 484.473 558.904 484.42 558.971C484.367 559.038 484.334 559.118 484.324 559.203C484.267 559.369 484.254 559.547 484.287 559.719C484.32 559.891 484.399 560.051 484.514 560.183C485.051 560.721 486.584 560.784 488.687 560.373C487.569 559.598 486.296 559.074 484.956 558.84V558.824Z" fill="white"/>
<path d="M489.382 560.848H489.24C488.07 560.152 486.331 557.686 486.6 556.422C486.647 556.19 486.77 555.981 486.951 555.828C487.132 555.676 487.36 555.59 487.596 555.584C487.804 555.557 488.016 555.577 488.216 555.643C488.416 555.708 488.598 555.818 488.75 555.963C489.935 557.117 489.667 560.484 489.667 560.626C489.661 560.674 489.643 560.719 489.616 560.757C489.588 560.796 489.551 560.827 489.509 560.848H489.382ZM487.801 556.106H487.675C487.28 556.106 487.185 556.343 487.153 556.501C486.979 557.339 488.133 559.188 489.145 560.042C489.291 558.759 489.025 557.464 488.386 556.343C488.307 556.265 488.213 556.205 488.11 556.164C488.007 556.123 487.896 556.103 487.786 556.106H487.801Z" fill="white"/>
<path d="M515.195 554.603C514.903 554.612 514.612 554.558 514.342 554.445C514.133 554.362 513.948 554.229 513.803 554.058C513.657 553.887 513.554 553.684 513.504 553.465C513.464 553.332 513.459 553.191 513.489 553.055C513.52 552.919 513.585 552.794 513.678 552.69C514.737 551.41 520.285 551.789 520.918 551.837C520.977 551.839 521.033 551.86 521.079 551.897C521.125 551.934 521.157 551.985 521.171 552.042C521.183 552.099 521.177 552.159 521.155 552.212C521.132 552.266 521.093 552.312 521.044 552.343C519.279 553.506 517.284 554.277 515.195 554.603ZM518.547 552.295C516.602 552.295 514.563 552.485 514.105 553.038C514.078 553.081 514.064 553.13 514.064 553.181C514.064 553.231 514.078 553.28 514.105 553.323C514.131 553.459 514.191 553.587 514.28 553.695C514.368 553.803 514.482 553.887 514.611 553.939C515.496 554.303 517.488 553.702 520.001 552.359L518.547 552.295Z" fill="white"/>
<path d="M520.902 552.391C519.321 552.391 515.764 551.174 515.496 549.909C515.496 549.593 515.496 549.15 516.254 548.787C518.973 547.506 521.076 551.806 521.171 551.948C521.19 551.993 521.2 552.042 521.2 552.09C521.2 552.139 521.19 552.188 521.171 552.233C521.144 552.281 521.106 552.321 521.058 552.349C521.011 552.377 520.957 552.392 520.902 552.391ZM517.25 549.119C516.982 549.116 516.717 549.175 516.476 549.293C516.144 549.451 515.986 549.624 516.017 549.783C516.175 550.525 518.736 551.569 520.412 551.79C519.906 550.936 518.689 549.119 517.25 549.119Z" fill="white"/>
<path d="M514.279 253.599L502.676 251.56L508.667 265.075C508.667 265.075 519.305 265.075 518.831 259.511L514.279 253.599Z" fill="#E4897B"/>
<path d="M493.903 258.341L499.389 269.264L508.604 265.059L502.613 251.56L493.903 258.341Z" fill="#E4897B"/>
<path d="M527.067 527.493L509.568 543.981L503.925 537.926L523.953 519.685L527.067 527.493Z" fill="#00BFA6"/>
<path opacity="0.6" d="M527.067 527.493L509.568 543.981L503.925 537.926L523.953 519.685L527.067 527.493Z" fill="white"/>
<path d="M507.655 544.044H484.466L483.185 535.903L508.777 537.168L507.655 544.044Z" fill="#00BFA6"/>
<path opacity="0.6" d="M507.655 544.044H484.466L483.185 535.903L508.777 537.168L507.655 544.044Z" fill="white"/>
<path d="M519.638 160.588C530.703 162.169 542.037 200.612 542.037 200.612L518.326 213.764C518.326 213.764 508.699 195.491 504.099 181.928C499.278 167.717 507.798 158.849 519.638 160.588Z" fill="#00BFA6"/>
<path opacity="0.7" d="M519.638 160.588C530.703 162.169 542.037 200.612 542.037 200.612L518.326 213.764C518.326 213.764 508.699 195.491 504.099 181.928C499.278 167.717 507.798 158.849 519.638 160.588Z" fill="white"/>
<path opacity="0.2" d="M479.85 165.03L475.108 170.073L477.432 174.942L481.21 175.115L484.434 170.468L479.85 165.03Z" fill="black"/>
<path d="M477.843 174.071C477.843 174.071 468.849 211.329 468.501 219.075C468.011 229.729 472.468 247.924 472.468 247.924C472.468 247.924 478.791 232.796 480.088 218.743C481.384 204.69 480.42 181.959 481.004 174.071H477.843Z" fill="#00BFA6"/>
<path opacity="0.2" d="M477.843 174.071C477.843 174.071 468.849 211.329 468.501 219.075C468.011 229.729 472.468 247.924 472.468 247.924C472.468 247.924 478.791 232.796 480.088 218.743C481.384 204.69 480.42 181.959 481.004 174.071H477.843Z" fill="black"/>
<path d="M479.85 165.03C481.652 167.946 482.695 171.266 482.885 174.689C482.885 174.689 502.613 167.733 501.68 157.538C501.68 157.538 498.882 155.878 497.112 154.534C497.112 154.534 496.448 160.952 479.85 165.03Z" fill="#00BFA6"/>
<path opacity="0.6" d="M479.85 165.03C481.652 167.946 482.695 171.266 482.885 174.689C482.885 174.689 502.613 167.733 501.68 157.538C501.68 157.538 498.882 155.878 497.112 154.534C497.112 154.534 496.448 160.952 479.85 165.03Z" fill="white"/>
<path d="M479.85 165.029C478.037 167.79 476.73 170.852 475.993 174.071C475.993 174.071 467.062 168.033 469.749 157.964C471.385 157.304 473.071 156.775 474.792 156.383C474.792 156.383 473.622 162.895 479.85 165.029Z" fill="#00BFA6"/>
<path opacity="0.6" d="M479.85 165.029C478.037 167.79 476.73 170.852 475.993 174.071C475.993 174.071 467.062 168.033 469.749 157.964C471.385 157.304 473.071 156.775 474.792 156.383C474.792 156.383 473.622 162.895 479.85 165.029Z" fill="white"/>
</g>
<defs>
<clipPath id="clip0_190_1260">
<rect width="790.371" height="589" fill="white"/>
</clipPath>
</defs>
</svg>
