<svg width="497" height="474" viewBox="0 0 497 474" fill="none" xmlns="http://www.w3.org/2000/svg">
<path d="M301.458 422.319C301.458 422.319 403.495 427.089 468.037 311.777C532.58 196.465 456.636 90.3919 339.319 67.4711C222.002 44.5502 163.553 -41.5112 58.9868 24.3683C-45.579 90.2478 12.5292 441.098 301.458 422.319Z" fill="#00BFA6"/>
<path opacity="0.4" d="M301.458 422.319C301.458 422.319 403.495 427.089 468.037 311.777C532.58 196.465 456.636 90.3919 339.319 67.4711C222.002 44.5502 163.553 -41.5112 58.9868 24.3683C-45.579 90.2478 12.5292 441.098 301.458 422.319Z" fill="white"/>
<path d="M251.148 473.717C386.928 473.717 497 466.893 497 458.476C497 450.058 386.928 443.234 251.148 443.234C115.367 443.234 5.29565 450.058 5.29565 458.476C5.29565 466.893 115.367 473.717 251.148 473.717Z" fill="#00BFA6"/>
<path opacity="0.7" d="M251.148 473.717C386.928 473.717 497 466.893 497 458.476C497 450.058 386.928 443.234 251.148 443.234C115.367 443.234 5.29565 450.058 5.29565 458.476C5.29565 466.893 115.367 473.717 251.148 473.717Z" fill="white"/>
<path d="M304.97 57.0005L304.263 63.0027L307.513 64.1559C307.56 66.2134 307.846 68.2583 308.365 70.2498L305.547 72.2942L307.919 77.8639L311.339 77.2218C312.405 78.9791 313.672 80.6063 315.114 82.0706L313.685 85.2683L318.534 88.8853L321.155 86.6574C322.957 87.6502 324.871 88.4245 326.856 88.964L327.223 92.4368L333.212 93.1576L334.378 89.8944C336.436 89.8472 338.481 89.5614 340.472 89.0426L342.53 91.8471L348.112 89.4488L347.497 86.0415C349.249 84.9748 350.872 83.7082 352.332 82.2672L355.53 83.6957L359.147 78.8468L356.906 76.2258C357.901 74.4296 358.675 72.5199 359.213 70.5381L362.685 70.1712L363.406 64.169L360.143 63.0027C360.102 60.9491 359.816 58.9077 359.291 56.9219L362.122 54.8644L359.737 49.2947L356.329 49.9238C355.258 48.1709 353.987 46.5481 352.542 45.088L353.957 41.9034L349.069 38.3388L346.448 40.5798C344.655 39.5983 342.755 38.8244 340.787 38.2733L340.42 34.8005L334.418 34.0928L333.251 37.3428C331.198 37.3935 329.157 37.6838 327.17 38.2078L325.113 35.3902L319.543 37.7622L320.172 41.1695C318.427 42.2204 316.809 43.4693 315.35 44.8914L312.165 43.476L308.535 48.3249L310.776 50.946C309.784 52.7482 309.01 54.6619 308.469 56.6467L304.97 57.0005ZM318.901 61.8101C319.252 58.8591 320.471 56.0785 322.403 53.8203C324.335 51.5621 326.893 49.9279 329.754 49.1245C332.616 48.3211 335.651 48.3846 338.476 49.307C341.301 50.2294 343.789 51.9692 345.625 54.3062C347.461 56.6432 348.562 59.4724 348.789 62.4355C349.016 65.3987 348.359 68.3627 346.901 70.9523C345.443 73.5418 343.249 75.6406 340.598 76.9829C337.947 78.3253 334.956 78.8508 332.006 78.493C328.058 78.0141 324.461 75.9888 322.004 72.8612C319.547 69.7337 318.431 65.7594 318.901 61.8101Z" stroke="#263238" stroke-width="2.05897" stroke-linejoin="round"/>
<path d="M148.404 204.695L147.761 210.133L150.71 211.182C150.751 213.045 151.011 214.897 151.483 216.699L148.862 218.56L151.012 223.605L154.104 223.016C155.072 224.606 156.22 226.079 157.525 227.406L156.214 230.302L160.709 233.605L163.081 231.573C164.712 232.477 166.446 233.181 168.245 233.67L168.572 236.815L174.011 237.471L175.059 234.509C176.923 234.47 178.775 234.21 180.577 233.736L182.438 236.291L187.47 234.129L186.92 230.984C188.51 230.016 189.983 228.868 191.31 227.563L194.206 228.874L197.482 224.497L195.451 222.098C196.351 220.471 197.055 218.742 197.548 216.948L200.693 216.607L201.335 211.169L198.387 210.12C198.345 208.257 198.086 206.406 197.613 204.603L200.234 202.742L198.072 197.697L194.992 198.26C194.015 196.678 192.859 195.213 191.546 193.896L192.856 191L188.361 187.737L185.976 189.768C184.352 188.872 182.628 188.172 180.839 187.684L180.511 184.539L175.073 183.884L174.024 186.846C172.161 186.886 170.309 187.145 168.507 187.619L166.646 185.116L161.6 187.265L162.164 190.358C160.573 191.325 159.1 192.472 157.774 193.778L154.878 192.468L151.601 196.858L153.633 199.243C152.734 200.876 152.031 202.609 151.536 204.406L148.404 204.695ZM161.024 209.046C161.343 206.375 162.448 203.858 164.197 201.815C165.946 199.771 168.263 198.292 170.852 197.565C173.442 196.837 176.19 196.894 178.747 197.728C181.305 198.562 183.558 200.135 185.221 202.249C186.885 204.364 187.884 206.923 188.093 209.605C188.302 212.287 187.71 214.971 186.394 217.317C185.078 219.663 183.096 221.566 180.698 222.786C178.3 224.006 175.595 224.487 172.923 224.169C169.341 223.739 166.076 221.905 163.844 219.069C161.613 216.234 160.599 212.629 161.024 209.046Z" fill="#263238"/>
<path d="M425.537 338.118V325.786L418.657 324.227C418.075 320.07 417.001 315.996 415.46 312.091L420.702 307.256L414.516 296.509L407.754 298.646C405.165 295.347 402.201 292.36 398.921 289.747L401.057 282.919L390.35 276.747L385.567 281.897C381.675 280.326 377.61 279.222 373.458 278.608L371.885 271.662H359.553L357.981 278.555C353.822 279.133 349.748 280.207 345.845 281.753L341.009 276.511L330.329 282.67L332.412 289.433C329.114 292.017 326.128 294.977 323.514 298.252L316.699 296.142L310.54 306.81L315.703 311.62C314.134 315.508 313.03 319.568 312.414 323.716L305.468 325.301V337.633L312.348 339.206C312.939 343.357 314.012 347.426 315.546 351.328L310.304 356.177L316.477 366.884L323.226 364.8C325.821 368.09 328.795 371.064 332.085 373.659L329.975 380.487L340.695 386.66L345.478 381.418C349.348 382.991 353.391 384.1 357.522 384.72L359.094 391.666H371.439L372.999 384.786C377.16 384.188 381.237 383.106 385.147 381.562L389.983 386.804L400.69 380.631L398.606 373.882C401.908 371.301 404.895 368.341 407.505 365.062L414.319 367.172L420.492 356.452L415.315 351.656C416.885 347.762 417.993 343.698 418.618 339.547L425.537 338.118ZM404.215 331.749C404.215 339.406 401.945 346.89 397.691 353.257C393.437 359.623 387.391 364.585 380.318 367.515C373.244 370.445 365.46 371.212 357.95 369.718C350.441 368.224 343.543 364.537 338.129 359.123C332.715 353.709 329.028 346.811 327.534 339.302C326.04 331.792 326.807 324.008 329.737 316.934C332.667 309.861 337.629 303.815 343.995 299.561C350.362 295.307 357.846 293.037 365.503 293.037C375.77 293.037 385.617 297.115 392.877 304.375C400.137 311.635 404.215 321.482 404.215 331.749Z" fill="white"/>
<path d="M211.269 31.9824H179.502V39.3082H211.269V31.9824Z" fill="#00BFA6"/>
<path d="M200.378 42.5713H179.502V49.8971H200.378V42.5713Z" fill="#00BFA6"/>
<path d="M191.519 53.1602H179.502V60.4859H191.519V53.1602Z" fill="#00BFA6"/>
<path opacity="0.2" d="M211.269 31.9824H179.502V39.3082H211.269V31.9824Z" fill="black"/>
<path opacity="0.2" d="M200.378 42.5713H179.502V49.8971H200.378V42.5713Z" fill="black"/>
<path opacity="0.2" d="M191.519 53.1602H179.502V60.4859H191.519V53.1602Z" fill="black"/>
<path d="M135.115 113.13H124.343V135.199H135.115V113.13Z" fill="#00BFA6"/>
<path d="M150.671 120.717H139.898V135.211H150.671V120.717Z" fill="#00BFA6"/>
<path d="M166.239 126.863H155.467V135.211H166.239V126.863Z" fill="#00BFA6"/>
<path opacity="0.2" d="M135.115 113.13H124.343V135.199H135.115V113.13Z" fill="black"/>
<path opacity="0.2" d="M150.671 120.717H139.898V135.211H150.671V120.717Z" fill="black"/>
<path opacity="0.2" d="M166.239 126.863H155.467V135.211H166.239V126.863Z" fill="black"/>
<path d="M252.366 151.908H121.931C120.141 151.911 118.367 151.561 116.712 150.879C115.057 150.196 113.553 149.193 112.286 147.929C111.019 146.664 110.013 145.162 109.328 143.508C108.642 141.854 108.289 140.082 108.289 138.291V30.6065C108.296 26.9973 109.732 23.538 112.284 20.986C114.836 18.434 118.296 16.9972 121.905 16.9902H252.34C254.13 16.9885 255.903 17.3393 257.557 18.0227C259.211 18.706 260.715 19.7085 261.981 20.9729C263.248 22.2373 264.254 23.7388 264.94 25.3917C265.627 27.0447 265.981 28.8166 265.983 30.6065V138.291C265.983 141.903 264.548 145.366 261.994 147.919C259.441 150.473 255.978 151.908 252.366 151.908ZM121.931 18.2352C118.638 18.2422 115.482 19.5533 113.154 21.8817C110.825 24.2101 109.514 27.3661 109.507 30.6589V138.344C109.514 141.637 110.825 144.793 113.154 147.121C115.482 149.449 118.638 150.76 121.931 150.767H252.366C255.659 150.76 258.815 149.449 261.144 147.121C263.472 144.793 264.783 141.637 264.79 138.344V30.6065C264.783 27.3136 263.472 24.1577 261.144 21.8293C258.815 19.5009 255.659 18.1897 252.366 18.1828L121.931 18.2352Z" fill="#263238"/>
<path d="M250.689 113.732H204.179V114.925H250.689V113.732Z" fill="#263238"/>
<path d="M250.689 118.726H204.179V119.918H250.689V118.726Z" fill="#263238"/>
<path d="M250.689 123.705H204.179V124.898H250.689V123.705Z" fill="#263238"/>
<path d="M250.689 128.686H204.179V129.878H250.689V128.686Z" fill="#263238"/>
<path d="M250.689 133.665H204.179V134.858H250.689V133.665Z" fill="#263238"/>
<path d="M169.424 32.4805H122.914V33.673H169.424V32.4805Z" fill="#263238"/>
<path d="M169.424 37.4609H122.914V38.6535H169.424V37.4609Z" fill="#263238"/>
<path d="M169.424 42.4404H122.914V43.633H169.424V42.4404Z" fill="#263238"/>
<path d="M169.424 47.4199H122.914V48.6125H169.424V47.4199Z" fill="#263238"/>
<path d="M169.424 52.4004H122.914V53.593H169.424V52.4004Z" fill="#263238"/>
<path d="M241.502 72.7136L249.837 77.0907L248.88 53.5801L229 66.161L237.335 70.525L231.057 82.4638C229.951 82.4625 228.876 82.8316 228.004 83.5122L216.93 78.3881V78.3226C216.978 76.9866 216.497 75.6856 215.593 74.7011C214.688 73.7167 213.433 73.1281 212.098 73.0626C210.762 72.9971 209.455 73.4601 208.459 74.3513C207.462 75.2426 206.857 76.4903 206.774 77.8246C206.76 77.9903 206.76 78.1568 206.774 78.3226C206.78 79.0499 206.936 79.768 207.232 80.4325L192.817 96.1586C192.354 96.0134 191.873 95.9383 191.388 95.9359C191.137 95.9361 190.887 95.9624 190.641 96.0145L169.883 69.6601C170.357 68.4415 170.342 67.0868 169.842 65.8788C169.341 64.6708 168.393 63.7028 167.196 63.1769C165.999 62.651 164.645 62.6079 163.417 63.0565C162.188 63.5051 161.181 64.4107 160.604 65.5844C160.317 66.2184 160.17 66.9066 160.172 67.6026C160.188 68.1234 160.276 68.6394 160.434 69.1359L136.779 93.3804C135.838 93.0409 134.818 92.9873 133.846 93.2262C132.875 93.4652 131.996 93.9861 131.32 94.7234C130.644 95.4607 130.201 96.3814 130.047 97.3698C129.893 98.3582 130.034 99.3701 130.454 100.278C130.873 101.186 131.552 101.95 132.405 102.473C133.257 102.997 134.245 103.256 135.245 103.219C136.245 103.182 137.211 102.851 138.023 102.266C138.834 101.681 139.455 100.869 139.806 99.9329C140.005 99.3732 140.107 98.7838 140.108 98.1899C140.109 97.7733 140.052 97.3586 139.937 96.9581L163.854 72.4122C164.323 72.568 164.815 72.6477 165.309 72.648C165.621 72.65 165.933 72.6192 166.239 72.5563L186.88 98.7666C186.232 99.9622 186.085 101.366 186.472 102.67C186.859 103.974 187.748 105.071 188.944 105.719C190.14 106.367 191.544 106.514 192.848 106.127C194.151 105.74 195.248 104.85 195.896 103.655C196.263 102.99 196.473 102.251 196.512 101.492C196.525 101.322 196.525 101.151 196.512 100.981C196.504 100.451 196.416 99.9254 196.25 99.4218L211.007 83.3549C211.288 83.4071 211.573 83.4334 211.858 83.4336C212.867 83.4331 213.853 83.132 214.689 82.5686L225.96 87.8107C225.98 88.4837 226.135 89.146 226.414 89.7587C226.693 90.3715 227.091 90.9225 227.586 91.3796C228.08 91.8367 228.661 92.1908 229.294 92.4212C229.926 92.6516 230.599 92.7536 231.271 92.7215C231.944 92.6893 232.603 92.5234 233.211 92.2337C233.819 91.9439 234.363 91.536 234.812 91.0337C235.26 90.5315 235.604 89.945 235.824 89.3083C236.043 88.6717 236.134 87.9978 236.09 87.3258C236.04 86.3846 235.727 85.4762 235.186 84.7048L241.502 72.7136Z" fill="#263238"/>
<path d="M252.668 165.812C250.616 165.816 248.649 166.633 247.2 168.085C245.75 169.538 244.936 171.506 244.936 173.557V240.669C244.936 242.72 245.75 244.686 247.2 246.136C248.65 247.586 250.617 248.401 252.668 248.401H333.92C335.972 248.401 337.939 247.587 339.392 246.137C340.844 244.687 341.661 242.721 341.665 240.669V173.518C341.661 171.466 340.844 169.5 339.392 168.05C337.939 166.6 335.972 165.786 333.92 165.786L252.668 165.812Z" stroke="#263238" stroke-width="1.31051" stroke-linejoin="round"/>
<path d="M257.517 174.96H251.344V175.786H257.517V174.96Z" fill="#263238"/>
<path d="M257.517 181.695H251.344V182.521H257.517V181.695Z" fill="#263238"/>
<path d="M257.517 188.432H251.344V189.257H257.517V188.432Z" fill="#263238"/>
<path d="M257.517 195.181H251.344V196.006H257.517V195.181Z" fill="#263238"/>
<path d="M257.281 181.695H251.108V182.521H257.281V181.695Z" fill="#263238"/>
<path d="M257.517 201.917H251.344V202.743H257.517V201.917Z" fill="#263238"/>
<path d="M297.999 238.376C303.855 238.496 309.617 236.877 314.553 233.722C319.489 230.567 323.378 226.019 325.728 220.653C328.078 215.287 328.783 209.344 327.754 203.577C326.725 197.81 324.008 192.478 319.947 188.256C315.887 184.034 310.665 181.111 304.942 179.858C299.22 178.605 293.254 179.078 287.8 181.217C282.347 183.356 277.65 187.065 274.305 191.874C270.96 196.683 269.118 202.377 269.01 208.234C268.863 216.073 271.833 223.651 277.268 229.302C282.703 234.954 290.159 238.217 297.999 238.376ZM299.034 187.868C303.18 187.952 307.209 189.264 310.61 191.637C314.011 194.011 316.632 197.339 318.141 201.202C319.65 205.065 319.98 209.289 319.088 213.339C318.197 217.39 316.124 221.085 313.133 223.957C310.141 226.83 306.365 228.75 302.282 229.477C298.199 230.203 293.992 229.702 290.193 228.037C286.395 226.372 283.175 223.618 280.942 220.124C278.709 216.629 277.562 212.551 277.646 208.404C277.76 202.845 280.077 197.558 284.088 193.707C288.099 189.856 293.475 187.756 299.034 187.868Z" fill="#00BFA6"/>
<path opacity="0.2" d="M297.999 238.376C303.855 238.496 309.617 236.877 314.553 233.722C319.489 230.567 323.378 226.019 325.728 220.653C328.078 215.287 328.783 209.344 327.754 203.577C326.725 197.81 324.008 192.478 319.947 188.256C315.887 184.034 310.665 181.111 304.942 179.858C299.22 178.605 293.254 179.078 287.8 181.217C282.347 183.356 277.65 187.065 274.305 191.874C270.96 196.683 269.118 202.377 269.01 208.234C268.863 216.073 271.833 223.651 277.268 229.302C282.703 234.954 290.159 238.217 297.999 238.376ZM299.034 187.868C303.18 187.952 307.209 189.264 310.61 191.637C314.011 194.011 316.632 197.339 318.141 201.202C319.65 205.065 319.98 209.289 319.088 213.339C318.197 217.39 316.124 221.085 313.133 223.957C310.141 226.83 306.365 228.75 302.282 229.477C298.199 230.203 293.992 229.702 290.193 228.037C286.395 226.372 283.175 223.618 280.942 220.124C278.709 216.629 277.562 212.551 277.646 208.404C277.76 202.845 280.077 197.558 284.088 193.707C288.099 189.856 293.475 187.756 299.034 187.868Z" fill="black"/>
<path d="M277.345 229.962C280.132 232.773 283.445 235.008 287.096 236.539C290.747 238.07 294.663 238.867 298.622 238.884C302.581 238.901 306.504 238.138 310.168 236.638C313.832 235.139 317.165 232.933 319.976 230.145C320.079 230.03 320.136 229.88 320.136 229.726C320.136 229.571 320.079 229.422 319.976 229.306L313.829 223.121C313.775 223.064 313.71 223.018 313.638 222.987C313.566 222.955 313.489 222.938 313.41 222.937C313.251 222.947 313.1 223.006 312.978 223.108C311.045 225.046 308.737 226.57 306.195 227.586C303.654 228.603 300.931 229.09 298.195 229.018H296.74C292.292 228.77 288.049 227.061 284.67 224.156C284.369 223.881 284.055 223.606 283.766 223.317C280.314 219.87 278.191 215.314 277.771 210.454C277.351 205.593 278.662 200.741 281.473 196.753C281.5 196.717 281.522 196.677 281.538 196.635C281.669 196.452 281.814 196.294 281.971 196.111C283.986 193.558 286.586 191.528 289.552 190.191C292.517 188.855 295.76 188.251 299.008 188.431C299.085 188.433 299.162 188.42 299.234 188.392C299.306 188.364 299.372 188.322 299.428 188.268C299.484 188.214 299.529 188.15 299.56 188.079C299.592 188.009 299.609 187.932 299.61 187.855L299.781 179.166C299.784 179.008 299.726 178.856 299.618 178.74C299.51 178.625 299.362 178.557 299.204 178.55C293.205 178.449 287.312 180.141 282.281 183.409C277.249 186.677 273.307 191.372 270.959 196.894C268.611 202.415 267.965 208.512 269.103 214.403C270.24 220.294 273.11 225.711 277.345 229.962Z" fill="#263238"/>
<path d="M299.217 178.563C307.385 178.572 315.216 181.824 320.988 187.605C326.759 193.386 329.999 201.221 329.994 209.39C329.99 217.559 326.742 225.391 320.964 231.165C315.187 236.94 307.353 240.184 299.184 240.184C291.016 240.184 283.181 236.94 277.404 231.165C271.626 225.391 268.378 217.559 268.374 209.39C268.37 201.221 271.609 193.386 277.381 187.605C283.152 181.824 290.983 178.572 299.151 178.563H299.217ZM298.011 237.759C303.749 237.877 309.393 236.291 314.23 233.201C319.066 230.111 322.877 225.656 325.182 220.4C327.486 215.144 328.18 209.322 327.175 203.672C326.17 198.021 323.513 192.795 319.538 188.656C315.563 184.516 310.449 181.648 304.844 180.414C299.239 179.181 293.394 179.637 288.049 181.726C282.703 183.814 278.097 187.441 274.813 192.148C271.529 196.855 269.715 202.43 269.599 208.168C269.445 215.86 272.351 223.3 277.678 228.851C283.006 234.402 290.319 237.611 298.011 237.772V237.759ZM299.047 187.252C303.302 187.339 307.436 188.685 310.926 191.121C314.416 193.557 317.105 196.973 318.654 200.938C320.202 204.902 320.54 209.237 319.625 213.394C318.71 217.55 316.582 221.342 313.512 224.29C310.442 227.237 306.566 229.208 302.376 229.953C298.185 230.698 293.868 230.183 289.97 228.474C286.072 226.766 282.768 223.939 280.476 220.353C278.185 216.766 277.008 212.581 277.095 208.325C277.212 202.62 279.591 197.195 283.707 193.243C287.824 189.291 293.341 187.136 299.047 187.252ZM298.195 229.071C302.214 229.153 306.168 228.041 309.555 225.876C312.943 223.711 315.613 220.59 317.226 216.908C318.84 213.226 319.326 209.148 318.622 205.19C317.918 201.232 316.056 197.571 313.272 194.671C310.487 191.771 306.905 189.762 302.979 188.898C299.053 188.034 294.958 188.353 291.213 189.816C287.469 191.279 284.242 193.82 281.941 197.117C279.641 200.414 278.369 204.319 278.288 208.338C278.183 213.725 280.22 218.933 283.953 222.818C287.686 226.703 292.808 228.947 298.195 229.058V229.071Z" fill="#263238"/>
<path d="M145.861 273.091V352.587" stroke="#263238" stroke-width="1.15216" stroke-linecap="round" stroke-linejoin="round"/>
<path d="M158.639 303.088H151.889V348.602H158.639V303.088Z" fill="#263238"/>
<path d="M168.284 321.658H161.535V348.589H168.284V321.658Z" fill="#00BFA6"/>
<path d="M179.619 288.371H172.87V348.602H179.619V288.371Z" fill="white" stroke="#263238" stroke-width="1.15216" stroke-linejoin="round"/>
<path d="M198.439 279.683H191.69V348.589H198.439V279.683Z" fill="#263238"/>
<path d="M208.097 331.553H201.348V348.603H208.097V331.553Z" fill="#00BFA6"/>
<path d="M219.433 307.911H212.684V348.603H219.433V307.911Z" fill="white" stroke="#263238" stroke-width="1.15216" stroke-linejoin="round"/>
<path d="M246.928 314.136H240.179V348.589H246.928V314.136Z" fill="#263238"/>
<path d="M256.586 287.401H249.837V348.589H256.586V287.401Z" fill="#00BFA6"/>
<path d="M267.922 300.913H261.173V348.59H267.922V300.913Z" fill="white" stroke="#263238" stroke-width="1.15216" stroke-linejoin="round"/>
<path d="M138.614 338.065H142.389" stroke="#263238" stroke-width="1.15216" stroke-linecap="round" stroke-linejoin="round"/>
<path d="M138.614 328.25H142.389" stroke="#263238" stroke-width="1.15216" stroke-linecap="round" stroke-linejoin="round"/>
<path d="M138.614 318.447H142.389" stroke="#263238" stroke-width="1.15216" stroke-linecap="round" stroke-linejoin="round"/>
<path d="M138.614 308.632H142.389" stroke="#263238" stroke-width="1.15216" stroke-linecap="round" stroke-linejoin="round"/>
<path d="M138.614 298.816H142.389" stroke="#263238" stroke-width="1.15216" stroke-linecap="round" stroke-linejoin="round"/>
<path d="M138.614 289H142.389" stroke="#263238" stroke-width="1.15216" stroke-linecap="round" stroke-linejoin="round"/>
<path d="M138.614 279.185H142.389" stroke="#263238" stroke-width="1.15216" stroke-linecap="round" stroke-linejoin="round"/>
<path d="M141.392 348.603H272.653" stroke="#263238" stroke-width="1.15216" stroke-linecap="round" stroke-linejoin="round"/>
<path opacity="0.3" d="M168.284 321.658H161.535V348.589H168.284V321.658Z" fill="black"/>
<path opacity="0.3" d="M208.097 331.553H201.348V348.603H208.097V331.553Z" fill="black"/>
<path opacity="0.3" d="M256.586 287.401H249.837V348.589H256.586V287.401Z" fill="black"/>
<path d="M133.254 262.056C130.992 262.059 128.825 262.959 127.225 264.559C125.626 266.158 124.726 268.326 124.723 270.587V348.576C124.726 350.839 125.626 353.008 127.224 354.609C128.823 356.211 130.991 357.114 133.254 357.121H278C280.264 357.114 282.434 356.211 284.035 354.61C285.635 353.009 286.538 350.84 286.545 348.576V270.561C286.541 268.296 285.64 266.125 284.038 264.523C282.437 262.921 280.265 262.02 278 262.017L133.254 262.056Z" stroke="#263238" stroke-width="1.31051" stroke-linejoin="round"/>
<path d="M18.7153 436.393C18.7153 436.393 21.7426 456.602 14.4168 458.672C7.09102 460.743 2.00623 458.017 1.08887 454.99C0.171511 451.962 6.65855 430.339 6.65855 430.339L18.7153 436.393Z" fill="white"/>
<path d="M146.136 440.862L177.982 448.411C177.982 448.411 180.393 449.722 180.131 451.884C179.869 454.046 165.335 459.59 161.26 460.284C157.184 460.979 133.66 464.045 130.318 461.175C126.977 458.305 134.04 435.424 134.04 435.424L146.136 440.862Z" fill="white"/>
<path d="M88.4737 72.3069C88.4737 72.3069 92.9557 79.0691 93.0212 82.4896C93.0867 85.91 92.6673 89.8153 94.7642 91.8335C96.861 93.8517 98.4729 96.0534 97.608 97.0756C96.743 98.0978 95.0787 100.09 95.0787 100.09C95.0787 100.09 97.241 111.609 94.4365 113.693C91.632 115.777 83.2054 113.693 83.2054 113.693V121.137C83.2054 121.137 71.2274 117.205 62.958 117.939L61.4902 101.99C61.4902 101.99 79.4574 67.4449 88.4737 72.3069Z" fill="white"/>
<path d="M162.151 119.433C162.151 119.433 161.076 111.255 165.06 106.327C165.06 106.327 160.29 105.515 160.866 103.785C161.443 102.055 168.73 104.322 168.73 104.322L166.764 100.391C166.764 100.391 159.884 98.1105 160.735 95.9744C161.587 93.8382 171.678 99.0934 171.678 99.0934C171.678 99.0934 165.689 94.0872 166.528 92.0035C167.367 89.9198 173.46 89.9591 176.711 100.758L178.362 98.7002C178.362 98.7002 178.952 86.4076 180.642 85.7393C180.642 85.7393 183.263 87.1808 183.263 94.2445C183.263 94.2445 185.884 97.4028 184.22 100.076C182.555 102.75 178.637 108.765 175.308 111.019C171.98 113.273 171.993 122.067 171.993 122.067L162.151 119.433Z" fill="white"/>
<path d="M56.6808 52.2166L58.1879 50.1984C58.1879 50.1984 75.0542 42.6761 74.6349 40.3303C74.2155 37.9845 64.6618 41.2214 62.8402 39.9764C62.8402 39.9764 64.5832 17.7764 62.8402 17.0556C61.0973 16.3348 59.1577 27.4741 59.1577 27.4741C59.1577 27.4741 56.707 16.0465 54.8199 16.3741C52.9328 16.7017 53.7191 28.1687 53.7191 28.1687C53.7191 28.1687 50.1152 20.8167 48.7129 21.4982C47.3107 22.1797 49.4075 31.1436 49.4075 31.1436C49.4075 31.1436 46.7864 28.0639 45.738 28.9943C46.0834 33.6246 47.3534 38.1387 49.473 42.2698L45.8298 48.4292L56.6808 52.2166Z" fill="white"/>
<path d="M160.329 119.485L171.953 121.11C171.953 121.11 163.448 193.188 160.945 202.087C158.442 210.985 156.188 217.38 147.643 217.813C139.099 218.245 108.656 192.651 108.656 192.651L107.24 228.035L109.219 242.713C109.219 242.713 71.9875 262.279 34.1267 245.255L34.9786 228.035L21.3361 149.273L10.603 111.871L45.2399 46.2012L57.7946 52.7537L35.6469 112.526L41.8457 132.485L48.7783 129.707L56.4448 119.931C56.4448 119.931 69.4451 113.181 85.892 122.552L88.513 130.755C88.513 130.755 107.804 132.21 140.37 177.357L160.329 119.485Z" fill="#00BFA6"/>
<path opacity="0.2" d="M77.2297 119.485L78.6975 129.576C78.6975 129.576 89.5223 136.758 93.8732 139.248C93.8732 139.248 104.515 206.451 96.6384 219.674L88.3429 232.661C88.3429 232.661 96.8219 232.661 100.727 226.725C100.727 226.725 95.8652 242.949 83.2581 247.313C83.2581 247.313 102.614 245.295 109.272 242.726L107.293 228.048L110.477 146.207C110.477 146.207 113.479 140.729 88.5264 130.913L84.8438 122.067L77.2297 119.485Z" fill="black"/>
<path d="M88.4743 73.2236C88.4743 73.2236 92.5369 79.1734 93.0218 82.489C93.5067 85.8046 92.0651 89.4609 94.7648 91.8329C97.4644 94.205 98.6963 95.7645 97.6086 97.075C96.5209 98.3855 95.0793 100.089 95.0793 100.089C95.0793 100.089 96.1801 111.32 94.4371 113.692C92.6942 116.064 83.2061 113.692 83.2061 113.692V121.136" stroke="#263238" stroke-width="1.31051" stroke-linecap="round" stroke-linejoin="round"/>
<path d="M83.2058 99.5918C83.2058 99.5918 79.4053 89.7761 76.5615 92.1481C73.7177 94.5201 76.247 107.494 83.2058 104.65" stroke="#263238" stroke-width="1.31051" stroke-linecap="round" stroke-linejoin="round"/>
<path d="M82.1706 97.3116C82.1706 97.3116 86.6918 96.9446 83.8349 86.3426C80.978 75.7405 87.1636 77.169 93.8079 74.1548C100.452 71.1406 102.038 65.6102 100.61 62.2946C99.181 58.979 96.809 57.223 88.4217 58.8087C88.4217 58.8087 79.2481 48.2066 70.3891 59.9226C70.3891 59.9226 50.4431 59.6081 45.07 69.0962C39.6969 78.5843 46.8129 102.803 57.2577 110.875C67.7025 118.948 77.9114 112.487 80.0345 104.899C80.0345 104.899 72.9184 101.06 76.5616 92.2006C76.5616 92.1481 79.8772 90.9687 82.1706 97.3116Z" fill="#263238"/>
<path d="M20.3015 143.297C20.3015 143.297 68.5677 108.294 110.635 143.297L107.241 227.983L109.22 242.661C109.22 242.661 73.6525 259.317 34.1274 245.203L34.9793 227.983L20.3015 143.297Z" stroke="#263238" stroke-width="1.31051" stroke-linecap="round" stroke-linejoin="round"/>
<path d="M48.1362 130.573L56.4449 119.984C56.4449 119.984 72.7346 114.349 85.8921 122.605L88.5131 130.809" stroke="#263238" stroke-width="1.31051" stroke-linecap="round" stroke-linejoin="round"/>
<path d="M110.635 143.298L152.663 191.63" stroke="#263238" stroke-width="1.31051" stroke-linecap="round" stroke-linejoin="round"/>
<path d="M108.695 191.669C108.695 191.669 136.543 217.578 147.644 217.879C158.744 218.18 160.591 204.774 160.591 204.774L171.954 121.163L160.329 119.538L140.331 177.502" stroke="#263238" stroke-width="1.31051" stroke-linecap="round" stroke-linejoin="round"/>
<path d="M171.757 120.901C171.757 120.901 173.211 111.452 176.999 109.303C180.786 107.154 185.281 98.8188 183.84 96.4205C182.398 94.0223 177.995 101.82 174.024 103.314C170.053 104.808 166.829 112.147 166.279 115.331" stroke="#263238" stroke-width="1.31051" stroke-linecap="round" stroke-linejoin="round"/>
<path d="M182.621 96.0791C182.621 96.0791 182.621 85.1626 180.616 85.6737C178.611 86.1848 178.336 100.011 178.336 100.011" stroke="#263238" stroke-width="1.31051" stroke-linecap="round" stroke-linejoin="round"/>
<path d="M176.868 101.414C176.868 101.414 175.558 95.2934 171.954 92.3054C168.35 89.3175 166.096 90.9294 166.502 91.9385C166.908 92.9476 173.055 101.112 172.91 103.89" stroke="#263238" stroke-width="1.31051" stroke-linecap="round" stroke-linejoin="round"/>
<path d="M170.63 98.3859C170.63 98.3859 160.736 93.8515 160.709 96.5642C160.683 99.277 166.738 100.325 166.738 100.325L168.703 104.257C168.703 104.257 160.369 101.636 160.84 103.72C161.312 105.803 165.034 106.262 165.034 106.262C165.034 106.262 160.985 110.272 162.125 119.367" stroke="#263238" stroke-width="1.31051" stroke-linecap="round" stroke-linejoin="round"/>
<path d="M103.492 243.643L106.022 261.361C106.022 261.361 129.309 331.225 132.848 344.88C136.386 358.536 138.418 389.438 139.4 403.604C140.383 417.771 148.574 441.609 148.574 441.609C148.574 441.609 147.565 451.228 130.358 449.708C130.358 449.708 123.268 421.362 115.68 404.653C108.092 387.944 106.978 362.598 106.978 362.598L70.0219 294.766C70.0219 294.766 62.4602 334.265 57.3754 348.93C52.1334 364.053 16.3957 447.965 18.8988 442.081C18.8988 442.081 13.8402 445.121 3.17261 437.52C3.17261 437.52 10.7605 412.214 12.7787 398.546C14.7969 384.877 25.4382 353.49 25.4382 353.49C25.4382 353.49 27.9675 294.268 31.9908 276.039C31.9908 276.039 29.3698 255.962 34.9657 241.782C57.1456 249.026 80.952 249.673 103.492 243.643Z" fill="#263238"/>
<path d="M49.7742 282.867L66.3653 287.69L68.7766 293.574" stroke="white" stroke-width="1.31051" stroke-linecap="round" stroke-linejoin="round"/>
<path d="M130.725 447.638C130.725 447.638 128.484 458.869 130.319 461.176C131.288 462.381 134.172 462.158 135.561 462.185C138.758 462.25 141.969 462.041 145.167 461.831C151.562 461.411 158.115 461.477 164.287 459.498C169.487 457.935 174.454 455.683 179.057 452.801C181.573 451.124 179.057 448.411 179.057 448.411L148.587 441.57" stroke="#263238" stroke-width="1.31051" stroke-linecap="round" stroke-linejoin="round"/>
<path d="M130.567 457.218C130.567 457.218 164.811 462.84 179.056 448.411" stroke="#263238" stroke-width="1.31051" stroke-linecap="round" stroke-linejoin="round"/>
<path d="M4.4964 436.394C4.4964 436.394 0.564864 449.879 1.14149 454.125C1.71812 458.371 5.97729 459.367 10.9572 459.249C15.9372 459.131 17.9816 456.903 18.7155 453.535C19.4494 450.167 18.7155 439.277 18.7155 439.277" stroke="#263238" stroke-width="1.31051" stroke-linecap="round" stroke-linejoin="round"/>
<path d="M1.08911 452.067L18.7155 453.535" stroke="#263238" stroke-width="1.31051" stroke-linecap="round" stroke-linejoin="round"/>
<path d="M47.1008 46.6207C48.5948 43.8949 49.4728 42.2305 49.4728 42.2305C49.4728 42.2305 44.6108 30.4752 45.8296 29.0337C47.0484 27.5921 49.866 31.6547 49.866 31.6547C49.866 31.6547 46.9829 22.3107 48.8045 21.5113C50.6261 20.7119 53.8762 29.3744 53.8762 29.3744C53.8762 29.3744 53.0243 16.859 54.9115 16.2693C56.7986 15.6795 59.0658 28.1687 59.0658 28.1687C59.0658 28.1687 61.5033 17.0556 62.9973 16.9507C64.4913 16.8459 62.9973 39.8716 62.9973 39.8716C66.0115 41.3525 74.8706 37.7355 74.7919 40.6579C74.7133 43.5803 57.7553 50.3033 57.7553 50.3033C57.4586 50.6882 57.1997 51.1007 56.9821 51.5352" stroke="#263238" stroke-width="1.31051" stroke-linecap="round" stroke-linejoin="round"/>
<path d="M20.3008 143.298L10.603 111.872L45.2399 46.2412L57.7946 52.8069L35.6469 112.579L41.8457 132.539" stroke="#263238" stroke-width="1.31051" stroke-linecap="round" stroke-linejoin="round"/>
<path d="M21.4286 106.904C21.4286 106.904 33.8522 106.8 35.6476 112.579C30.2054 112.276 24.8143 113.768 20.3015 116.825" stroke="#263238" stroke-width="1.31051" stroke-linecap="round" stroke-linejoin="round"/>
<path d="M62.4731 118.621V109.513" stroke="#263238" stroke-width="1.31051" stroke-linecap="round" stroke-linejoin="round"/>
<path opacity="0.2" d="M110.425 168.643L113.531 189.309C113.531 189.309 116.073 175.824 117.659 175.824C119.244 175.824 117.659 191.629 117.659 191.629C117.659 191.629 143.712 215.218 154.982 215.349C154.982 215.349 148.718 219.753 142.44 216.476C136.163 213.2 108.642 191.577 108.642 191.577L110.425 168.643Z" fill="black"/>
<path opacity="0.2" d="M55.5674 51.6396L31.7423 109.512C31.7423 109.512 23.4467 109.381 20.3015 116.825L33.0397 114.544L37.3251 134.202L41.8464 132.485L35.6476 112.526L57.7953 52.7536L55.5674 51.6396Z" fill="black"/>
<path d="M383.902 153.415L374.519 133.377L337.641 157.739L368.071 211.654L391.805 198.182L383.902 153.415Z" fill="white"/>
<path d="M414.293 326.73C414.293 326.73 420.256 343.282 421.134 351.341C422.012 359.401 419.325 393.343 419.902 402.7C420.478 412.057 425.537 439.984 425.537 439.984C425.537 439.984 400.729 458.017 392.853 452.211C392.853 452.211 410.335 438.058 412.104 432.423L406.443 394.169L400.821 348.93C400.821 348.93 399.392 339.481 397.4 334.619C395.408 329.757 395.71 319.443 395.71 319.443L414.293 326.73Z" fill="white"/>
<path d="M413.769 325.262C413.769 325.262 420.217 342.692 421.724 355.207C423.231 367.723 418.697 396.108 420.191 409.777C421.685 423.446 423.218 431.007 425.865 438.202L424.555 459.314H421.16L419.85 447.336C419.85 447.336 414.529 445.121 411.305 452.788C408.081 460.454 396.169 461.464 390.521 457.021C390.521 457.021 390.521 453.587 394.767 450.56C399.013 447.533 410.1 438.071 412.118 432.423C412.118 432.423 406.063 393.107 404.648 380.369C403.233 367.631 401.018 344.474 398.187 337.004C395.356 329.534 395.369 318.854 395.369 318.854" stroke="#263238" stroke-width="1.31051" stroke-linecap="round" stroke-linejoin="round"/>
<path d="M424.568 434.244C424.568 434.244 407.937 452.329 393.98 452.211" stroke="#263238" stroke-width="1.31051" stroke-linecap="round" stroke-linejoin="round"/>
<path d="M392.853 452.212C395.16 452.468 397.495 452.176 399.668 451.36C403.429 450.049 416.967 443.497 423.624 435.228L425.669 437.547L424.594 458.83L421.174 459.315L419.863 447.337C419.863 447.337 415.486 445.332 412.668 450.259C409.851 455.187 407.819 458.568 402.892 459.655C397.964 460.743 390.534 457.034 390.534 457.034C390.534 457.034 389.236 455.082 392.853 452.212Z" fill="#263238"/>
<path d="M425.891 327.294C427.454 333.04 429.353 338.689 431.578 344.212C434.553 351.04 460.253 420.091 460.253 420.091C460.253 420.091 462.205 457.467 473.148 457.349C484.091 457.231 472.715 431.231 472.715 431.231L466.058 416.985C466.058 416.985 463.516 375.141 460.37 359.755L446.977 323.677L425.891 327.294Z" fill="white"/>
<path d="M447.121 324.883C447.121 324.883 458.117 349.9 460.384 359.755C462.651 369.61 464.931 413.945 466.071 416.985C467.212 420.026 485.401 452.225 474.406 458.673C463.411 465.121 460.816 421.533 460.816 421.533C460.816 421.533 435.432 351.027 431.631 344.213C427.831 337.398 423.676 317.675 423.676 317.675L447.121 324.883Z" stroke="#263238" stroke-width="1.31051" stroke-linecap="round" stroke-linejoin="round"/>
<path d="M476.542 442.146C476.542 442.146 475.782 450.875 472.899 452.106C470.016 453.338 463.647 443.496 463.647 443.496" stroke="#263238" stroke-width="1.31051" stroke-linecap="round" stroke-linejoin="round"/>
<path d="M463.673 445.004C463.673 445.004 467.605 459.891 472.847 459.262C478.089 458.633 479.032 450.364 476.555 443.981C476.555 443.981 475.677 450.534 472.912 452.107C470.121 452.146 463.673 445.004 463.673 445.004Z" fill="#263238"/>
<path d="M417.268 194.748C417.268 194.748 430.517 212.833 439.704 241.927C448.891 271.02 447.947 326.743 447.947 326.743C447.947 326.743 413.756 337.738 380.613 323.768L386.68 198.221C386.68 198.221 408.003 198.614 417.268 194.748Z" fill="#263238"/>
<path d="M400.152 63.5928C400.152 63.5928 389.852 73.2381 388.646 79.5548C387.651 83.9761 386.055 88.2401 383.902 92.2275C385.01 93.9042 386.634 95.174 388.528 95.8445C388.528 95.8445 389.196 108.779 392.958 109.775L401.948 107.416L402.904 112.96L415.8 108.058V100.589L425.629 94.1671L422.13 77.3794L406.141 69.9094L400.152 63.5928Z" fill="white"/>
<path d="M386.615 197.212L385.475 179.075C385.475 179.075 377.088 163.348 379.748 157.635C382.684 151.357 400.323 128.109 400.323 128.109L398.593 115.423L423.31 104.834L424.489 115.423L421.501 117.638L424.817 124.741C424.817 124.741 425.026 122.631 430.766 133.338C436.506 144.045 458.13 182.141 459.834 189.454C461.537 196.766 426.206 222.531 414.28 228.612C414.28 228.612 412.904 225.663 398.737 236.475C395.134 235.846 390.154 232.609 389.092 230.604C388.031 228.599 393.168 223.829 393.168 223.829C393.168 223.829 396.261 217.984 401.725 222.662H407.544L440.844 191.669L423.965 166.965L417.268 194.709C417.268 194.709 395.605 201.288 386.615 197.212Z" fill="white"/>
<path d="M398.593 115.423L400.362 128.384L424.489 115.423L423.309 104.834L398.593 115.423Z" stroke="#263238" stroke-width="1.31051" stroke-linecap="round" stroke-linejoin="round"/>
<path d="M400.363 128.384C400.363 128.384 378.411 155.236 379.001 160.531C379.591 165.825 385.475 179.074 385.475 179.074L386.681 198.208C386.681 198.208 404.438 198.693 417.268 194.748L423.965 167.005" stroke="#263238" stroke-width="1.31051" stroke-linecap="round" stroke-linejoin="round"/>
<path d="M440.844 191.668L406.836 140.401C406.836 140.401 403.494 128.607 411.541 124.4C419.587 120.193 426.585 125.527 429.088 128.331C431.592 131.136 458.588 183.15 459.846 189.401C461.104 195.652 432.588 220.657 416.088 227.406C416.088 227.406 408.579 231.914 408.579 222.662L440.844 191.668Z" stroke="#263238" stroke-width="1.31051" stroke-linecap="round" stroke-linejoin="round"/>
<path d="M424.489 124.741L421.304 117.14" stroke="#263238" stroke-width="1.31051" stroke-linecap="round" stroke-linejoin="round"/>
<path d="M408.579 222.715H401.738C401.738 222.715 396.405 217.945 393.875 222.715C391.346 227.485 388.148 228.429 389.105 230.657C390.062 232.884 395.54 237.327 398.75 236.528C401.961 235.728 411.017 228.363 411.017 228.363" stroke="#263238" stroke-width="1.31051" stroke-linecap="round" stroke-linejoin="round"/>
<path d="M397.688 66.9863C397.688 66.9863 389.655 74.0107 388.764 77.9029C387.873 81.7951 388.253 88.387 383.902 92.2268C383.902 92.2268 384.125 95.372 388.528 95.8438C388.528 95.8438 390.782 108.254 392.958 109.775C395.133 111.295 408.448 104.428 413.664 101.597C414.994 100.685 415.963 99.3354 416.403 97.7834" stroke="#263238" stroke-width="1.31051" stroke-linecap="round" stroke-linejoin="round"/>
<path d="M391.451 99.6318C393.914 99.2162 396.135 97.9046 397.689 95.9492" stroke="#263238" stroke-width="1.31051" stroke-linecap="round" stroke-linejoin="round"/>
<path d="M391.451 81.6769C391.451 81.6769 394.622 79.8291 396.365 82.8957" stroke="#263238" stroke-width="1.31051" stroke-linecap="round" stroke-linejoin="round"/>
<path d="M393.627 88.2692C393.627 89.3307 393.325 90.1956 392.84 90.2218C392.355 90.248 391.91 89.4093 391.857 88.3609C391.805 87.3125 392.159 86.4213 392.644 86.3951C393.129 86.3689 393.574 87.2077 393.627 88.2692Z" fill="#263238"/>
<path d="M401.948 107.416L403.009 113.536" stroke="#263238" stroke-width="1.31051" stroke-linecap="round" stroke-linejoin="round"/>
<path d="M412.249 87.4566C412.249 87.4566 414.214 83.6431 416.403 85.8709C418.591 88.0988 422.746 98.3994 411.541 95.9488C411.541 95.9488 410.794 102.239 416.403 103.812C422.012 105.384 432.666 96.7089 433.02 81.9132C433.374 67.1175 419.089 57.1314 411.541 59.9883C411.541 59.9883 400.598 42.8337 389.747 50.1463C378.896 57.459 386.209 68.7163 383.902 71.2587C381.596 73.8011 376.668 71.416 376.511 78.2437C376.354 85.0715 387.768 84.3769 387.768 84.3769L389.144 76.8546L398.593 66.9864C398.593 66.9864 396.365 74.1156 400.153 80.3143C403.573 85.8971 412.249 87.4566 412.249 87.4566Z" fill="#263238"/>
<path d="M433.02 81.9131C433.02 81.9131 438.262 83.0926 437.686 90.1824C437.109 97.2723 425.275 114.702 426.166 124.741L456.714 181.669C456.714 181.669 470.462 179.048 469.82 164.895C469.177 150.741 452.403 138.816 455.64 128.384C458.877 117.952 471.589 91.3881 453.582 76.16C435.576 60.9318 407.505 84.272 407.505 84.272L421.252 79.8425L433.02 81.9131Z" fill="#263238"/>
<path d="M382.723 152.248L374.519 133.377L337.641 157.739L368.071 211.654L386.523 201.497" stroke="#263238" stroke-width="1.31051" stroke-linecap="round" stroke-linejoin="round"/>
<path d="M349.121 184.409C349.121 184.409 347.129 180.294 349.789 178.027C352.45 175.76 361.584 169.037 361.584 170.688C361.644 171.089 361.62 171.498 361.511 171.889C361.403 172.279 361.213 172.643 360.955 172.955C358.334 176.467 352.057 182.129 352.463 182.587C352.463 182.587 363.917 174.986 365.017 175.707C365.293 175.891 365.135 176.873 364.179 177.83C361.04 180.624 357.726 183.215 354.258 185.588C354.258 185.588 366.341 180.91 367.901 181.657C368.346 181.867 368.254 182.548 366.852 183.4C363.344 185.307 359.735 187.022 356.04 188.537L359.068 193.596C359.068 193.596 353.354 194.592 349.121 184.409Z" fill="white" stroke="#263238" stroke-width="1.31051" stroke-linecap="round" stroke-linejoin="round"/>
<path d="M414.961 99.6318L415.8 108.058" stroke="#263238" stroke-width="1.31051" stroke-linejoin="round"/>
</svg>
