<svg width="777" height="777" viewBox="0 0 777 777" fill="none" xmlns="http://www.w3.org/2000/svg">
<path d="M190.8 644.288C217.467 625.64 223.527 591.064 222.471 559.968C222.3 554.778 222.859 549.308 220.404 544.739C217.948 540.17 212.167 537.078 207.521 539.269C203.667 541.087 201.989 545.563 199.829 549.277C196.937 554.216 192.715 558.244 187.645 560.901C184.351 562.61 180.264 563.667 177 561.864C172.525 559.393 171.997 553.208 172.028 548.049C172.09 538.425 172.147 528.8 172.199 519.176C172.199 514.016 172.199 508.748 170.645 503.853C169.091 498.958 165.485 494.389 160.575 492.975C155.664 491.561 149.588 494.436 148.562 499.486C148.363 501.62 148.311 503.764 148.407 505.904C148.267 508.049 147.272 510.427 145.299 511.017C143.325 511.608 141.165 510.162 139.627 508.655C134.297 503.434 130.676 496.72 127.304 490.007C123.931 483.294 120.637 476.487 115.804 470.8C110.971 465.112 104.289 460.605 96.8917 460.186C89.4947 459.766 81.6159 464.335 79.7977 471.592C77.9796 478.849 82.1754 486.262 86.7907 492.152C93.6474 500.89 101.728 508.595 110.785 515.026C112.55 515.991 113.957 517.501 114.794 519.331C115.913 522.781 112.665 526.2 109.262 527.334C105.408 528.608 101.243 528.204 97.2181 528.686C93.1932 529.168 88.8265 530.939 87.3036 534.731C85.1901 540.015 89.6035 545.609 93.9391 549.168C102.638 556.423 112.521 562.126 123.154 566.029C126.962 567.427 130.924 568.64 134.032 571.312C137.14 573.985 138.943 578.616 137.14 582.19C135.338 585.765 130.536 586.992 126.558 586.262C122.579 585.531 119.021 583.356 115.229 581.926C108.143 579.253 98.9741 579.735 94.4364 585.873C91.4372 589.898 91.1886 595.524 92.6959 600.326C94.4086 605.054 97.0505 609.392 100.466 613.084C111.717 626.585 126.344 636.864 142.859 642.874C159.316 648.577 174.561 650.116 190.924 644.133" fill="#00BFA6"/>
<path d="M87.1484 464.646C87.2901 464.834 87.4575 465.001 87.6457 465.143L89.1997 466.51C90.5517 467.707 92.5408 469.463 95.0428 471.809C102.143 478.399 108.735 485.516 114.763 493.099C118.617 497.886 122.533 503.293 126.775 509.183C131.018 515.073 135.369 521.429 139.767 528.266C144.404 535.387 148.653 542.753 152.494 550.333C154.483 554.28 156.27 558.398 158.073 562.61L163.559 575.415C170.613 591.633 176.751 608.235 181.942 625.143C186.135 638.962 189.017 653.145 190.552 667.505C191.559 677.19 191.72 686.944 191.033 696.658C190.769 700.108 190.505 702.765 190.256 704.568C190.163 705.438 190.085 706.122 190.023 706.619C190.008 706.857 190.008 707.096 190.023 707.334C190.085 707.104 190.131 706.87 190.163 706.634C190.237 705.95 190.352 705.27 190.505 704.599C190.8 702.796 191.127 700.139 191.453 696.689C192.284 686.955 192.222 677.165 191.266 667.442C189.828 653.021 187.002 638.773 182.828 624.894C177.652 607.916 171.504 591.251 164.413 574.979L158.928 562.175C157.109 557.963 155.322 553.798 153.318 549.836C149.449 542.239 145.164 534.862 140.482 527.738C136.053 520.885 131.608 514.56 127.413 508.67C123.217 502.781 119.161 497.388 115.276 492.618C109.179 485.055 102.491 477.988 95.2759 471.483C92.7273 469.183 90.7071 467.458 89.3085 466.324L87.7545 465.018L87.1484 464.646Z" fill="#263238"/>
<path d="M153.037 549.821C153.285 549.105 153.456 548.366 153.55 547.614C153.814 546.184 154.141 544.118 154.498 541.538C155.228 536.41 156.052 529.277 156.814 521.336C157.575 513.395 158.492 506.371 159.3 501.258C159.688 498.694 160.03 496.596 160.294 495.198C160.473 494.465 160.567 493.714 160.574 492.96C160.292 493.657 160.078 494.381 159.937 495.12C159.564 496.534 159.113 498.585 158.647 501.134C157.653 506.247 156.689 513.364 155.866 521.243C155.042 529.122 154.312 536.021 153.83 541.445C153.581 543.869 153.364 545.905 153.177 547.552C153.053 548.301 153.006 549.062 153.037 549.821Z" fill="#263238"/>
<path d="M86.6665 537.42C87.5363 537.601 88.4203 537.705 89.3083 537.731C91.0177 537.886 93.4886 538.088 96.5189 538.445C102.595 539.098 110.971 540.295 120.14 542.02C129.308 543.744 137.544 545.703 143.45 547.272C146.418 548.034 148.795 548.717 150.458 549.183C151.297 549.472 152.161 549.685 153.038 549.821C152.25 549.406 151.422 549.072 150.567 548.826C149.013 548.251 146.589 547.474 143.636 546.619C137.746 544.879 129.51 542.828 120.326 541.087C112.479 539.568 104.559 538.458 96.5966 537.762C93.4886 537.497 91.0643 537.389 89.3549 537.358C88.4593 537.277 87.5575 537.298 86.6665 537.42Z" fill="#263238"/>
<path d="M181.958 623.573C182.148 623.328 182.3 623.056 182.409 622.765L183.543 620.372C184.522 618.274 185.859 615.213 187.459 611.421C190.66 603.807 194.747 593.162 199.114 581.367C203.481 569.572 207.459 558.88 210.489 551.235L214.126 542.159C214.514 541.18 214.825 540.357 215.089 539.689C215.229 539.41 215.323 539.111 215.369 538.803C215.179 539.048 215.027 539.32 214.918 539.611L213.784 542.02C212.805 544.102 211.468 547.163 209.868 550.971C206.667 558.57 202.58 569.215 198.213 581.025C193.846 592.835 189.868 603.496 186.838 611.157L183.201 620.217L182.238 622.688C182.098 622.966 182.004 623.265 181.958 623.573Z" fill="#263238"/>
<path d="M93.7524 595.182C94.0253 595.339 94.318 595.459 94.6227 595.539L97.1868 596.394L106.635 599.502C114.607 602.097 125.578 605.718 137.715 609.898C149.852 614.078 160.854 617.668 168.888 620.03C172.913 621.242 176.161 622.19 178.43 622.796L181.041 623.48C181.343 623.576 181.656 623.633 181.973 623.651C181.695 623.494 181.397 623.373 181.087 623.293L178.539 622.439L169.09 619.331C161.118 616.736 150.147 613.115 138.01 608.935C125.874 604.754 114.871 601.165 106.93 598.818C102.905 597.606 99.6576 596.658 97.3888 596.036L94.7936 595.353C94.4561 595.248 94.1057 595.19 93.7524 595.182Z" fill="#263238"/>
<path d="M444.195 630.209L271.701 629.417C266.769 629.394 261.889 628.4 257.34 626.492C252.792 624.584 248.664 621.798 245.192 618.295C241.72 614.791 238.972 610.638 237.105 606.072C235.239 601.507 234.289 596.618 234.312 591.685L236.208 159.269C236.257 149.305 240.261 139.768 247.339 132.754C254.417 125.74 263.99 121.823 273.954 121.865L446.448 122.657C456.411 122.702 465.949 126.703 472.963 133.778C479.977 140.854 483.895 150.425 483.853 160.388L482.02 592.804C482.001 597.737 481.011 602.618 479.105 607.169C477.199 611.719 474.416 615.849 470.913 619.323C467.411 622.796 463.258 625.546 458.692 627.414C454.126 629.282 449.237 630.232 444.304 630.209H444.195Z" fill="#263238"/>
<path d="M446.122 137.591L412.695 137.436C411.606 137.454 410.53 137.687 409.53 138.121C408.53 138.555 407.626 139.181 406.868 139.965C406.111 140.749 405.515 141.674 405.115 142.688C404.715 143.702 404.518 144.784 404.537 145.874V151.95C404.574 154.153 403.736 156.28 402.207 157.865C400.677 159.45 398.581 160.363 396.379 160.404L331.204 160.093C329.003 160.032 326.915 159.102 325.398 157.506C323.881 155.91 323.057 153.779 323.107 151.577V145.501C323.162 143.301 322.342 141.17 320.827 139.573C319.312 137.977 317.226 137.046 315.027 136.985H303.263L274.001 136.752C270.546 136.738 267.122 137.404 263.925 138.713C260.727 140.022 257.819 141.948 255.366 144.381C252.913 146.814 250.963 149.706 249.627 152.893C248.292 156.079 247.597 159.498 247.583 162.953L245.796 585.019C245.796 591.985 248.547 598.67 253.451 603.617C258.355 608.565 265.015 611.376 271.981 611.437L444.117 612.23C451.094 612.254 457.795 609.509 462.748 604.596C467.702 599.684 470.502 593.005 470.535 586.029L472.322 163.963C472.339 156.993 469.589 150.302 464.677 145.357C459.765 140.413 453.092 137.62 446.122 137.591Z" fill="white"/>
<path d="M407.024 346.324H296.162V453.115H407.024V346.324Z" fill="#00BFA6"/>
<path d="M326.728 316.565L296.146 346.325H407.008L428.204 316.565H326.728Z" fill="#00BFA6"/>
<path opacity="0.1" d="M326.728 316.565L296.146 346.325H407.008L428.204 316.565H326.728Z" fill="black"/>
<path d="M407.008 453.1L428.205 422.952V316.565L407.008 346.325V453.1Z" fill="#00BFA6"/>
<path opacity="0.3" d="M407.008 453.1L428.205 422.952V316.565L407.008 346.325V453.1Z" fill="black"/>
<path d="M378.01 390.66H320.139V397.218H378.01V390.66Z" fill="#00BFA6"/>
<path opacity="0.2" d="M378.01 390.66H320.139V397.218H378.01V390.66Z" fill="black"/>
<path d="M367.552 402.128H330.613V408.313H367.552V402.128Z" fill="#00BFA6"/>
<path opacity="0.2" d="M367.552 402.128H330.613V408.313H367.552V402.128Z" fill="black"/>
<path d="M318.756 312.354C318.612 311.006 318.389 309.667 318.088 308.345C317.124 304.759 314.985 301.601 312.012 299.378C309.994 297.843 307.639 296.809 305.143 296.363C302.283 295.854 299.34 296.111 296.612 297.109C295.135 297.628 293.75 298.378 292.509 299.331C291.193 300.292 290.039 301.457 289.09 302.781C287.04 305.555 285.933 308.913 285.933 312.362C285.933 315.811 287.04 319.169 289.09 321.942C290.984 324.532 293.6 326.506 296.612 327.614C299.168 328.548 301.917 328.828 304.609 328.429C307.302 328.03 309.852 326.965 312.027 325.33C314.992 323.108 317.125 319.956 318.088 316.379C318.389 315.051 318.612 313.707 318.756 312.354C318.864 313.732 318.743 315.118 318.399 316.456C317.53 320.165 315.405 323.46 312.385 325.78C309.138 328.275 305.098 329.512 301.01 329.262C296.923 329.013 293.064 327.293 290.144 324.421C287.225 321.549 285.443 317.719 285.126 313.636C284.81 309.553 285.98 305.494 288.422 302.206C290.319 299.627 292.909 297.639 295.891 296.472C298.872 295.306 302.124 295.009 305.267 295.617C308.434 296.227 311.357 297.737 313.687 299.967C316.016 302.197 317.652 305.052 318.399 308.189C318.75 309.548 318.871 310.955 318.756 312.354Z" fill="#263238"/>
<path d="M294.7 310.054C294.7 307.723 296.005 306.169 297.932 306.169C299.859 306.169 301.165 307.723 301.165 310.054C301.165 312.385 299.828 313.939 297.932 313.939C297.459 313.913 296.996 313.79 296.572 313.576C296.148 313.363 295.773 313.065 295.47 312.701C295.166 312.336 294.942 311.913 294.809 311.458C294.677 311.002 294.64 310.524 294.7 310.054ZM300.139 310.054C300.139 308.189 299.253 307.086 297.932 307.086C296.612 307.086 295.726 308.205 295.726 310.054C295.726 311.903 296.58 313.007 297.932 313.007C299.284 313.007 300.139 311.903 300.139 310.054ZM306.588 306.262H307.8L298.026 320.575H296.814L306.588 306.262ZM303.48 316.798C303.48 314.467 304.817 312.913 306.713 312.913C308.608 312.913 309.945 314.467 309.945 316.798C309.945 319.129 308.639 320.683 306.713 320.683C304.786 320.683 303.465 319.129 303.465 316.798H303.48ZM308.919 316.798C308.919 314.949 308.064 313.83 306.713 313.83C305.361 313.83 304.506 314.933 304.506 316.798C304.506 318.663 305.392 319.751 306.713 319.751C308.033 319.751 308.904 318.57 308.904 316.798H308.919Z" fill="#263238"/>
<path d="M389.603 489.231C389.603 492.339 387.35 494.98 382.377 494.98C380.035 495.025 377.731 494.377 375.757 493.116L377.311 490.008C378.753 491.033 380.483 491.577 382.253 491.562C384.257 491.562 385.5 490.722 385.5 489.308C385.5 487.894 384.615 487.039 381.46 487.039H377.016L377.917 477.28H388.5V480.497H381.258L380.994 483.792H382.408C387.567 483.838 389.603 486.154 389.603 489.231Z" fill="#263238"/>
<path d="M391.234 485.998C391.234 480.263 394.42 477.016 398.678 477.016C402.936 477.016 406.122 480.263 406.122 485.998C406.122 491.732 403.014 494.98 398.678 494.98C394.342 494.98 391.234 491.732 391.234 485.998ZM402.112 485.998C402.112 482.051 400.729 480.419 398.709 480.419C396.689 480.419 395.337 482.051 395.337 485.998C395.337 489.945 396.736 491.577 398.709 491.577C400.683 491.577 402.081 489.945 402.081 485.998H402.112Z" fill="#263238"/>
<path d="M416.472 481.118C416.572 482.023 416.309 482.93 415.741 483.641C415.173 484.352 414.346 484.809 413.441 484.91C413.25 484.926 413.058 484.926 412.866 484.91C412.183 484.925 411.507 484.758 410.908 484.428L411.514 483.232C411.913 483.482 412.381 483.601 412.851 483.574C413.347 483.603 413.835 483.435 414.208 483.106C414.581 482.777 414.808 482.314 414.84 481.818C414.855 481.72 414.855 481.62 414.84 481.522C414.357 481.96 413.72 482.189 413.068 482.159C412.775 482.185 412.48 482.153 412.2 482.064C411.92 481.976 411.659 481.833 411.434 481.644C411.209 481.455 411.024 481.223 410.888 480.962C410.752 480.702 410.669 480.417 410.644 480.124V479.953C410.652 479.634 410.723 479.321 410.852 479.03C410.981 478.739 411.167 478.476 411.398 478.257C411.629 478.037 411.901 477.865 412.198 477.751C412.495 477.637 412.812 477.582 413.13 477.591H413.364C415.322 477.622 416.472 478.834 416.472 481.118ZM414.653 479.891C414.645 479.603 414.525 479.331 414.319 479.13C414.113 478.93 413.837 478.818 413.55 478.818H413.364C413.223 478.79 413.078 478.79 412.937 478.819C412.796 478.848 412.663 478.904 412.544 478.986C412.426 479.067 412.325 479.171 412.248 479.292C412.17 479.414 412.118 479.549 412.094 479.691C412.07 479.832 412.075 479.977 412.108 480.117C412.141 480.257 412.202 480.389 412.287 480.504C412.372 480.62 412.48 480.718 412.603 480.791C412.727 480.864 412.864 480.912 413.006 480.932H413.364C413.504 480.956 413.649 480.953 413.788 480.922C413.928 480.89 414.06 480.832 414.176 480.75C414.293 480.668 414.393 480.563 414.469 480.442C414.546 480.321 414.598 480.187 414.622 480.046C414.63 479.989 414.63 479.932 414.622 479.875L414.653 479.891Z" fill="#263238"/>
<path d="M422.953 481.119C423.053 482.023 422.79 482.931 422.222 483.642C421.654 484.352 420.827 484.809 419.922 484.91C419.731 484.926 419.539 484.926 419.347 484.91C418.664 484.925 417.988 484.759 417.389 484.429L418.026 483.294C418.419 483.546 418.882 483.666 419.347 483.636C419.592 483.655 419.837 483.625 420.07 483.549C420.302 483.472 420.517 483.35 420.703 483.19C420.888 483.029 421.039 482.833 421.148 482.614C421.257 482.394 421.321 482.156 421.336 481.911C421.352 481.803 421.352 481.693 421.336 481.585C421.103 481.806 420.827 481.976 420.525 482.086C420.222 482.195 419.901 482.242 419.58 482.222C419.286 482.248 418.988 482.215 418.706 482.126C418.424 482.036 418.162 481.892 417.936 481.702C417.709 481.511 417.522 481.278 417.386 481.015C417.249 480.753 417.166 480.466 417.141 480.171V480.015C417.149 479.697 417.219 479.383 417.349 479.092C417.478 478.801 417.663 478.538 417.894 478.319C418.125 478.1 418.397 477.928 418.694 477.814C418.992 477.699 419.309 477.645 419.627 477.653H419.829C421.756 477.622 422.953 478.834 422.953 481.119ZM421.119 479.891C421.111 479.604 420.991 479.331 420.785 479.131C420.579 478.931 420.303 478.819 420.016 478.819H419.891C419.611 478.819 419.342 478.93 419.144 479.128C418.946 479.326 418.834 479.595 418.834 479.875C418.834 480.156 418.946 480.424 419.144 480.623C419.342 480.821 419.611 480.932 419.891 480.932C420.032 480.954 420.176 480.948 420.315 480.913C420.453 480.879 420.583 480.817 420.698 480.732C420.812 480.646 420.908 480.539 420.981 480.416C421.053 480.293 421.1 480.157 421.119 480.015C421.126 479.969 421.126 479.922 421.119 479.875V479.891Z" fill="#263238"/>
<path d="M422.89 487.35H410.489V488.919H422.89V487.35Z" fill="#263238"/>
<path d="M352.37 482.408H288.345V484.397H352.37V482.408Z" fill="#263238"/>
<path d="M327.21 488.748H288.345V490.737H327.21V488.748Z" fill="#263238"/>
<path d="M426.091 570.753L298.088 570.162C296.767 570.162 295.695 568.702 295.711 566.93L295.85 533.441C295.85 531.67 296.938 530.24 298.259 530.24L426.262 530.846C427.583 530.846 428.655 532.292 428.655 534.063L428.515 567.552C428.5 569.323 427.428 570.753 426.091 570.753Z" fill="#00BFA6"/>
<path d="M356.876 551.997C356.876 553.706 355.664 554.67 353.271 554.654H348.857V544.631H353.007C355.136 544.631 356.363 545.594 356.363 547.226C356.381 547.721 356.239 548.208 355.96 548.616C355.68 549.024 355.277 549.332 354.809 549.495C355.407 549.573 355.952 549.874 356.336 550.338C356.72 550.803 356.913 551.396 356.876 551.997ZM355.866 551.904C355.866 550.598 354.965 550.023 353.271 550.023H349.883V553.784H353.271C354.949 553.799 355.866 553.224 355.866 551.904ZM349.899 545.454V549.091H353.007C354.561 549.091 355.431 548.485 355.446 547.288C355.462 546.092 354.561 545.47 353.022 545.454H349.899Z" fill="white"/>
<path d="M359.129 550.395V544.661H360.139V550.364C360.139 552.742 361.196 553.83 363.061 553.845C364.925 553.861 366.013 552.773 366.013 550.395V544.692H366.992V550.442C366.992 553.317 365.438 554.793 363.045 554.793C360.652 554.793 359.113 553.224 359.129 550.395Z" fill="white"/>
<path d="M373.209 551.282V554.778H372.214V551.313L368.407 544.739H369.479L372.758 550.38L376.068 544.77H377.078L373.209 551.282Z" fill="white"/>
<path d="M320.217 231.312H271.826V256.021H320.217V231.312Z" fill="#00BFA6"/>
<path d="M282.269 222.657L271.826 231.313H320.217L327.35 222.657H282.269Z" fill="#00BFA6"/>
<path opacity="0.2" d="M282.269 222.657L271.826 231.313H320.217L327.35 222.657H282.269Z" fill="black"/>
<path d="M320.217 256.022L327.35 246.604V222.657L320.217 231.313V256.022Z" fill="#00BFA6"/>
<path opacity="0.1" d="M320.217 256.022L327.35 246.604V222.657L320.217 231.313V256.022Z" fill="black"/>
<path d="M311.981 239.347H278.99V241.895H311.981V239.347Z" fill="#00BFA6"/>
<path opacity="0.1" d="M311.981 239.347H278.99V241.895H311.981V239.347Z" fill="black"/>
<path d="M305.998 243.947H285.517V246.496H305.998V243.947Z" fill="#00BFA6"/>
<path opacity="0.1" d="M305.998 243.947H285.517V246.496H305.998V243.947Z" fill="black"/>
<path d="M307.568 269.339H285.517V272.711H307.568V269.339Z" fill="#263238"/>
<path d="M271.826 231.313C272.602 231.199 273.387 231.147 274.172 231.158L280.559 231.018C285.952 231.018 293.411 230.909 301.631 230.909L320.279 231.002L320.031 231.111L325.345 224.895C325.973 224.099 326.664 223.356 327.412 222.673C326.889 223.542 326.291 224.363 325.625 225.128L320.466 231.546L320.373 231.655H320.217L301.569 231.748C293.349 231.748 285.889 231.748 280.497 231.624L274.11 231.5C273.344 231.515 272.579 231.453 271.826 231.313Z" fill="#00BFA6"/>
<g opacity="0.2">
<path d="M271.826 231.313C272.602 231.199 273.387 231.147 274.172 231.158L280.559 231.018C285.952 231.018 293.411 230.909 301.631 230.909L320.279 231.002L320.031 231.111L325.345 224.895C325.973 224.099 326.664 223.356 327.412 222.673C326.889 223.542 326.291 224.363 325.625 225.128L320.466 231.546L320.373 231.655H320.217L301.569 231.748C293.349 231.748 285.889 231.748 280.497 231.624L274.11 231.5C273.344 231.515 272.579 231.453 271.826 231.313Z" fill="black"/>
</g>
<path d="M320.217 256.022C319.811 251.917 319.676 247.79 319.813 243.667C319.668 239.519 319.803 235.366 320.217 231.235C320.637 235.365 320.777 239.519 320.637 243.667C320.777 247.79 320.637 251.918 320.217 256.022Z" fill="#00BFA6"/>
<g opacity="0.2">
<path d="M320.217 256.022C319.811 251.917 319.676 247.79 319.813 243.667C319.668 239.519 319.803 235.366 320.217 231.235C320.637 235.365 320.777 239.519 320.637 243.667C320.777 247.79 320.637 251.918 320.217 256.022Z" fill="black"/>
</g>
<path d="M376.596 269.339H354.544V272.711H376.596V269.339Z" fill="#263238"/>
<path d="M347.544 217.61L347.223 255.868L381.923 256.159L382.243 217.901L347.544 217.61Z" fill="#00BFA6"/>
<path d="M357.653 209.898L347.413 217.762H382.113L389.246 209.898H357.653Z" fill="#00BFA6"/>
<path d="M382.113 256.021L389.246 246.604V209.898L382.113 217.762V256.021Z" fill="#00BFA6"/>
<path d="M372.478 233.225H354.934V235.773H372.478V233.225Z" fill="#00BFA6"/>
<path opacity="0.2" d="M372.478 233.225H354.934V235.773H372.478V233.225Z" fill="black"/>
<path d="M369.308 237.84H358.414V240.388H369.308V237.84Z" fill="#00BFA6"/>
<path opacity="0.2" d="M369.308 237.84H358.414V240.388H369.308V237.84Z" fill="black"/>
<path d="M347.413 217.762C348.001 217.648 348.6 217.596 349.2 217.607L354.048 217.467C358.151 217.389 363.807 217.343 370.07 217.343H382.113L381.849 217.451C384.025 215.105 385.843 213.178 387.133 211.841C387.767 211.098 388.475 210.422 389.246 209.821C388.716 210.641 388.113 211.411 387.444 212.121C386.232 213.535 384.491 215.524 382.378 217.918L382.269 218.042H370.07C363.854 218.042 358.151 218.042 354.048 217.918L349.2 217.793C348.605 217.853 348.005 217.842 347.413 217.762Z" fill="#00BFA6"/>
<g opacity="0.3">
<path d="M347.413 217.762C348.001 217.648 348.6 217.596 349.2 217.607L354.048 217.467C358.151 217.389 363.807 217.343 370.07 217.343H382.113L381.849 217.451C384.025 215.105 385.843 213.178 387.133 211.841C387.767 211.098 388.475 210.422 389.246 209.821C388.716 210.641 388.113 211.411 387.444 212.121C386.232 213.535 384.491 215.524 382.378 217.918L382.269 218.042H370.07C363.854 218.042 358.151 218.042 354.048 217.918L349.2 217.793C348.605 217.853 348.005 217.842 347.413 217.762Z" fill="black"/>
</g>
<path d="M382.113 256.021C381.88 256.021 381.693 247.459 381.693 236.891C381.693 226.324 381.88 217.762 382.113 217.762C382.346 217.762 382.533 226.324 382.533 236.891C382.533 247.459 382.284 256.021 382.113 256.021Z" fill="#00BFA6"/>
<g opacity="0.3">
<path d="M382.113 256.021C381.88 256.021 381.694 247.459 381.694 236.891C381.694 226.324 381.88 217.762 382.113 217.762C382.347 217.762 382.533 226.324 382.533 236.891C382.533 247.459 382.284 256.021 382.113 256.021Z" fill="black"/>
</g>
<path d="M438.041 269.339H415.99V272.711H438.041V269.339Z" fill="#263238"/>
<path d="M411.266 231.949C413.067 231.696 414.887 231.597 416.705 231.654C420.077 231.654 424.724 231.53 429.867 231.53C434.421 231.53 438.601 231.53 441.771 231.623L441.538 231.732C442.952 230.178 444.102 229.028 444.926 228.204C445.314 227.741 445.763 227.333 446.262 226.992C445.969 227.518 445.608 228.004 445.19 228.437C444.46 229.339 443.372 230.613 442.082 232.151L441.989 232.26H441.833C438.725 232.26 434.483 232.353 429.93 232.353C424.786 232.353 420.139 232.353 416.767 232.229C414.929 232.276 413.09 232.182 411.266 231.949Z" fill="#00BFA6"/>
<path d="M441.787 231.95H411.266V256.037H441.787V231.95Z" fill="#00BFA6"/>
<path opacity="0.2" d="M441.787 231.95H411.266V256.037H441.787V231.95Z" fill="black"/>
<path d="M417.715 226.992L411.266 231.934H441.787L446.262 226.992H417.715Z" fill="#00BFA6"/>
<path d="M441.787 256.021L446.262 250.1V226.992L441.787 231.934V256.021Z" fill="#00BFA6"/>
<path opacity="0.1" d="M441.787 256.021L446.262 250.1V226.992L441.787 231.934V256.021Z" fill="black"/>
<path d="M433.876 241.134H419.906V242.999H433.876V241.134Z" fill="#00BFA6"/>
<path d="M431.344 244.521H422.672V246.386H431.344V244.521Z" fill="#00BFA6"/>
<path d="M441.786 256.022C441.356 252.023 441.206 247.998 441.336 243.978C441.196 239.964 441.336 235.945 441.755 231.95C442.154 235.946 442.289 239.964 442.159 243.978C442.299 247.997 442.175 252.02 441.786 256.022Z" fill="#00BFA6"/>
<path d="M485.345 115.897L482.174 121.678L476.394 124.833L482.174 128.003L485.345 133.768L488.499 128.003L494.28 124.833L488.499 121.678L485.345 115.897Z" fill="#00BFA6"/>
<path d="M214.996 264.6L211.826 270.38L206.045 273.535L211.826 276.69L214.996 282.471L218.151 276.69L223.931 273.535L218.151 270.38L214.996 264.6Z" fill="#00BFA6"/>
<path d="M508.375 140.42L506.433 143.963L502.89 145.906L506.433 147.848L508.375 151.407L510.333 147.848L513.876 145.906L510.333 143.963L508.375 140.42Z" fill="#00BFA6"/>
<path d="M197.653 231.375L195.711 234.918L192.167 236.861L195.711 238.803L197.653 242.362L199.596 238.803L203.139 236.861L199.596 234.918L197.653 231.375Z" fill="#00BFA6"/>
<path d="M636.659 635.586L625.221 626.588L641.927 605.065L658.788 618.041L657.84 619.44C653.566 625.656 635.649 650.644 631.422 653.628C626.573 657.124 636.659 635.586 636.659 635.586Z" fill="#00BFA6"/>
<path d="M629.915 653.426C629.712 653.27 635.851 645.127 643.621 635.244C651.391 625.36 657.855 617.482 658.057 617.637C658.259 617.792 652.121 625.935 644.351 635.819C636.581 645.702 630.117 653.581 629.915 653.426Z" fill="#263238"/>
<path d="M638.695 637.855C638.695 638.103 637.902 638.197 637.032 638.197C636.162 638.197 635.4 638.072 635.369 637.824C635.338 637.575 636.068 637.249 637.032 637.264C637.995 637.28 638.695 637.606 638.695 637.855Z" fill="#263238"/>
<path d="M638.368 639.812C638.291 640.061 637.467 640.045 636.503 639.905C635.54 639.765 634.732 639.579 634.732 639.33C634.732 639.082 635.587 638.849 636.628 638.988C637.669 639.128 638.446 639.563 638.368 639.812Z" fill="#263238"/>
<path d="M652.898 624.024C652.773 624.024 652.509 623.573 652.198 622.734C651.78 621.611 651.575 620.42 651.592 619.222C651.608 617.969 652.059 616.761 652.867 615.803C653.504 615.088 654.094 614.917 654.156 615.026C654.219 615.135 653.815 615.492 653.395 616.192C652.846 617.137 652.547 618.207 652.525 619.3C652.527 620.41 652.631 621.518 652.836 622.61C652.975 623.433 653.022 623.993 652.898 624.024Z" fill="#263238"/>
<path d="M636.487 636.223C636.394 635.99 636.86 635.57 637.467 635.182C638.073 634.793 638.663 634.545 638.834 634.731C639.005 634.918 638.663 635.524 637.979 635.974C637.296 636.425 636.581 636.472 636.487 636.223Z" fill="#263238"/>
<path d="M635.587 635.026C635.401 634.839 635.696 634.14 636.24 633.472C636.784 632.804 637.421 632.338 637.638 632.493C637.856 632.648 637.545 633.332 636.97 634.047C636.395 634.762 635.836 635.197 635.587 635.026Z" fill="#263238"/>
<path d="M560.886 450.66C560.886 450.66 526.698 541.32 531.36 558.259C536.022 575.198 627.987 642.455 627.987 642.455L652.96 606.495C652.96 606.495 581.197 549.697 580.963 546.573C580.73 543.449 609.464 468.112 609.464 468.112L560.886 450.66Z" fill="#263238"/>
<path d="M626.402 614.809L626.076 614.638C625.843 614.467 625.547 614.281 625.174 614.048L621.756 611.701C618.819 609.634 614.561 606.62 609.324 602.797C598.974 595.151 584.91 584.242 569.992 571.468C566.262 568.267 562.642 565.112 559.114 562.051L554.032 557.498C552.297 556.104 550.815 554.422 549.65 552.525C548.691 550.571 548.465 548.338 549.013 546.231C549.401 544.227 549.914 542.346 550.396 540.497C551.375 536.845 552.354 533.457 553.24 530.365L557.498 515.742C557.964 514.063 558.337 512.727 558.617 511.748L558.896 510.707C558.848 510.692 558.807 510.66 558.781 510.617C558.756 510.574 558.747 510.523 558.757 510.474C558.769 510.424 558.8 510.382 558.844 510.356C558.888 510.329 558.94 510.321 558.99 510.334C559.039 510.346 559.082 510.378 559.108 510.421C559.134 510.465 559.142 510.517 559.129 510.567C559.122 510.601 559.104 510.632 559.08 510.657C559.055 510.682 559.024 510.699 558.99 510.707C558.948 511.065 558.876 511.418 558.772 511.764C558.57 512.68 558.259 514.048 557.809 515.788C556.923 519.285 555.54 524.304 553.815 530.505C552.96 533.613 552.012 536.985 551.064 540.652C550.598 542.471 550.101 544.382 549.728 546.325C549.233 548.272 549.447 550.333 550.334 552.136C551.466 553.943 552.895 555.545 554.561 556.876L559.658 561.398C563.123 564.506 566.744 567.614 570.536 570.8C585.439 583.558 599.425 594.53 609.681 602.284L621.896 611.406L625.221 613.877L626.076 614.53C626.262 614.716 626.418 614.809 626.402 614.809Z" fill="#455A64"/>
<path d="M618.073 625.764C617.886 625.624 622.626 619.082 628.655 611.157C634.685 603.231 639.735 596.906 639.922 597.046C640.108 597.186 635.353 603.728 629.324 611.669C623.294 619.61 618.259 625.904 618.073 625.764Z" fill="#455A64"/>
<path d="M621.15 278.259C624.258 284.35 625.812 289.634 631.841 292.773C634.561 294.203 637.886 295.011 639.611 297.591C641.399 300.419 640.559 304.506 642.813 306.915C646.107 310.504 652.82 307.598 656.503 310.753C659.798 313.581 658.741 319.642 662.3 322.128C664.289 323.542 666.962 323.232 669.293 324.102C673.022 325.547 674.794 329.852 675.276 333.814C675.789 336.995 675.385 340.257 674.11 343.216C673.459 344.684 672.448 345.964 671.172 346.939C669.895 347.914 668.394 348.552 666.806 348.795C662.564 349.246 657.778 346.324 654.374 348.795C653.268 349.82 652.306 350.991 651.515 352.276C650.648 353.378 649.572 354.299 648.349 354.985C647.126 355.672 645.78 356.11 644.387 356.276C642.995 356.442 641.583 356.332 640.233 355.952C638.883 355.573 637.621 354.931 636.519 354.063C635.525 353.267 634.682 352.299 634.033 351.204C631.67 347.256 631.826 341.88 628.36 338.772C626.395 337.39 624.193 336.379 621.865 335.788C619.611 334.949 617.28 333.55 616.612 331.25C615.836 329.216 614.733 327.321 613.349 325.64C611.624 323.061 609.324 326.215 607.024 324.941C604.724 323.667 605.61 321.18 605.47 318.57" fill="#263238"/>
<path d="M580.948 366.34L551.422 356.472C551.422 356.472 538.384 394.016 534.328 394.389C512.199 396.409 488.516 389.059 480.218 386.169C479.363 385.221 478.4 384.086 477.327 382.688C476.414 381.489 475.709 380.144 475.245 378.709C474.604 376.948 474.207 375.108 474.064 373.239C474.107 372.782 473.968 372.327 473.677 371.971C473.386 371.616 472.967 371.391 472.51 371.343C472.25 371.323 471.989 371.36 471.744 371.451C471.5 371.542 471.279 371.686 471.096 371.872C470.148 373.115 469.899 377.855 472.075 382.967C474.25 388.08 466.527 384.009 463.683 382.579C460.839 381.149 451.842 377.14 450.707 377.668C449.044 378.445 449.573 380.357 452.448 381.724C455.323 383.092 463.652 387.769 462.813 389.23C461.974 390.691 447.63 383.2 447.63 383.2C447.63 383.2 444.802 381.118 443.792 382.781C441.974 385.78 457.778 392.587 459.332 393.193C460.404 393.628 459.565 395.244 458.446 394.747C457.327 394.249 444.46 386.977 442.533 390.085C441.072 392.416 455.525 395.819 457.389 398.818C459.254 401.817 446.698 395.135 445.408 397.42C444.926 398.259 444.678 398.974 452.448 401.771C458.142 403.544 463.926 405.017 469.775 406.184V406.262C469.775 406.262 547.382 440.978 564.134 407.521C581.849 371.903 580.948 366.34 580.948 366.34Z" fill="#E5BAAB"/>
<path d="M610.116 335.244L622.999 335.477L633.224 364.801L624.895 398.399C622.455 408.204 633.52 427.847 633.224 438.678L560.994 450.38L559.44 402.128V400.574L534.437 388.142L542.688 367.94C555.384 338.197 577.56 336.394 577.56 336.394L610.116 335.244Z" fill="#00BFA6"/>
<g opacity="0.2">
<path d="M610.116 335.244L622.999 335.477L633.224 364.801L624.895 398.399C622.455 408.204 633.52 427.847 633.224 438.678L560.994 450.38L559.44 402.128V400.574L534.437 388.142L542.688 367.94C555.384 338.197 577.56 336.394 577.56 336.394L610.116 335.244Z" fill="white"/>
</g>
<path d="M623.528 335.555C623.376 335.577 623.232 335.636 623.108 335.726C622.695 335.866 622.275 335.986 621.849 336.083C620.197 336.381 618.524 336.547 616.845 336.58L617.001 336.285L621.927 344.288L622.269 344.817L621.632 344.708C618.779 344.211 615.87 344.117 612.991 344.428L613.287 344.055C613.395 347.339 613.864 350.602 614.685 353.783L614.903 354.436L614.219 354.28C610.938 353.579 607.773 352.418 604.817 350.831L605.423 350.566C604.833 353.457 604.227 356.487 603.605 359.58L603.465 360.248L602.937 359.828C601.634 358.789 600.394 357.673 599.223 356.487C598.067 355.331 596.983 354.106 595.975 352.82L596.566 352.897L588.298 359.409L587.786 359.813L587.646 359.176C587.055 356.301 586.496 353.503 585.952 350.831L586.449 351.11L577.607 354.218L577.001 354.436L577.172 353.814C578.104 350.287 578.959 347.085 579.736 344.242L579.953 344.583L572.277 343.263H571.966L572.137 342.998L575.493 338.088L576.395 336.829C576.597 336.549 576.721 336.409 576.737 336.425C576.752 336.44 576.581 336.736 576.488 336.891L575.68 338.197L572.494 343.216L572.354 342.905L580.047 344.071H580.357V344.381L577.902 353.985L577.467 353.566L586.263 350.458L586.682 350.302L586.775 350.737L588.516 359.082L587.863 358.849L596.115 352.307L596.441 352.043L596.706 352.369C597.671 353.595 598.709 354.763 599.814 355.865C600.962 357.027 602.176 358.122 603.45 359.144L602.797 359.393C603.419 356.285 604.04 353.27 604.631 350.38L604.74 349.82L605.237 350.116C608.12 351.668 611.206 352.809 614.406 353.503L613.955 353.985C613.137 350.752 612.689 347.436 612.618 344.102V343.76H612.96C615.906 343.461 618.879 343.592 621.787 344.148L621.492 344.583C619.611 341.475 618.011 338.678 616.705 336.487L616.55 336.207H616.861C618.529 336.22 620.196 336.116 621.849 335.897C622.402 335.754 622.963 335.639 623.528 335.555Z" fill="#455A64"/>
<path d="M637.794 347.878C637.289 347.664 636.77 347.488 636.24 347.35C634.748 346.936 633.176 346.91 631.671 347.272L631.795 347.101C632.09 348.811 632.557 350.862 633.194 353.209C633.831 355.555 634.608 358.213 635.307 361.212L635.416 361.647L634.965 361.523C631.282 360.45 626.947 359.642 622.393 358.104L622.813 357.762C623.295 362.191 623.264 367.086 623.528 372.37V372.82H623.062C618.911 372.1 614.829 371.024 610.863 369.603C610.365 369.464 609.79 369.262 609.651 369.479C609.339 369.854 609.107 370.287 608.967 370.753L607.677 373.861C606.822 375.959 605.937 378.088 605.051 380.233L604.787 380.885L604.351 380.342L596.084 370.085L595.463 369.324H596.022L582.751 378.461L582.316 378.756L582.129 378.259C580.575 373.939 579.177 369.774 577.778 365.734L578.369 365.936C573.725 368.953 568.764 371.449 563.574 373.38L563.031 373.597V372.96C563.979 366.231 564.833 360.186 565.564 354.965L565.952 355.26C562.175 356.753 558.118 357.405 554.064 357.171H553.8L553.893 356.923L556.675 349.432C557.001 348.64 557.234 348.003 557.421 347.521C557.497 347.299 557.596 347.085 557.716 346.884C557.67 347.111 557.608 347.334 557.529 347.552C557.358 348.049 557.141 348.687 556.877 349.51C556.255 351.282 555.323 353.815 554.25 357.063L554.08 356.798C558.065 356.959 562.039 356.265 565.735 354.763L566.185 354.576V355.058C565.486 360.295 564.631 366.324 563.792 373.069L563.31 372.696C568.435 370.751 573.333 368.255 577.918 365.252L578.337 364.988L578.508 365.454L582.891 377.886L582.269 377.7L595.556 368.547L595.882 368.329L596.115 368.624L596.737 369.386L604.989 379.658L604.289 379.751L606.931 373.38L608.221 370.272C608.407 369.685 608.732 369.152 609.169 368.718C609.326 368.578 609.52 368.486 609.728 368.453H610.257C610.546 368.515 610.831 368.592 611.111 368.687C615.04 370.095 619.079 371.176 623.186 371.919L622.751 372.307C622.518 367.055 622.564 362.129 622.129 357.731V357.218L622.611 357.389C627.118 358.943 631.422 359.798 635.136 360.917L634.794 361.227C634.142 358.259 633.38 355.602 632.79 353.224C632.199 350.847 631.764 348.795 631.5 347.008V346.868H631.64C633.185 346.521 634.795 346.596 636.302 347.086C636.83 347.286 637.332 347.552 637.794 347.878Z" fill="#455A64"/>
<path d="M559.845 400.155C559.276 399.988 558.748 399.708 558.291 399.331C556.967 398.411 555.832 397.245 554.949 395.897C553.638 393.847 553.043 391.421 553.256 388.997C553.357 386.356 554.14 383.785 555.529 381.536C556.918 379.287 558.865 377.435 561.181 376.161L560.963 376.472C561.554 372.043 562.098 368.236 562.517 365.594C562.672 364.151 562.937 362.722 563.31 361.32C563.323 362.777 563.219 364.232 562.999 365.672C562.735 368.375 562.284 372.198 561.74 376.643V376.829L561.538 376.938C559.372 378.18 557.551 379.944 556.24 382.069C554.929 384.194 554.171 386.613 554.033 389.106C553.797 391.383 554.298 393.676 555.462 395.648C556.289 396.984 557.34 398.167 558.57 399.145C559.012 399.459 559.437 399.796 559.845 400.155Z" fill="#455A64"/>
<path d="M562.549 367.599C562.347 367.708 561.632 366.666 560.995 365.299C560.358 363.931 559.938 362.735 560.156 362.626C560.373 362.517 561.073 363.558 561.71 364.941C562.347 366.324 562.782 367.506 562.549 367.599Z" fill="#455A64"/>
<path d="M609.246 335.664L611.468 284.895L591.266 269.619L572.944 278.57C572.944 278.57 572.323 301.585 572.944 311.577C573.566 321.569 583.62 322.611 583.62 322.611C583.62 322.611 583.387 328.469 583.154 334.607C583.019 338.046 584.251 341.399 586.581 343.932C588.91 346.466 592.148 347.974 595.586 348.127H596.239C599.594 348.122 602.818 346.824 605.241 344.503C607.663 342.182 609.098 339.016 609.246 335.664Z" fill="#E5BAAB"/>
<path d="M574.981 295.353C574.978 295.608 575.05 295.859 575.189 296.072C575.328 296.286 575.528 296.454 575.762 296.554C575.997 296.655 576.256 296.684 576.507 296.637C576.757 296.59 576.989 296.47 577.171 296.292C577.354 296.114 577.479 295.885 577.532 295.636C577.585 295.386 577.563 295.126 577.468 294.89C577.373 294.653 577.21 294.449 577 294.305C576.789 294.161 576.541 294.082 576.286 294.079C575.948 294.079 575.624 294.213 575.385 294.452C575.146 294.691 575.012 295.015 575.012 295.353H574.981Z" fill="#263238"/>
<path d="M573.737 293.954C573.893 294.125 574.841 293.317 576.208 293.239C577.576 293.161 578.617 293.83 578.772 293.643C578.928 293.457 578.663 293.27 578.213 292.959C577.605 292.564 576.886 292.374 576.162 292.416C575.438 292.458 574.746 292.73 574.188 293.193C573.784 293.565 573.644 293.892 573.737 293.954Z" fill="#263238"/>
<path d="M589.775 295.353C589.775 295.605 589.85 295.852 589.99 296.061C590.13 296.271 590.329 296.434 590.562 296.531C590.794 296.627 591.051 296.652 591.298 296.603C591.545 296.554 591.772 296.433 591.95 296.254C592.128 296.076 592.25 295.849 592.299 295.602C592.348 295.355 592.323 295.099 592.227 294.866C592.13 294.633 591.967 294.434 591.757 294.294C591.548 294.154 591.301 294.079 591.049 294.079C590.711 294.079 590.387 294.213 590.148 294.452C589.909 294.691 589.775 295.015 589.775 295.353Z" fill="#263238"/>
<path d="M588.967 293.954C589.122 294.125 590.07 293.317 591.453 293.239C592.836 293.161 593.846 293.83 594.002 293.643C594.157 293.457 593.893 293.27 593.442 292.959C592.834 292.564 592.116 292.374 591.392 292.416C590.668 292.458 589.976 292.73 589.417 293.193C589.289 293.276 589.181 293.388 589.103 293.52C589.025 293.652 588.978 293.801 588.967 293.954Z" fill="#263238"/>
<path d="M588.562 306.868C586.464 307.942 584.225 308.716 581.911 309.168C582.419 309.859 583.142 310.361 583.966 310.594C584.791 310.828 585.67 310.78 586.464 310.458C586.831 310.374 587.177 310.218 587.484 310C587.79 309.781 588.05 309.505 588.249 309.186C588.448 308.867 588.583 308.511 588.644 308.14C588.706 307.769 588.694 307.39 588.609 307.024L588.562 306.868Z" fill="white"/>
<path d="M583.636 322.61C588.38 322.417 592.969 320.869 596.861 318.15C596.861 318.15 593.862 325.485 583.854 325.066L583.636 322.61Z" fill="#D78776"/>
<path d="M640.513 313.581C639.254 313.63 638.005 313.346 636.892 312.758C635.246 311.875 633.879 310.552 632.945 308.935C631.783 306.914 630.795 304.798 629.992 302.61C628.127 297.948 626.729 293.675 625.765 290.536C625.625 290.038 625.485 289.588 625.361 289.153C625.237 288.717 625.19 288.142 625.097 287.785C619.642 266.977 601.398 263.092 597.731 263.092C594.064 263.092 587.07 260.963 577.172 271.235C575.676 272.776 574.41 274.524 573.411 276.425C571.224 279.17 569.712 282.391 568.997 285.827C568.563 287.443 568.484 289.134 568.764 290.784C568.951 290.784 568.982 288.888 569.759 285.998C570.23 284.299 570.876 282.653 571.686 281.087C570.818 284.932 571.171 288.952 572.696 292.587L576.239 291.608L588.951 287.288C587.801 283.341 589.495 278.461 590.505 276.177L590.598 276.099C591.313 280.248 593.326 284.064 596.348 286.996C599.369 289.928 603.243 291.826 607.412 292.416L609.759 325.05C626.651 321.445 626.262 298.834 626.154 294.234C626.931 296.829 627.925 299.797 629.168 302.921C629.999 305.159 631.039 307.313 632.276 309.355C633.328 311.073 634.856 312.45 636.674 313.317C637.899 313.893 639.267 314.093 640.606 313.892C641.101 313.843 641.574 313.66 641.973 313.364C641.494 313.479 641.005 313.552 640.513 313.581Z" fill="#263238"/>
<path d="M584.009 305.578C583.278 305.391 582.526 305.297 581.771 305.298C581.414 305.298 581.072 305.221 580.994 304.972C580.95 304.587 581.021 304.198 581.196 303.853L582.129 301.009C582.797 298.973 583.356 297.124 583.683 295.788C583.945 295.076 584.117 294.335 584.196 293.581C583.809 294.233 583.511 294.933 583.31 295.663C582.844 296.984 582.222 298.771 581.554 300.838C581.243 301.833 580.948 302.796 580.652 303.698C580.449 304.146 580.405 304.65 580.528 305.127C580.576 305.251 580.653 305.361 580.753 305.448C580.854 305.534 580.974 305.595 581.103 305.625C581.304 305.656 581.508 305.656 581.709 305.625C582.475 305.702 583.247 305.687 584.009 305.578Z" fill="#263238"/>
<path d="M612.525 305.159C612.37 303.497 612.555 301.821 613.069 300.232C613.334 299.44 613.807 298.734 614.439 298.187C615.07 297.64 615.837 297.273 616.659 297.124C617.616 297.085 618.555 297.396 619.299 298C620.043 298.604 620.541 299.458 620.699 300.403C620.816 301.357 620.644 302.324 620.207 303.18C619.769 304.036 619.086 304.741 618.244 305.205C617.392 305.651 616.449 305.897 615.488 305.924C614.527 305.951 613.572 305.758 612.696 305.361" fill="#E5BAAB"/>
<path d="M615.385 303.698C615.385 303.589 615.929 303.838 616.644 303.621C617.091 303.475 617.481 303.192 617.76 302.813C618.038 302.434 618.192 301.978 618.198 301.507C618.234 301.272 618.222 301.031 618.16 300.801C618.098 300.571 617.989 300.356 617.84 300.171C617.532 299.929 617.143 299.812 616.752 299.844C616.006 299.922 615.478 300.109 615.431 299.984C615.385 299.86 615.773 299.518 616.659 299.269C616.945 299.194 617.245 299.185 617.535 299.241C617.826 299.298 618.1 299.419 618.337 299.596C618.601 299.843 618.801 300.15 618.92 300.491C619.039 300.832 619.074 301.196 619.021 301.554C618.986 302.241 618.723 302.897 618.275 303.419C617.905 303.855 617.383 304.133 616.814 304.196C615.804 304.304 615.385 303.76 615.385 303.698Z" fill="#D78776"/>
<path d="M600.14 700.574V686.028L627.397 685.857L627.614 707.132L625.936 707.256C618.415 707.722 587.677 709.09 582.642 707.598C577.032 705.935 600.14 700.574 600.14 700.574Z" fill="#00BFA6"/>
<path d="M582.004 706.262C582.004 706.013 592.199 705.796 604.771 705.796C617.342 705.796 627.521 706.013 627.521 706.262C627.521 706.511 617.342 706.728 604.771 706.728C592.199 706.728 582.004 706.526 582.004 706.262Z" fill="#263238"/>
<path d="M599.674 703.543C599.44 703.667 598.912 703.139 598.368 702.439C597.824 701.74 597.467 701.103 597.638 700.885C597.809 700.668 598.524 701.087 599.114 701.849C599.705 702.61 599.845 703.418 599.674 703.543Z" fill="#263238"/>
<path d="M597.933 704.506C597.684 704.599 597.203 703.931 596.705 703.091C596.208 702.252 595.866 701.537 596.068 701.335C596.27 701.133 596.97 701.708 597.498 702.625C598.026 703.542 598.166 704.412 597.933 704.506Z" fill="#263238"/>
<path d="M619.316 706.168C619.223 706.091 619.44 705.578 619.907 704.816C620.527 703.79 621.34 702.893 622.3 702.175C623.293 701.417 624.516 701.022 625.765 701.056C626.729 701.056 627.226 701.475 627.179 701.584C627.133 701.693 626.589 701.584 625.781 701.708C624.714 701.855 623.703 702.273 622.844 702.92C621.967 703.606 621.16 704.376 620.435 705.22C619.829 705.858 619.425 706.246 619.316 706.168Z" fill="#263238"/>
<path d="M599.58 700.853C599.72 700.636 600.326 700.744 601.01 700.977C601.694 701.21 602.253 701.521 602.206 701.77C602.16 702.019 601.476 702.127 600.652 701.863C599.829 701.599 599.456 701.024 599.58 700.853Z" fill="#263238"/>
<path d="M600.016 699.393C600.016 699.144 600.762 698.942 601.647 698.958C602.533 698.973 603.201 699.191 603.201 699.44C603.201 699.688 602.487 699.906 601.57 699.89C600.653 699.875 599.985 699.657 600.016 699.393Z" fill="#263238"/>
<path d="M575.804 448.174L560.886 450.676L569.479 461.243C571.95 510.971 571.344 559.222 573.629 583.263C573.97 586.915 589.386 701.367 587.848 698.741L633.24 700.636L619.689 585.64L626.107 483.496C633.068 471.427 635.105 457.138 631.795 443.605L630.676 439.021" fill="#455A64"/>
<path d="M607.086 268.438C605.955 268.002 604.942 267.305 604.132 266.403C603.321 265.5 602.736 264.419 602.424 263.247C602.141 262.067 602.184 260.832 602.548 259.674C602.912 258.517 603.583 257.479 604.491 256.674C605.422 255.897 606.566 255.42 607.772 255.307C608.979 255.193 610.192 255.447 611.251 256.037C612.873 257.158 614.059 258.805 614.608 260.699C615.121 261.921 615.261 263.267 615.012 264.568C614.7 265.505 614.151 266.345 613.419 267.007C612.686 267.668 611.795 268.129 610.832 268.344C608.897 268.73 606.91 268.782 604.957 268.5" fill="#263238"/>
<path d="M647.132 296.13C647.303 295.465 647.335 294.772 647.226 294.094C647.049 293.326 646.68 292.615 646.153 292.028C645.425 291.27 644.499 290.732 643.48 290.474C642.225 290.168 640.927 290.079 639.642 290.209C638.228 290.303 636.721 290.551 635.073 290.582C633.309 290.691 631.551 290.275 630.023 289.386C628.493 288.239 627.419 286.587 626.993 284.724C625.966 281.44 624.273 278.403 622.02 275.804C620.172 273.684 618.001 271.869 615.586 270.427C613.303 269.182 610.897 268.177 608.407 267.428H608.951C609.479 267.47 610.001 267.574 610.505 267.739C612.387 268.217 614.2 268.938 615.897 269.883C618.417 271.292 620.685 273.109 622.61 275.26C624.97 277.899 626.744 281.008 627.816 284.382C628.179 286.071 629.125 287.579 630.489 288.64C631.899 289.463 633.521 289.852 635.151 289.759C636.705 289.759 638.259 289.526 639.689 289.463C641.048 289.359 642.415 289.491 643.729 289.852C644.837 290.163 645.83 290.789 646.588 291.655C647.143 292.323 647.508 293.128 647.645 293.986C647.724 294.507 647.676 295.04 647.505 295.54C647.288 295.99 647.148 296.146 647.132 296.13Z" fill="#263238"/>
<path d="M618.493 305.066C618.493 304.988 619.239 305.578 619.239 306.915C619.23 307.308 619.141 307.695 618.978 308.053C618.815 308.411 618.581 308.732 618.291 308.997C617.94 309.339 617.514 309.593 617.047 309.739C616.58 309.885 616.085 309.918 615.602 309.836C615.121 309.753 614.666 309.561 614.27 309.276C613.874 308.991 613.549 308.619 613.318 308.189C613.133 307.844 613.019 307.466 612.981 307.076C612.944 306.687 612.984 306.294 613.1 305.92C613.181 305.579 613.339 305.261 613.563 304.992C613.787 304.722 614.07 304.508 614.39 304.366C614.016 304.852 613.77 305.424 613.675 306.029C613.565 306.633 613.676 307.256 613.986 307.785C614.181 308.095 614.437 308.361 614.739 308.566C615.041 308.772 615.383 308.914 615.742 308.982C616.103 309.034 616.47 309.01 616.821 308.911C617.172 308.812 617.498 308.64 617.778 308.407C618.246 308.011 618.556 307.459 618.648 306.853C618.741 305.78 618.306 305.128 618.493 305.066Z" fill="#E0E0E0"/>
<path d="M614.406 270.396C611.078 267.08 606.836 264.835 602.223 263.947C604.642 263.853 607.042 264.4 609.182 265.533C611.321 266.665 613.124 268.343 614.406 270.396Z" fill="#00BFA6"/>
<path d="M620.202 303.154C620.202 303.045 620.652 303.014 620.932 303.527C621.001 303.681 621.037 303.847 621.037 304.016C621.037 304.185 621.001 304.352 620.932 304.506C620.83 304.698 620.678 304.861 620.492 304.975C620.307 305.09 620.094 305.153 619.875 305.158C619.544 305.18 619.217 305.069 618.967 304.851C618.717 304.632 618.563 304.324 618.539 303.993C618.523 303.911 618.523 303.826 618.539 303.744C618.539 303.216 618.912 303.045 618.99 303.107C619.067 303.169 618.99 303.418 619.13 303.729C619.153 303.899 619.239 304.054 619.372 304.163C619.504 304.273 619.673 304.328 619.844 304.319C619.91 304.323 619.975 304.315 620.037 304.293C620.099 304.272 620.156 304.239 620.205 304.196C620.254 304.152 620.295 304.1 620.323 304.041C620.352 303.982 620.369 303.918 620.373 303.853C620.373 303.853 620.373 303.775 620.373 303.729C620.357 303.433 620.171 303.278 620.202 303.154Z" fill="#E0E0E0"/>
<path d="M609.573 334.109C609.731 334.654 609.789 335.223 609.744 335.788C609.71 337.336 609.405 338.867 608.842 340.31C608.117 342.174 606.987 343.853 605.535 345.228C604.083 346.603 602.344 347.639 600.443 348.262C598.543 348.884 596.528 349.078 594.543 348.829C592.559 348.58 590.654 347.894 588.967 346.821C587.011 345.566 585.406 343.833 584.305 341.786C583.57 340.421 583.081 338.938 582.86 337.404C582.751 336.85 582.751 336.28 582.86 335.726C583.187 337.75 583.854 339.704 584.833 341.506C585.954 343.399 587.509 344.997 589.371 346.168C591.679 347.556 594.354 348.211 597.042 348.048C599.731 347.884 602.306 346.909 604.429 345.252C606.141 343.862 607.494 342.082 608.376 340.061C609.097 338.156 609.502 336.145 609.573 334.109Z" fill="#455A64"/>
<path d="M606.309 690.24C606.263 690.104 606.232 689.963 606.216 689.821C606.216 689.494 606.107 689.09 606.045 688.577C605.889 687.427 605.672 685.827 605.408 683.807C604.879 679.657 604.18 673.659 603.356 666.215C601.694 651.359 599.658 630.815 597.824 608.08C595.99 585.345 594.716 564.708 594.001 549.774C593.613 542.315 593.364 536.27 593.224 532.09C593.162 530.018 593.115 528.417 593.084 527.288V526.029C593.069 525.89 593.069 525.749 593.084 525.609C593.1 525.749 593.1 525.89 593.084 526.029C593.075 526.445 593.106 526.862 593.178 527.272C593.255 528.438 593.349 530.038 593.488 532.074C593.737 536.316 594.079 542.33 594.514 549.743C595.415 564.661 596.783 585.267 598.601 608.002C600.419 630.737 602.377 651.297 603.869 666.153C604.631 673.55 605.237 679.549 605.672 683.776C605.874 685.796 606.029 687.396 606.138 688.562C606.15 688.978 606.187 689.393 606.247 689.805C606.29 689.946 606.311 690.093 606.309 690.24Z" fill="#263238"/>
<path d="M631.671 690.349C631.103 690.501 630.518 690.585 629.93 690.598C628.812 690.691 627.18 690.8 625.175 690.893C621.15 691.095 615.587 691.188 609.449 691.095C603.31 691.002 597.747 690.815 593.738 690.66L588.983 690.427C588.392 690.442 587.801 690.38 587.227 690.24C587.803 690.116 588.394 690.069 588.983 690.1H593.753C597.763 690.1 603.326 690.194 609.464 690.287C615.603 690.38 621.135 690.38 625.16 690.287H629.915C630.501 690.237 631.09 690.258 631.671 690.349Z" fill="#263238"/>
<path d="M623.528 335.555C621.387 336.341 619.126 336.746 616.845 336.752L617.141 336.192L620.14 341.056L622.036 344.164L622.486 344.926L621.616 344.755C618.744 344.333 615.848 344.089 612.945 344.024C613.742 343.762 614.576 343.631 615.416 343.636C617.535 343.501 619.663 343.616 621.756 343.978L621.352 344.568L619.425 341.46L616.519 336.55L616.193 336.006H616.814C618.803 335.912 620.497 335.788 621.663 335.679C622.279 335.576 622.903 335.534 623.528 335.555Z" fill="#455A64"/>
<path d="M637.793 347.879C637.793 348.018 635.54 347.474 631.671 347.381L631.935 347.086C632.852 350.722 634.064 355.571 635.478 361.165L635.633 361.818L634.996 361.647L625.113 358.974L622.424 358.228L622.953 357.809C623.17 363.17 623.372 368.143 623.543 372.416V372.882L623.108 372.758L613.613 370.101L610.987 369.324C610.672 369.244 610.369 369.124 610.085 368.966C610.412 368.971 610.737 369.023 611.049 369.122L613.722 369.728L623.248 372.09L622.828 372.447C622.611 368.174 622.362 363.201 622.098 357.855V357.28L622.657 357.436L625.346 358.182L635.198 360.932L634.716 361.414C633.411 355.773 632.292 350.893 631.437 347.226L631.36 346.915H631.702C633.222 346.99 634.733 347.182 636.224 347.49C636.759 347.566 637.285 347.696 637.793 347.879Z" fill="#455A64"/>
<path d="M639.751 387.288C639.313 386.967 638.934 386.573 638.632 386.122C637.979 385.299 637.265 383.931 636.239 382.346H636.658C634.143 387.257 631.2 391.937 627.863 396.332L627.552 396.752L627.226 396.332C625.672 394.395 624.118 392.323 622.564 390.116L618.989 385.454H619.58L613.83 390.52L611.251 392.742L610.054 393.783L609.479 394.281L609.339 394.405H609.168C609.168 394.545 608.655 394.219 608.764 394.079V393.985C608.764 393.985 608.873 394.25 608.92 394.234L608.655 394.312L608.562 394.016C607.645 390.908 607.008 388.453 606.62 386.682C606.354 385.78 606.249 384.838 606.309 383.9C606.475 384.812 606.687 385.714 606.946 386.604C607.428 388.329 608.158 390.8 609.168 393.83L608.811 393.612C608.923 393.581 609.041 393.581 609.153 393.612C609.23 393.639 609.298 393.689 609.345 393.756C609.393 393.823 609.418 393.903 609.417 393.985C609.432 394.057 609.432 394.131 609.417 394.203H609.339L609.122 394.11C609.106 394.05 609.073 393.996 609.028 393.954L608.935 393.861L609.059 393.737L609.634 393.224L610.815 392.167C611.624 391.437 612.463 390.613 613.348 389.898L619.021 384.848L619.347 384.553L619.627 384.91L623.201 389.572C624.848 391.717 626.433 393.799 627.863 395.788H627.226C630.563 391.44 633.571 386.848 636.223 382.051L636.441 381.678L636.658 382.035C637.653 383.698 638.212 385.143 638.85 385.936C639.487 386.728 639.798 387.241 639.751 387.288Z" fill="#455A64"/>
<path d="M612.276 365.189C612.267 365.718 612.178 366.242 612.012 366.743C611.779 367.707 611.422 369.074 610.924 370.768C609.945 374.14 608.423 378.771 606.464 383.76C604.506 388.748 602.455 393.177 600.87 396.316C600.078 397.87 599.409 399.144 598.912 399.999C598.695 400.463 598.418 400.897 598.088 401.289C598.737 399.506 599.489 397.762 600.342 396.067C601.787 392.866 603.729 388.437 605.687 383.464C607.646 378.492 609.246 373.907 610.349 370.582C610.875 368.745 611.519 366.944 612.276 365.189Z" fill="#455A64"/>
<path d="M623.528 335.555C621.387 336.341 619.126 336.746 616.845 336.752L617.141 336.192L620.14 341.056L622.036 344.164L622.486 344.926L621.616 344.755C618.744 344.333 615.848 344.089 612.945 344.024C613.742 343.762 614.576 343.631 615.416 343.636C617.535 343.501 619.663 343.616 621.756 343.978L621.352 344.568L619.425 341.46L616.519 336.55L616.193 336.006H616.814C618.803 335.912 620.497 335.788 621.663 335.679C622.279 335.576 622.903 335.534 623.528 335.555Z" fill="#455A64"/>
<path d="M612.276 365.189C612.267 365.718 612.178 366.242 612.012 366.743C611.779 367.707 611.422 369.074 610.924 370.768C609.945 374.14 608.423 378.771 606.464 383.76C604.506 388.748 602.455 393.177 600.87 396.316C600.078 397.87 599.409 399.144 598.912 399.999C598.695 400.463 598.418 400.897 598.088 401.289C598.737 399.506 599.489 397.762 600.342 396.067C601.787 392.866 603.729 388.437 605.687 383.464C607.646 378.492 609.246 373.907 610.349 370.582C610.875 368.745 611.519 366.944 612.276 365.189Z" fill="#455A64"/>
<path d="M468.318 345.428L432.195 469.361C430.331 475.755 434.004 482.449 440.398 484.313L643.433 543.492C649.827 545.356 656.521 541.683 658.384 535.289L694.508 411.356C696.371 404.962 692.699 398.268 686.305 396.404L483.27 337.225C476.876 335.361 470.182 339.034 468.318 345.428Z" fill="#00BFA6"/>
<g opacity="0.3">
<path d="M468.318 345.428L432.195 469.361C430.331 475.755 434.004 482.449 440.398 484.313L643.433 543.492C649.827 545.356 656.521 541.683 658.384 535.289L694.508 411.356C696.371 404.962 692.699 398.268 686.305 396.404L483.27 337.225C476.876 335.361 470.182 339.034 468.318 345.428Z" fill="black"/>
</g>
<path d="M461.197 433.721L457.53 446.277L456.24 445.904L459.565 434.498L456.597 433.628L456.939 432.478L461.197 433.721Z" fill="white"/>
<path d="M473.971 448.888L473.629 450.038L464.755 447.551L465.02 446.635L471.733 443.045C473.567 442.066 474.079 441.289 474.328 440.434C474.748 438.973 473.986 437.792 472.075 437.233C471.447 437.006 470.776 436.923 470.111 436.991C469.447 437.058 468.806 437.273 468.236 437.621L467.553 436.565C468.296 436.126 469.126 435.855 469.984 435.769C470.843 435.683 471.71 435.785 472.525 436.067C475.074 436.813 476.302 438.585 475.633 440.729C475.291 441.926 474.592 442.889 472.432 444.055L466.931 447.008L473.971 448.888Z" fill="white"/>
<path d="M487.754 450.66L485.237 449.929L484.273 453.224L482.984 452.851L483.947 449.541L476.861 447.552L477.125 446.619L486.216 440.248L487.646 440.668L478.866 446.884L484.32 448.438L485.159 445.532L486.418 445.905L485.579 448.811L488.081 449.541L487.754 450.66Z" fill="white"/>
<path d="M506.993 456.207L504.476 455.461L503.512 458.771L502.222 458.398L503.186 455.088L496.1 453.021L496.379 452.089L505.455 445.702L506.884 446.122L498.104 452.338L503.559 453.892L504.398 450.986L505.657 451.343L504.818 454.265L507.319 454.995L506.993 456.207Z" fill="white"/>
<path d="M518.088 459.005C517.451 461.134 515.478 462.377 512.416 461.476C510.742 461.061 509.294 460.014 508.376 458.555L509.308 457.715C509.695 458.355 510.205 458.912 510.808 459.355C511.41 459.798 512.094 460.117 512.82 460.295C514.949 460.917 516.395 460.202 516.83 458.741C517.265 457.28 516.597 455.82 513.395 454.903L510.722 454.11L513.209 448.003L520.078 450.008L519.751 451.158L514.001 449.479L512.447 453.364L514.001 453.83C517.731 454.872 518.726 456.783 518.088 459.005Z" fill="white"/>
<path d="M530.505 462.564C530.193 463.596 529.485 464.462 528.536 464.974C527.587 465.487 526.474 465.603 525.439 465.299L525.097 465.174C521.756 464.211 520.622 461.367 521.772 457.404C523.015 453.146 525.999 451.592 529.402 452.587C530.456 452.836 531.419 453.374 532.184 454.141L531.36 455.027C530.751 454.375 529.961 453.921 529.091 453.721C526.387 452.929 524.134 454.172 523.155 457.575C523.062 457.917 522.968 458.259 522.906 458.616C523.47 458.031 524.191 457.621 524.982 457.436C525.774 457.252 526.602 457.3 527.366 457.575C527.88 457.664 528.371 457.852 528.811 458.13C529.252 458.409 529.633 458.771 529.933 459.197C530.233 459.623 530.447 460.104 530.561 460.612C530.675 461.12 530.688 461.646 530.599 462.159L530.505 462.564ZM529.215 462.237C529.322 461.877 529.357 461.499 529.317 461.126C529.277 460.752 529.164 460.39 528.983 460.061C528.802 459.731 528.558 459.441 528.265 459.206C527.971 458.972 527.634 458.798 527.273 458.694C527.137 458.648 526.996 458.617 526.853 458.601C526.513 458.433 526.142 458.335 525.763 458.311C525.384 458.287 525.004 458.337 524.645 458.46C524.286 458.583 523.954 458.775 523.669 459.026C523.384 459.276 523.151 459.581 522.984 459.922C522.817 460.263 522.718 460.633 522.694 461.012C522.67 461.391 522.72 461.771 522.843 462.13C522.966 462.489 523.158 462.821 523.409 463.106C523.66 463.391 523.964 463.624 524.305 463.791C524.616 463.945 524.953 464.04 525.299 464.071C525.992 464.38 526.779 464.401 527.487 464.13C528.195 463.859 528.766 463.318 529.076 462.626C529.138 462.503 529.185 462.372 529.215 462.237Z" fill="white"/>
<path d="M547.646 467.754C547.04 469.852 545.035 471.017 542.005 470.132C540.331 469.707 538.881 468.663 537.949 467.21L538.881 466.355C539.651 467.641 540.896 468.573 542.347 468.951C544.429 469.557 545.859 468.951 546.325 467.397C546.791 465.843 545.983 464.584 543.652 463.916L542.751 463.651L543.03 462.703L547.786 459.347L541.368 457.482L541.694 456.332L549.775 458.679L549.51 459.595L544.646 463.092C547.304 463.9 548.236 465.703 547.646 467.754Z" fill="white"/>
<path d="M560.279 471.25C560.122 471.763 559.864 472.24 559.522 472.654C559.179 473.068 558.759 473.41 558.284 473.662C557.809 473.913 557.289 474.068 556.754 474.118C556.22 474.168 555.68 474.112 555.167 473.954L554.856 473.845C551.53 472.881 550.396 470.038 551.546 466.075C552.789 461.801 555.773 460.263 559.176 461.242C560.224 461.505 561.184 462.042 561.958 462.796L561.134 463.682C560.514 463.044 559.729 462.591 558.865 462.376C556.161 461.599 553.908 462.827 552.914 466.23C552.82 466.572 552.743 466.914 552.68 467.272C553.239 466.679 553.961 466.265 554.755 466.082C555.549 465.9 556.379 465.957 557.14 466.246C557.657 466.334 558.151 466.524 558.594 466.804C559.036 467.084 559.419 467.45 559.72 467.879C560.02 468.308 560.233 468.793 560.345 469.305C560.457 469.817 560.467 470.346 560.373 470.861C560.355 470.994 560.324 471.124 560.279 471.25ZM558.99 470.908C559.094 470.543 559.124 470.16 559.079 469.783C559.035 469.406 558.916 469.042 558.729 468.711C558.543 468.38 558.293 468.089 557.993 467.855C557.694 467.622 557.351 467.45 556.985 467.349L556.628 467.272C556.287 467.104 555.916 467.006 555.537 466.981C555.159 466.957 554.779 467.008 554.419 467.131C554.06 467.253 553.728 467.445 553.443 467.696C553.158 467.947 552.925 468.252 552.758 468.592C552.591 468.933 552.492 469.304 552.468 469.683C552.444 470.061 552.495 470.441 552.617 470.801C552.74 471.16 552.932 471.492 553.183 471.777C553.434 472.062 553.738 472.295 554.079 472.462C554.39 472.616 554.728 472.711 555.074 472.742C555.417 472.894 555.788 472.977 556.164 472.986C556.54 472.996 556.914 472.93 557.265 472.795C557.616 472.659 557.936 472.455 558.208 472.196C558.48 471.936 558.698 471.625 558.85 471.281C558.85 471.141 558.959 471.001 558.99 470.861V470.908Z" fill="white"/>
<path d="M574.39 465.796L574.126 466.713L565.486 476.829L564.087 476.425L572.572 466.511L566.107 464.646L565.423 466.993L564.149 466.62L565.175 463.123L574.39 465.796Z" fill="white"/>
<path d="M592.339 471.032L592.074 471.949L583.434 482.05L582.036 481.646L590.52 471.747L584.056 469.867L583.372 472.213L582.098 471.84L583.123 468.344L592.339 471.032Z" fill="white"/>
<path d="M602.067 483.697C601.414 485.919 599.13 486.805 596.131 485.873C593.131 484.94 591.686 483.076 592.339 480.853C592.534 480.135 592.972 479.505 593.578 479.072C594.184 478.639 594.921 478.428 595.665 478.476C595.133 478.121 594.732 477.603 594.522 477C594.312 476.398 594.304 475.743 594.499 475.135C595.09 473.099 597.203 472.322 599.86 473.099C602.518 473.876 603.916 475.663 603.31 477.761C603.144 478.381 602.778 478.93 602.27 479.323C601.762 479.716 601.14 479.931 600.497 479.936C601.143 480.296 601.649 480.863 601.933 481.545C602.218 482.227 602.265 482.985 602.067 483.697ZM600.746 483.293C601.197 481.739 600.14 480.387 597.918 479.734C595.696 479.082 594.095 479.734 593.644 481.288C593.194 482.842 594.219 484.194 596.457 484.847C598.695 485.5 600.28 484.847 600.746 483.293ZM598.291 478.709C600.249 479.284 601.678 478.709 602.067 477.388C602.455 476.067 601.492 474.746 599.612 474.202C597.731 473.658 596.255 474.202 595.851 475.554C595.447 476.906 596.255 478.149 598.291 478.709Z" fill="white"/>
<path d="M615.104 484.351C613.861 488.624 610.877 490.178 607.459 489.184C606.413 488.924 605.458 488.387 604.692 487.63L605.516 486.744C606.122 487.392 606.906 487.846 607.769 488.049C610.489 488.842 612.727 487.599 613.721 484.195C613.814 483.854 613.908 483.512 613.97 483.154C613.411 483.747 612.689 484.161 611.895 484.344C611.101 484.526 610.271 484.469 609.51 484.18C608.999 484.092 608.51 483.903 608.073 483.626C607.635 483.348 607.256 482.986 606.959 482.562C606.661 482.137 606.45 481.658 606.339 481.151C606.227 480.645 606.217 480.122 606.309 479.611C606.325 479.468 606.356 479.328 606.402 479.192C606.708 478.162 607.41 477.296 608.354 476.783C609.298 476.27 610.406 476.153 611.437 476.457L611.81 476.581C615.12 477.544 616.254 480.388 615.104 484.351ZM614.047 481.352C614.208 480.544 614.041 479.706 613.583 479.021C613.126 478.336 612.415 477.861 611.608 477.7H611.514C610.817 477.439 610.045 477.461 609.363 477.761C608.681 478.061 608.143 478.615 607.863 479.306C607.584 479.996 607.585 480.769 607.866 481.458C608.148 482.148 608.687 482.701 609.37 482.999C609.56 483.077 609.758 483.135 609.96 483.17C610.339 483.325 610.744 483.403 611.153 483.401C611.562 483.399 611.966 483.316 612.343 483.157C612.72 482.998 613.062 482.766 613.349 482.475C613.636 482.184 613.863 481.839 614.016 481.46C614.017 481.422 614.028 481.385 614.047 481.352Z" fill="white"/>
<path d="M629.635 481.895L625.967 494.451L624.677 494.078L628.003 482.672L625.035 481.801L625.377 480.651L629.635 481.895Z" fill="white"/>
<path d="M636.659 497.062L636.317 498.212L627.506 495.725L627.77 494.808L634.483 491.219C636.317 490.24 636.83 489.463 637.079 488.608C637.498 487.163 636.737 485.966 634.825 485.407C634.197 485.18 633.526 485.097 632.862 485.164C632.198 485.232 631.557 485.447 630.987 485.795L630.303 484.738C631.048 484.303 631.878 484.034 632.736 483.951C633.595 483.867 634.462 483.972 635.276 484.257C637.824 484.987 639.052 486.759 638.384 488.919C638.026 490.115 637.343 491.079 635.183 492.244L629.681 495.197L636.659 497.062Z" fill="white"/>
<path d="M648.019 497.901C647.397 499.999 645.408 501.164 642.378 500.279C640.712 499.825 639.283 498.752 638.384 497.279L639.316 496.44C639.694 497.08 640.195 497.638 640.79 498.084C641.385 498.529 642.062 498.852 642.782 499.035C644.864 499.642 646.294 499.035 646.744 497.481C647.195 495.927 646.418 494.669 644.087 494.001L643.186 493.736L643.465 492.773L648.205 489.432L641.787 487.567L642.129 486.417L650.194 488.763L649.93 489.68L645.082 493.115C647.723 494.078 648.656 495.881 648.019 497.901Z" fill="white"/>
<path d="M550.962 482.74L549.375 488.186L649.951 517.482L651.537 512.036L550.962 482.74Z" fill="white"/>
<path d="M596.793 507.87L595.202 513.331L646.795 528.359L648.386 522.899L596.793 507.87Z" fill="white"/>
<path d="M463.665 396.61L458.791 413.334C457.599 417.421 459.947 421.7 464.034 422.891L491.44 430.88C495.527 432.071 499.806 429.723 500.997 425.637L505.872 408.912C507.063 404.825 504.716 400.547 500.629 399.355L473.222 391.367C469.135 390.176 464.857 392.523 463.665 396.61Z" fill="#263238"/>
<path d="M459.208 411.997L459.798 409.976L481.554 416.317C482.762 416.669 484.06 416.527 485.163 415.923C486.266 415.318 487.084 414.3 487.436 413.092C487.788 411.885 487.647 410.586 487.042 409.483C486.437 408.38 485.419 407.563 484.211 407.21L462.455 400.885L463.046 398.865L484.802 405.19C486.469 405.76 487.853 406.951 488.665 408.515C489.477 410.079 489.656 411.896 489.164 413.588C488.672 415.28 487.547 416.717 486.023 417.602C484.499 418.486 482.692 418.749 480.979 418.337L459.208 411.997Z" fill="white"/>
<path d="M488.686 412.333L488.093 414.361L503.008 418.723L503.601 416.694L488.686 412.333Z" fill="white"/>
<path d="M478.39 364.719L475.677 374.028L584.214 405.664L586.927 396.354L478.39 364.719Z" fill="white"/>
<path d="M640.512 386.805L613.83 369.276C613.83 369.276 600.792 406.821 596.736 407.194C574.607 409.214 550.924 401.864 542.626 398.973C541.787 398.025 540.823 396.891 539.751 395.492C538.837 394.293 538.133 392.948 537.669 391.514C537.021 389.755 536.623 387.914 536.488 386.044C536.531 385.587 536.392 385.131 536.101 384.776C535.81 384.421 535.39 384.195 534.934 384.148C534.674 384.128 534.412 384.164 534.168 384.256C533.924 384.347 533.702 384.491 533.52 384.676C532.556 385.92 532.307 390.659 534.499 395.772C536.69 400.885 528.951 396.813 526.107 395.384C523.263 393.954 514.25 389.945 513.115 390.473C511.468 391.25 511.981 393.161 514.856 394.529C517.731 395.896 526.06 400.574 525.237 402.035C524.413 403.495 510.039 396.005 510.039 396.005C510.039 396.005 507.226 393.923 506.216 395.586C504.382 398.585 520.202 405.391 521.756 405.997C522.812 406.433 521.973 408.049 520.854 407.551C519.736 407.054 506.682 399.781 504.802 402.796C503.356 405.127 517.809 408.53 519.673 411.53C521.538 414.529 508.966 407.847 507.676 410.115C507.195 410.97 506.962 411.669 514.732 414.482C520.421 416.255 526.199 417.729 532.043 418.896V418.973C532.043 418.973 611.39 454.498 626.402 420.232C642.47 383.713 640.512 386.805 640.512 386.805Z" fill="#E5BAAB"/>
<path d="M622.999 335.478C622.999 335.478 647.241 338.337 644.755 367.179C643.132 385.01 638.122 402.368 629.992 418.321L598.197 401.631C605.356 387.35 610.742 372.247 614.234 356.659L623.154 335.478H622.999Z" fill="#00BFA6"/>
<g opacity="0.2">
<path d="M622.999 335.478C622.999 335.478 647.241 338.337 644.755 367.179C643.132 385.01 638.122 402.368 629.992 418.321L598.197 401.631C605.356 387.35 610.742 372.247 614.234 356.659L623.154 335.478H622.999Z" fill="white"/>
</g>
<path d="M637.793 347.879C637.793 348.018 635.54 347.474 631.671 347.381L631.935 347.086C632.852 350.722 634.064 355.571 635.478 361.165L635.633 361.818L634.996 361.647L625.113 358.974L622.424 358.228L622.953 357.809C623.17 363.17 623.372 368.143 623.543 372.416V372.882L623.108 372.758L613.613 370.101L610.987 369.324C610.672 369.244 610.369 369.124 610.085 368.966C610.412 368.971 610.737 369.023 611.049 369.122L613.722 369.728L623.248 372.09L622.828 372.447C622.611 368.174 622.362 363.201 622.098 357.855V357.28L622.657 357.436L625.346 358.182L635.198 360.932L634.716 361.414C633.411 355.773 632.292 350.893 631.437 347.226L631.36 346.915H631.702C633.222 346.99 634.733 347.182 636.224 347.49C636.759 347.566 637.285 347.696 637.793 347.879Z" fill="#455A64"/>
<path d="M639.751 387.288C639.313 386.967 638.934 386.573 638.632 386.122C637.979 385.299 637.265 383.931 636.239 382.346H636.658C634.143 387.257 631.2 391.937 627.863 396.332L627.552 396.752L627.226 396.332C625.672 394.395 624.118 392.323 622.564 390.116L618.989 385.454H619.58L613.83 390.52L611.251 392.742L610.054 393.783L609.479 394.281L609.339 394.405H609.168C609.168 394.545 608.655 394.219 608.764 394.079V393.985C608.764 393.985 608.873 394.25 608.92 394.234L608.655 394.312L608.562 394.016C607.645 390.908 607.008 388.453 606.62 386.682C606.354 385.78 606.249 384.838 606.309 383.9C606.475 384.812 606.687 385.714 606.946 386.604C607.428 388.329 608.158 390.8 609.168 393.83L608.811 393.612C608.923 393.581 609.041 393.581 609.153 393.612C609.23 393.639 609.298 393.689 609.345 393.756C609.393 393.823 609.418 393.903 609.417 393.985C609.432 394.057 609.432 394.131 609.417 394.203H609.339L609.122 394.11C609.106 394.05 609.073 393.996 609.028 393.954L608.935 393.861L609.059 393.737L609.634 393.224L610.815 392.167C611.624 391.437 612.463 390.613 613.348 389.898L619.021 384.848L619.347 384.553L619.627 384.91L623.201 389.572C624.848 391.717 626.433 393.799 627.863 395.788H627.226C630.563 391.44 633.571 386.848 636.223 382.051L636.441 381.678L636.658 382.035C637.653 383.698 638.212 385.143 638.85 385.936C639.487 386.728 639.798 387.241 639.751 387.288Z" fill="#455A64"/>
</svg>
